{"glyphs":{"0":{"ha":771,"x_min":47,"x_max":724,"o":"m 386 -14 q 135 113 222 -14 q 47 486 47 240 q 135 859 47 732 q 386 986 222 986 q 637 859 550 986 q 724 486 724 732 q 637 113 724 240 q 386 -14 550 -14 m 386 99 q 525 196 478 99 q 572 486 572 293 q 525 777 572 681 q 386 874 478 874 q 199 486 199 874 q 247 196 199 293 q 386 99 294 99 z "},"1":{"ha":771,"x_min":149,"x_max":651,"o":"m 174 117 l 338 117 l 338 797 l 149 688 l 149 824 l 390 972 l 489 972 l 489 117 l 651 117 l 651 0 l 174 0 l 174 117 z "},"2":{"ha":771,"x_min":60,"x_max":711,"o":"m 85 121 q 281 289 182 192 q 448 497 379 386 q 517 708 517 608 q 476 821 517 779 q 365 863 436 863 q 238 829 299 863 q 140 740 176 796 l 60 828 q 187 944 106 901 q 367 986 268 986 q 590 913 508 986 q 671 713 671 840 q 562 420 671 574 q 286 117 453 267 l 711 117 l 711 0 l 85 0 l 85 121 z "},"3":{"ha":771,"x_min":65,"x_max":708,"o":"m 376 -14 q 188 25 271 -14 q 65 132 106 64 l 140 218 q 241 140 178 169 q 371 110 304 110 q 505 156 454 110 q 556 278 556 203 q 493 406 556 360 q 321 451 431 451 l 260 451 l 260 567 l 319 567 q 467 613 411 567 q 522 735 522 660 q 482 829 522 796 q 369 863 442 863 q 242 834 301 863 q 144 754 183 806 l 72 840 q 202 947 118 907 q 385 986 286 986 q 536 957 471 986 q 638 874 601 928 q 674 751 674 821 q 628 608 674 671 q 499 515 582 546 q 655 425 601 488 q 708 269 708 363 q 667 122 708 186 q 551 22 626 57 q 376 -14 475 -14 z "},"4":{"ha":771,"x_min":36,"x_max":735,"o":"m 476 161 l 36 161 l 36 281 l 453 972 l 628 972 l 628 285 l 735 285 l 735 161 l 628 161 l 628 0 l 476 0 l 476 161 m 476 285 l 476 783 l 176 285 l 476 285 z "},"5":{"ha":771,"x_min":58,"x_max":713,"o":"m 367 -14 q 185 26 268 -14 q 58 132 103 65 l 128 229 q 232 141 171 172 q 361 110 293 110 q 504 167 451 110 q 557 325 557 225 q 510 475 557 419 q 381 531 463 531 q 286 506 331 531 q 218 438 242 481 l 92 438 l 138 972 l 679 972 l 679 849 l 274 849 l 250 590 q 324 631 276 615 q 419 646 371 646 q 574 607 507 646 q 676 496 640 568 q 713 328 713 424 q 670 148 713 225 q 549 28 628 71 q 367 -14 471 -14 z "},"6":{"ha":771,"x_min":58,"x_max":714,"o":"m 393 -14 q 216 33 292 -14 q 99 163 140 79 q 58 357 58 247 q 134 649 58 511 q 341 879 210 788 q 629 990 472 971 l 643 875 q 415 770 518 849 q 267 581 313 692 q 323 616 286 601 q 403 631 360 631 q 570 590 500 631 q 677 475 640 549 q 714 307 714 401 q 674 141 714 214 q 563 27 635 68 q 393 -14 490 -14 m 392 110 q 518 164 471 110 q 565 308 565 218 q 518 453 565 399 q 392 507 471 507 q 265 453 313 507 q 217 308 217 399 q 265 164 217 218 q 392 110 313 110 z "},"7":{"ha":771,"x_min":69,"x_max":703,"o":"m 251 0 q 316 459 258 257 q 524 849 374 661 l 69 849 l 69 972 l 703 972 l 703 861 q 481 483 557 703 q 404 0 404 263 l 251 0 z "},"8":{"ha":771,"x_min":51,"x_max":719,"o":"m 386 -14 q 141 62 231 -14 q 51 269 51 138 q 94 419 51 353 q 213 517 136 486 q 120 602 156 542 q 85 732 85 663 q 167 917 85 847 q 386 986 250 986 q 604 917 522 986 q 686 732 686 847 q 651 602 686 663 q 560 517 617 542 q 677 419 635 486 q 719 269 719 353 q 630 63 719 139 q 386 -14 540 -14 m 386 572 q 494 612 454 572 q 535 718 535 651 q 494 823 535 783 q 386 863 454 863 q 277 823 318 863 q 236 718 236 783 q 277 612 236 651 q 386 572 318 572 m 386 110 q 519 158 471 110 q 568 288 568 206 q 519 415 568 368 q 386 463 471 463 q 252 416 301 463 q 203 288 203 369 q 252 158 203 206 q 386 110 301 110 z "},"9":{"ha":771,"x_min":58,"x_max":714,"o":"m 129 99 q 369 206 263 126 q 514 393 476 286 q 452 358 492 372 q 369 343 413 343 q 204 385 275 343 q 96 499 133 426 q 58 665 58 572 q 98 831 58 758 q 210 945 138 904 q 379 986 282 986 q 556 940 481 986 q 673 808 632 893 q 714 610 714 724 q 642 310 714 446 q 443 89 571 175 q 151 -18 315 3 l 129 99 m 379 458 q 508 515 460 458 q 556 664 556 571 q 508 808 556 754 q 381 863 460 863 q 254 808 301 863 q 207 664 207 754 q 253 514 207 569 q 379 458 300 458 z "},"\u0000":{"ha":0,"x_min":0,"x_max":0,"o":""},"\r":{"ha":333,"x_min":0,"x_max":0,"o":""}," ":{"ha":333,"x_min":0,"x_max":0,"o":""},"A":{"ha":849,"x_min":22,"x_max":826,"o":"m 606 193 l 243 193 l 183 0 l 22 0 l 356 972 l 493 972 l 826 0 l 665 0 l 606 193 m 567 317 l 425 776 l 282 317 l 567 317 z "},"Á":{"ha":849,"x_min":22,"x_max":826,"o":"m 606 193 l 243 193 l 183 0 l 22 0 l 356 972 l 493 972 l 826 0 l 665 0 l 606 193 m 567 317 l 425 776 l 282 317 l 567 317 m 485 1258 l 624 1258 l 483 1047 l 374 1047 l 485 1258 z "},"Ă":{"ha":849,"x_min":22,"x_max":826,"o":"m 606 193 l 243 193 l 183 0 l 22 0 l 356 972 l 493 972 l 826 0 l 665 0 l 606 193 m 567 317 l 425 776 l 282 317 l 567 317 m 425 1047 q 274 1097 329 1047 q 215 1242 218 1146 l 306 1242 q 338 1165 308 1193 q 425 1138 368 1138 q 510 1164 478 1138 q 544 1242 542 1190 l 635 1242 q 579 1098 632 1149 q 425 1047 526 1047 z "},"Ắ":{"ha":849,"x_min":22,"x_max":826,"o":"m 606 193 l 243 193 l 183 0 l 22 0 l 356 972 l 493 972 l 826 0 l 665 0 l 606 193 m 567 317 l 425 776 l 282 317 l 567 317 m 443 1421 l 553 1421 l 461 1269 l 374 1269 l 443 1421 m 425 1047 q 274 1097 329 1047 q 215 1242 218 1146 l 306 1242 q 338 1165 308 1193 q 425 1138 368 1138 q 510 1164 478 1138 q 544 1242 542 1190 l 635 1242 q 579 1098 632 1149 q 425 1047 526 1047 z "},"Ặ":{"ha":849,"x_min":22,"x_max":826,"o":"m 606 193 l 243 193 l 183 0 l 22 0 l 356 972 l 493 972 l 826 0 l 665 0 l 606 193 m 567 317 l 425 776 l 282 317 l 567 317 m 425 -256 q 368 -234 390 -256 q 346 -178 346 -212 q 368 -122 346 -143 q 425 -100 390 -100 q 482 -122 460 -100 q 504 -178 504 -143 q 482 -234 504 -212 q 425 -256 460 -256 m 425 1047 q 274 1097 329 1047 q 215 1242 218 1146 l 306 1242 q 338 1165 308 1193 q 425 1138 368 1138 q 510 1164 478 1138 q 544 1242 542 1190 l 635 1242 q 579 1098 632 1149 q 425 1047 526 1047 z "},"Ằ":{"ha":849,"x_min":22,"x_max":826,"o":"m 606 193 l 243 193 l 183 0 l 22 0 l 356 972 l 493 972 l 826 0 l 665 0 l 606 193 m 567 317 l 425 776 l 282 317 l 567 317 m 288 1421 l 397 1421 l 467 1269 l 378 1269 l 288 1421 m 425 1047 q 274 1097 329 1047 q 215 1242 218 1146 l 306 1242 q 338 1165 308 1193 q 425 1138 368 1138 q 510 1164 478 1138 q 544 1242 542 1190 l 635 1242 q 579 1098 632 1149 q 425 1047 526 1047 z "},"Ẳ":{"ha":849,"x_min":22,"x_max":826,"o":"m 606 193 l 243 193 l 183 0 l 22 0 l 356 972 l 493 972 l 826 0 l 665 0 l 606 193 m 567 317 l 425 776 l 282 317 l 567 317 m 385 1261 q 398 1311 385 1293 q 436 1349 411 1329 q 464 1374 456 1364 q 472 1400 472 1385 q 460 1423 472 1414 q 428 1432 449 1432 q 388 1422 407 1432 q 356 1392 368 1411 l 313 1432 q 364 1479 331 1461 q 436 1497 397 1497 q 514 1472 483 1497 q 544 1404 544 1446 q 533 1360 544 1376 q 500 1324 522 1344 q 470 1294 479 1307 q 460 1261 461 1282 l 385 1261 m 425 1047 q 274 1097 329 1047 q 215 1242 218 1146 l 306 1242 q 338 1165 308 1193 q 425 1138 368 1138 q 510 1164 478 1138 q 544 1242 542 1190 l 635 1242 q 579 1098 632 1149 q 425 1047 526 1047 z "},"Ẵ":{"ha":849,"x_min":22,"x_max":826,"o":"m 606 193 l 243 193 l 183 0 l 22 0 l 356 972 l 493 972 l 826 0 l 665 0 l 606 193 m 567 317 l 425 776 l 282 317 l 567 317 m 497 1296 q 455 1305 475 1296 q 410 1331 435 1314 q 374 1351 388 1344 q 347 1357 361 1357 q 316 1343 329 1357 q 297 1303 303 1329 l 231 1303 q 272 1395 242 1361 q 350 1429 301 1429 q 394 1421 374 1429 q 442 1396 414 1413 q 479 1376 464 1383 q 508 1369 494 1369 q 558 1428 547 1369 l 622 1428 q 581 1331 614 1365 q 497 1296 549 1296 m 425 1047 q 274 1097 329 1047 q 215 1242 218 1146 l 306 1242 q 338 1165 308 1193 q 425 1138 368 1138 q 510 1164 478 1138 q 544 1242 542 1190 l 635 1242 q 579 1098 632 1149 q 425 1047 526 1047 z "},"Ǎ":{"ha":849,"x_min":22,"x_max":826,"o":"m 606 193 l 243 193 l 183 0 l 22 0 l 356 972 l 493 972 l 826 0 l 665 0 l 606 193 m 567 317 l 425 776 l 282 317 l 567 317 m 215 1256 l 335 1256 l 425 1138 l 515 1256 l 635 1256 l 469 1047 l 381 1047 l 215 1256 z "},"Â":{"ha":849,"x_min":22,"x_max":826,"o":"m 606 193 l 243 193 l 183 0 l 22 0 l 356 972 l 493 972 l 826 0 l 665 0 l 606 193 m 567 317 l 425 776 l 282 317 l 567 317 m 381 1256 l 469 1256 l 635 1047 l 515 1047 l 425 1165 l 335 1047 l 215 1047 l 381 1256 z "},"Ấ":{"ha":849,"x_min":22,"x_max":826,"o":"m 606 193 l 243 193 l 183 0 l 22 0 l 356 972 l 493 972 l 826 0 l 665 0 l 606 193 m 567 317 l 425 776 l 282 317 l 567 317 m 622 1365 l 729 1365 l 642 1219 l 557 1219 l 622 1365 m 381 1256 l 468 1256 l 635 1047 l 514 1047 l 425 1165 l 335 1047 l 215 1047 l 381 1256 z "},"Ậ":{"ha":849,"x_min":22,"x_max":826,"o":"m 606 193 l 243 193 l 183 0 l 22 0 l 356 972 l 493 972 l 826 0 l 665 0 l 606 193 m 567 317 l 425 776 l 282 317 l 567 317 m 425 -256 q 368 -234 390 -256 q 346 -178 346 -212 q 368 -122 346 -143 q 425 -100 390 -100 q 482 -122 460 -100 q 504 -178 504 -143 q 482 -234 504 -212 q 425 -256 460 -256 m 381 1256 l 469 1256 l 635 1047 l 515 1047 l 425 1165 l 335 1047 l 215 1047 l 381 1256 z "},"Ầ":{"ha":849,"x_min":22,"x_max":826,"o":"m 606 193 l 243 193 l 183 0 l 22 0 l 356 972 l 493 972 l 826 0 l 665 0 l 606 193 m 567 317 l 425 776 l 282 317 l 567 317 m 515 1365 l 622 1365 l 688 1219 l 603 1219 l 515 1365 m 381 1256 l 468 1256 l 635 1047 l 514 1047 l 425 1165 l 335 1047 l 215 1047 l 381 1256 z "},"Ẩ":{"ha":849,"x_min":22,"x_max":826,"o":"m 606 193 l 243 193 l 183 0 l 22 0 l 356 972 l 493 972 l 826 0 l 665 0 l 606 193 m 567 317 l 425 776 l 282 317 l 567 317 m 599 1206 q 612 1256 599 1238 q 649 1293 625 1275 q 675 1317 667 1307 q 683 1343 683 1328 q 672 1367 683 1358 q 642 1375 661 1375 q 601 1364 621 1375 q 569 1333 582 1353 l 524 1376 q 577 1424 543 1406 q 650 1442 611 1442 q 728 1417 699 1442 q 758 1347 758 1392 q 747 1304 758 1321 q 714 1269 736 1288 q 684 1238 693 1250 q 674 1206 675 1225 l 599 1206 m 381 1256 l 468 1256 l 635 1047 l 514 1047 l 425 1165 l 335 1047 l 215 1047 l 381 1256 z "},"Ẫ":{"ha":849,"x_min":22,"x_max":826,"o":"m 606 193 l 243 193 l 183 0 l 22 0 l 356 972 l 493 972 l 826 0 l 665 0 l 606 193 m 567 317 l 425 776 l 282 317 l 567 317 m 496 1299 q 456 1308 475 1299 q 411 1333 436 1317 q 374 1355 388 1349 q 347 1361 361 1361 q 297 1306 310 1361 l 231 1306 q 272 1399 242 1365 q 350 1432 301 1432 q 394 1424 372 1432 q 443 1399 415 1415 q 461 1389 447 1397 q 487 1377 475 1381 q 508 1374 499 1374 q 558 1431 547 1374 l 622 1431 q 581 1333 614 1368 q 496 1299 547 1299 m 381 1256 l 468 1256 l 635 1047 l 514 1047 l 425 1165 l 335 1047 l 215 1047 l 381 1256 z "},"Ä":{"ha":849,"x_min":22,"x_max":826,"o":"m 606 193 l 243 193 l 183 0 l 22 0 l 356 972 l 493 972 l 826 0 l 665 0 l 606 193 m 567 317 l 425 776 l 282 317 l 567 317 m 283 1047 q 226 1069 249 1047 q 204 1125 204 1092 q 226 1181 204 1160 q 283 1203 249 1203 q 340 1181 317 1203 q 363 1125 363 1158 q 340 1069 363 1092 q 283 1047 317 1047 m 567 1047 q 510 1069 533 1047 q 488 1125 488 1092 q 510 1181 488 1158 q 567 1203 533 1203 q 624 1181 601 1203 q 646 1125 646 1160 q 624 1069 646 1092 q 567 1047 601 1047 z "},"Ạ":{"ha":849,"x_min":22,"x_max":826,"o":"m 606 193 l 243 193 l 183 0 l 22 0 l 356 972 l 493 972 l 826 0 l 665 0 l 606 193 m 567 317 l 425 776 l 282 317 l 567 317 m 425 -256 q 368 -234 390 -256 q 346 -178 346 -212 q 368 -122 346 -143 q 425 -100 390 -100 q 482 -122 460 -100 q 504 -178 504 -143 q 482 -234 504 -212 q 425 -256 460 -256 z "},"À":{"ha":849,"x_min":22,"x_max":826,"o":"m 606 193 l 243 193 l 183 0 l 22 0 l 356 972 l 493 972 l 826 0 l 665 0 l 606 193 m 567 317 l 425 776 l 282 317 l 567 317 m 231 1258 l 368 1258 l 479 1047 l 369 1047 l 231 1258 z "},"Ả":{"ha":849,"x_min":22,"x_max":826,"o":"m 606 193 l 243 193 l 183 0 l 22 0 l 356 972 l 493 972 l 826 0 l 665 0 l 606 193 m 567 317 l 425 776 l 282 317 l 567 317 m 372 1047 q 387 1106 372 1083 q 429 1154 401 1129 q 462 1190 451 1175 q 472 1226 472 1206 q 418 1268 472 1268 q 331 1204 365 1268 l 271 1258 q 335 1326 293 1301 q 429 1350 376 1350 q 535 1319 496 1350 q 574 1233 574 1289 q 559 1175 574 1199 q 517 1124 544 1151 q 484 1084 494 1100 q 474 1047 474 1068 l 372 1047 z "},"Ā":{"ha":849,"x_min":22,"x_max":826,"o":"m 606 193 l 243 193 l 183 0 l 22 0 l 356 972 l 493 972 l 826 0 l 665 0 l 606 193 m 567 317 l 425 776 l 282 317 l 567 317 m 201 1158 l 649 1158 l 649 1065 l 201 1065 l 201 1158 z "},"Ą":{"ha":849,"x_min":22,"x_max":850,"o":"m 850 -257 q 791 -292 826 -279 q 717 -304 756 -304 q 612 -271 650 -304 q 574 -172 574 -237 q 697 0 574 -67 l 665 0 l 606 193 l 243 193 l 183 0 l 22 0 l 356 972 l 493 972 l 826 0 l 790 0 q 674 -154 674 -81 q 693 -199 674 -182 q 754 -215 713 -215 q 831 -196 785 -215 l 850 -257 m 567 317 l 425 776 l 282 317 l 567 317 z "},"Å":{"ha":849,"x_min":22,"x_max":826,"o":"m 606 193 l 243 193 l 183 0 l 22 0 l 356 972 l 493 972 l 826 0 l 665 0 l 606 193 m 567 317 l 425 776 l 282 317 l 567 317 m 425 997 q 326 1033 365 997 q 288 1126 288 1069 q 326 1219 288 1183 q 425 1256 365 1256 q 524 1219 485 1256 q 563 1126 563 1183 q 524 1033 563 1069 q 425 997 485 997 m 425 1056 q 475 1076 456 1056 q 494 1126 494 1096 q 475 1177 494 1157 q 425 1197 456 1197 q 375 1177 394 1197 q 356 1126 356 1157 q 375 1076 356 1096 q 425 1056 394 1056 z "},"Ǻ":{"ha":849,"x_min":22,"x_max":826,"o":"m 489 1290 l 388 1290 l 461 1436 l 582 1436 l 489 1290 m 425 999 q 326 1034 364 999 q 288 1126 288 1069 q 326 1219 288 1183 q 425 1256 364 1256 q 523 1219 485 1256 q 561 1126 561 1183 q 523 1034 561 1069 q 425 999 485 999 m 425 1197 q 375 1177 394 1197 q 356 1126 356 1157 q 375 1076 356 1096 q 425 1056 394 1056 q 474 1076 456 1056 q 493 1126 493 1096 q 474 1178 493 1158 q 425 1197 456 1197 m 606 193 l 243 193 l 183 0 l 22 0 l 356 972 l 493 972 l 826 0 l 665 0 l 606 193 m 567 317 l 425 776 l 282 317 l 567 317 z "},"Ã":{"ha":849,"x_min":22,"x_max":826,"o":"m 606 193 l 243 193 l 183 0 l 22 0 l 356 972 l 493 972 l 826 0 l 665 0 l 606 193 m 567 317 l 425 776 l 282 317 l 567 317 m 211 1047 q 246 1158 211 1117 q 335 1200 281 1200 q 385 1190 361 1200 q 439 1161 410 1179 q 476 1141 463 1147 q 503 1135 490 1135 q 544 1206 540 1135 l 629 1206 q 592 1089 628 1131 q 501 1047 557 1047 q 448 1058 474 1047 q 392 1089 422 1069 q 369 1101 389 1090 q 338 1113 350 1113 q 309 1095 321 1113 q 296 1047 297 1078 l 211 1047 z "},"Æ":{"ha":1124,"x_min":22,"x_max":1058,"o":"m 672 850 l 672 569 l 1013 569 l 1013 449 l 672 449 l 672 122 l 1058 122 l 1058 0 l 521 0 l 521 179 l 267 179 l 190 0 l 22 0 l 469 972 l 1058 972 l 1058 850 l 672 850 m 521 296 l 521 782 l 315 296 l 521 296 z "},"Ǽ":{"ha":1124,"x_min":22,"x_max":1058,"o":"m 672 850 l 672 569 l 1013 569 l 1013 449 l 672 449 l 672 122 l 1058 122 l 1058 0 l 521 0 l 521 179 l 267 179 l 190 0 l 22 0 l 469 972 l 1058 972 l 1058 850 l 672 850 m 521 296 l 521 782 l 315 296 l 521 296 m 704 1258 l 843 1258 l 703 1047 l 593 1047 l 704 1258 z "},"B":{"ha":826,"x_min":107,"x_max":763,"o":"m 107 972 l 383 972 q 724 736 724 972 q 689 606 724 658 q 581 524 654 554 l 581 519 q 719 433 676 490 q 763 281 763 376 q 439 0 763 0 l 107 0 l 107 972 m 410 569 q 531 609 489 569 q 572 722 572 649 q 527 822 572 790 q 383 853 482 853 l 258 853 l 258 569 l 410 569 m 438 119 q 568 162 524 119 q 613 286 613 204 q 558 416 613 375 q 383 457 503 457 l 258 457 l 258 119 l 438 119 z "},"C":{"ha":829,"x_min":46,"x_max":792,"o":"m 475 -14 q 248 47 344 -14 q 99 221 151 108 q 46 486 46 333 q 99 751 46 639 q 249 925 151 864 q 479 986 347 986 q 669 944 586 986 q 792 828 753 903 l 706 747 q 482 863 631 863 q 272 765 346 863 q 199 486 199 667 q 271 208 199 307 q 475 110 343 110 q 613 138 556 110 q 706 225 669 167 l 792 144 q 669 28 751 69 q 475 -14 586 -14 z "},"Ć":{"ha":829,"x_min":46,"x_max":792,"o":"m 475 -14 q 248 47 344 -14 q 99 221 151 108 q 46 486 46 333 q 99 751 46 639 q 249 925 151 864 q 479 986 347 986 q 669 944 586 986 q 792 828 753 903 l 706 747 q 482 863 631 863 q 272 765 346 863 q 199 486 199 667 q 271 208 199 307 q 475 110 343 110 q 613 138 556 110 q 706 225 669 167 l 792 144 q 669 28 751 69 q 475 -14 586 -14 m 535 1258 l 674 1258 l 533 1047 l 424 1047 l 535 1258 z "},"Č":{"ha":829,"x_min":46,"x_max":792,"o":"m 475 -14 q 248 47 344 -14 q 99 221 151 108 q 46 486 46 333 q 99 751 46 639 q 249 925 151 864 q 479 986 347 986 q 669 944 586 986 q 792 828 753 903 l 706 747 q 482 863 631 863 q 272 765 346 863 q 199 486 199 667 q 271 208 199 307 q 475 110 343 110 q 613 138 556 110 q 706 225 669 167 l 792 144 q 669 28 751 69 q 475 -14 586 -14 m 265 1256 l 385 1256 l 475 1138 l 565 1256 l 685 1256 l 519 1047 l 431 1047 l 265 1256 z "},"Ç":{"ha":829,"x_min":46,"x_max":792,"o":"m 475 110 q 613 138 556 110 q 706 225 669 167 l 792 144 q 688 38 756 78 q 526 -11 619 -3 l 485 -87 q 577 -115 542 -87 q 613 -189 613 -142 q 572 -281 613 -246 q 463 -317 531 -317 q 398 -310 431 -317 q 349 -294 365 -304 l 361 -233 q 444 -246 401 -246 q 496 -232 476 -246 q 515 -193 515 -218 q 488 -156 515 -169 q 413 -144 461 -143 l 381 -108 l 435 -12 q 228 60 315 -3 q 93 233 140 124 q 46 486 46 342 q 99 751 46 639 q 249 925 151 864 q 479 986 347 986 q 669 944 586 986 q 792 828 753 903 l 706 747 q 482 863 631 863 q 272 765 346 863 q 199 486 199 667 q 271 208 199 307 q 475 110 343 110 z "},"Ĉ":{"ha":829,"x_min":46,"x_max":792,"o":"m 475 -14 q 248 47 344 -14 q 99 221 151 108 q 46 486 46 333 q 99 751 46 639 q 249 925 151 864 q 479 986 347 986 q 669 944 586 986 q 792 828 753 903 l 706 747 q 482 863 631 863 q 272 765 346 863 q 199 486 199 667 q 271 208 199 307 q 475 110 343 110 q 613 138 556 110 q 706 225 669 167 l 792 144 q 669 28 751 69 q 475 -14 586 -14 m 431 1256 l 519 1256 l 685 1047 l 565 1047 l 475 1165 l 385 1047 l 265 1047 l 431 1256 z "},"Ċ":{"ha":829,"x_min":46,"x_max":792,"o":"m 475 -14 q 248 47 344 -14 q 99 221 151 108 q 46 486 46 333 q 99 751 46 639 q 249 925 151 864 q 479 986 347 986 q 669 944 586 986 q 792 828 753 903 l 706 747 q 482 863 631 863 q 272 765 346 863 q 199 486 199 667 q 271 208 199 307 q 475 110 343 110 q 613 138 556 110 q 706 225 669 167 l 792 144 q 669 28 751 69 q 475 -14 586 -14 m 475 1047 q 418 1069 440 1047 q 396 1125 396 1092 q 418 1181 396 1160 q 475 1203 440 1203 q 532 1181 510 1203 q 554 1125 554 1160 q 532 1069 554 1092 q 475 1047 510 1047 z "},"D":{"ha":874,"x_min":107,"x_max":817,"o":"m 107 972 l 428 972 q 719 855 621 972 q 817 506 817 738 q 773 215 817 325 q 635 52 729 104 q 389 0 542 0 l 107 0 l 107 972 m 411 124 q 605 214 544 124 q 665 506 665 304 q 607 766 665 683 q 422 849 549 849 l 258 849 l 258 124 l 411 124 z "},"Ð":{"ha":879,"x_min":13,"x_max":821,"o":"m 432 972 q 723 855 625 972 q 821 506 821 738 q 777 215 821 325 q 640 52 733 104 q 394 0 547 0 l 111 0 l 111 413 l 13 413 l 13 526 l 111 526 l 111 972 l 432 972 m 415 124 q 610 214 550 124 q 669 506 669 304 q 611 766 669 683 q 428 849 553 849 l 263 849 l 263 526 l 528 526 l 528 413 l 263 413 l 263 124 l 415 124 z "},"Ď":{"ha":874,"x_min":107,"x_max":817,"o":"m 107 972 l 428 972 q 719 855 621 972 q 817 506 817 738 q 773 215 817 325 q 635 52 729 104 q 389 0 542 0 l 107 0 l 107 972 m 411 124 q 605 214 544 124 q 665 506 665 304 q 607 766 665 683 q 422 849 549 849 l 258 849 l 258 124 l 411 124 m 228 1256 l 347 1256 l 438 1138 l 528 1256 l 647 1256 l 482 1047 l 393 1047 l 228 1256 z "},"Đ":{"ha":879,"x_min":13,"x_max":821,"o":"m 432 972 q 723 855 625 972 q 821 506 821 738 q 777 215 821 325 q 640 52 733 104 q 394 0 547 0 l 111 0 l 111 413 l 13 413 l 13 526 l 111 526 l 111 972 l 432 972 m 415 124 q 610 214 550 124 q 669 506 669 304 q 611 766 669 683 q 428 849 553 849 l 263 849 l 263 526 l 528 526 l 528 413 l 263 413 l 263 124 l 415 124 z "},"Ḍ":{"ha":874,"x_min":107,"x_max":817,"o":"m 107 972 l 428 972 q 719 855 621 972 q 817 506 817 738 q 773 215 817 325 q 635 52 729 104 q 389 0 542 0 l 107 0 l 107 972 m 411 124 q 605 214 544 124 q 665 506 665 304 q 607 766 665 683 q 422 849 549 849 l 258 849 l 258 124 l 411 124 m 421 -256 q 364 -234 386 -256 q 342 -178 342 -212 q 364 -122 342 -143 q 421 -100 386 -100 q 478 -122 456 -100 q 500 -178 500 -143 q 478 -234 500 -212 q 421 -256 456 -256 z "},"Ḏ":{"ha":874,"x_min":107,"x_max":817,"o":"m 107 972 l 428 972 q 719 855 621 972 q 817 506 817 738 q 773 215 817 325 q 635 52 729 104 q 389 0 542 0 l 107 0 l 107 972 m 411 124 q 605 214 544 124 q 665 506 665 304 q 607 766 665 683 q 422 849 549 849 l 258 849 l 258 124 l 411 124 m 197 -93 l 644 -93 l 644 -186 l 197 -186 l 197 -93 z "},"E":{"ha":775,"x_min":107,"x_max":711,"o":"m 107 972 l 711 972 l 711 849 l 258 849 l 258 572 l 663 572 l 663 449 l 258 449 l 258 124 l 711 124 l 711 0 l 107 0 l 107 972 z "},"É":{"ha":775,"x_min":107,"x_max":711,"o":"m 107 972 l 711 972 l 711 849 l 258 849 l 258 572 l 663 572 l 663 449 l 258 449 l 258 124 l 711 124 l 711 0 l 107 0 l 107 972 m 474 1258 l 613 1258 l 472 1047 l 363 1047 l 474 1258 z "},"Ĕ":{"ha":775,"x_min":107,"x_max":711,"o":"m 107 972 l 711 972 l 711 849 l 258 849 l 258 572 l 663 572 l 663 449 l 258 449 l 258 124 l 711 124 l 711 0 l 107 0 l 107 972 m 414 1047 q 263 1097 318 1047 q 204 1242 207 1146 l 294 1242 q 327 1165 297 1193 q 414 1138 357 1138 q 499 1164 467 1138 q 533 1242 531 1190 l 624 1242 q 568 1098 621 1149 q 414 1047 515 1047 z "},"Ě":{"ha":775,"x_min":107,"x_max":711,"o":"m 107 972 l 711 972 l 711 849 l 258 849 l 258 572 l 663 572 l 663 449 l 258 449 l 258 124 l 711 124 l 711 0 l 107 0 l 107 972 m 204 1256 l 324 1256 l 414 1138 l 504 1256 l 624 1256 l 458 1047 l 369 1047 l 204 1256 z "},"Ê":{"ha":775,"x_min":107,"x_max":711,"o":"m 107 972 l 711 972 l 711 849 l 258 849 l 258 572 l 663 572 l 663 449 l 258 449 l 258 124 l 711 124 l 711 0 l 107 0 l 107 972 m 369 1256 l 458 1256 l 624 1047 l 504 1047 l 414 1165 l 324 1047 l 204 1047 l 369 1256 z "},"Ế":{"ha":775,"x_min":107,"x_max":718,"o":"m 107 972 l 711 972 l 711 849 l 258 849 l 258 572 l 663 572 l 663 449 l 258 449 l 258 124 l 711 124 l 711 0 l 107 0 l 107 972 m 611 1365 l 718 1365 l 631 1219 l 546 1219 l 611 1365 m 369 1256 l 457 1256 l 624 1047 l 503 1047 l 414 1165 l 324 1047 l 204 1047 l 369 1256 z "},"Ệ":{"ha":775,"x_min":107,"x_max":711,"o":"m 107 972 l 711 972 l 711 849 l 258 849 l 258 572 l 663 572 l 663 449 l 258 449 l 258 124 l 711 124 l 711 0 l 107 0 l 107 972 m 414 -256 q 357 -234 379 -256 q 335 -178 335 -212 q 357 -122 335 -143 q 414 -100 379 -100 q 471 -122 449 -100 q 493 -178 493 -143 q 471 -234 493 -212 q 414 -256 449 -256 m 369 1256 l 458 1256 l 624 1047 l 504 1047 l 414 1165 l 324 1047 l 204 1047 l 369 1256 z "},"Ề":{"ha":775,"x_min":107,"x_max":711,"o":"m 107 972 l 711 972 l 711 849 l 258 849 l 258 572 l 663 572 l 663 449 l 258 449 l 258 124 l 711 124 l 711 0 l 107 0 l 107 972 m 504 1365 l 611 1365 l 676 1219 l 592 1219 l 504 1365 m 369 1256 l 457 1256 l 624 1047 l 503 1047 l 414 1165 l 324 1047 l 204 1047 l 369 1256 z "},"Ể":{"ha":775,"x_min":107,"x_max":747,"o":"m 107 972 l 711 972 l 711 849 l 258 849 l 258 572 l 663 572 l 663 449 l 258 449 l 258 124 l 711 124 l 711 0 l 107 0 l 107 972 m 588 1206 q 601 1256 588 1238 q 638 1293 614 1275 q 664 1317 656 1307 q 672 1343 672 1328 q 661 1367 672 1358 q 631 1375 650 1375 q 590 1364 610 1375 q 558 1333 571 1353 l 513 1376 q 566 1424 532 1406 q 639 1442 600 1442 q 717 1417 688 1442 q 747 1347 747 1392 q 736 1304 747 1321 q 703 1269 725 1288 q 673 1238 682 1250 q 663 1206 664 1225 l 588 1206 m 369 1256 l 457 1256 l 624 1047 l 503 1047 l 414 1165 l 324 1047 l 204 1047 l 369 1256 z "},"Ễ":{"ha":775,"x_min":107,"x_max":711,"o":"m 107 972 l 711 972 l 711 849 l 258 849 l 258 572 l 663 572 l 663 449 l 258 449 l 258 124 l 711 124 l 711 0 l 107 0 l 107 972 m 485 1299 q 444 1308 464 1299 q 400 1333 425 1317 q 363 1355 376 1349 q 336 1361 350 1361 q 286 1306 299 1361 l 219 1306 q 260 1399 231 1365 q 339 1432 290 1432 q 383 1424 361 1432 q 432 1399 404 1415 q 450 1389 436 1397 q 476 1377 464 1381 q 497 1374 488 1374 q 547 1431 536 1374 l 611 1431 q 569 1333 603 1368 q 485 1299 536 1299 m 369 1256 l 457 1256 l 624 1047 l 503 1047 l 414 1165 l 324 1047 l 204 1047 l 369 1256 z "},"Ë":{"ha":775,"x_min":107,"x_max":711,"o":"m 107 972 l 711 972 l 711 849 l 258 849 l 258 572 l 663 572 l 663 449 l 258 449 l 258 124 l 711 124 l 711 0 l 107 0 l 107 972 m 272 1047 q 215 1069 238 1047 q 193 1125 193 1092 q 215 1181 193 1160 q 272 1203 238 1203 q 328 1181 306 1203 q 351 1125 351 1158 q 328 1069 351 1092 q 272 1047 306 1047 m 556 1047 q 499 1069 522 1047 q 476 1125 476 1092 q 499 1181 476 1158 q 556 1203 522 1203 q 613 1181 590 1203 q 635 1125 635 1160 q 613 1069 635 1092 q 556 1047 590 1047 z "},"Ė":{"ha":775,"x_min":107,"x_max":711,"o":"m 107 972 l 711 972 l 711 849 l 258 849 l 258 572 l 663 572 l 663 449 l 258 449 l 258 124 l 711 124 l 711 0 l 107 0 l 107 972 m 414 1047 q 357 1069 379 1047 q 335 1125 335 1092 q 357 1181 335 1160 q 414 1203 379 1203 q 471 1181 449 1203 q 493 1125 493 1160 q 471 1069 493 1092 q 414 1047 449 1047 z "},"Ẹ":{"ha":775,"x_min":107,"x_max":711,"o":"m 107 972 l 711 972 l 711 849 l 258 849 l 258 572 l 663 572 l 663 449 l 258 449 l 258 124 l 711 124 l 711 0 l 107 0 l 107 972 m 414 -256 q 357 -234 379 -256 q 335 -178 335 -212 q 357 -122 335 -143 q 414 -100 379 -100 q 471 -122 449 -100 q 493 -178 493 -143 q 471 -234 493 -212 q 414 -256 449 -256 z "},"È":{"ha":775,"x_min":107,"x_max":711,"o":"m 107 972 l 711 972 l 711 849 l 258 849 l 258 572 l 663 572 l 663 449 l 258 449 l 258 124 l 711 124 l 711 0 l 107 0 l 107 972 m 219 1258 l 357 1258 l 468 1047 l 358 1047 l 219 1258 z "},"Ẻ":{"ha":775,"x_min":107,"x_max":711,"o":"m 107 972 l 711 972 l 711 849 l 258 849 l 258 572 l 663 572 l 663 449 l 258 449 l 258 124 l 711 124 l 711 0 l 107 0 l 107 972 m 361 1047 q 376 1106 361 1083 q 418 1154 390 1129 q 451 1190 440 1175 q 461 1226 461 1206 q 407 1268 461 1268 q 319 1204 354 1268 l 260 1258 q 324 1326 282 1301 q 418 1350 365 1350 q 524 1319 485 1350 q 563 1233 563 1289 q 548 1175 563 1199 q 506 1124 533 1151 q 473 1084 483 1100 q 463 1047 463 1068 l 361 1047 z "},"Ē":{"ha":775,"x_min":107,"x_max":711,"o":"m 107 972 l 711 972 l 711 849 l 258 849 l 258 572 l 663 572 l 663 449 l 258 449 l 258 124 l 711 124 l 711 0 l 107 0 l 107 972 m 190 1158 l 638 1158 l 638 1065 l 190 1065 l 190 1158 z "},"Ę":{"ha":775,"x_min":107,"x_max":771,"o":"m 771 -257 q 712 -292 747 -279 q 638 -304 676 -304 q 533 -271 571 -304 q 494 -172 494 -237 q 618 0 494 -67 l 107 0 l 107 972 l 711 972 l 711 849 l 258 849 l 258 572 l 663 572 l 663 449 l 258 449 l 258 124 l 711 124 l 711 0 q 594 -154 594 -81 q 614 -199 594 -182 q 675 -215 633 -215 q 751 -196 706 -215 l 771 -257 z "},"Ẽ":{"ha":775,"x_min":107,"x_max":711,"o":"m 107 972 l 711 972 l 711 849 l 258 849 l 258 572 l 663 572 l 663 449 l 258 449 l 258 124 l 711 124 l 711 0 l 107 0 l 107 972 m 200 1047 q 235 1158 200 1117 q 324 1200 269 1200 q 374 1190 350 1200 q 428 1161 399 1179 q 465 1141 451 1147 q 492 1135 479 1135 q 533 1206 529 1135 l 618 1206 q 581 1089 617 1131 q 490 1047 546 1047 q 437 1058 463 1047 q 381 1089 411 1069 q 358 1101 378 1090 q 326 1113 339 1113 q 298 1095 310 1113 q 285 1047 286 1078 l 200 1047 z "},"F":{"ha":775,"x_min":107,"x_max":718,"o":"m 107 972 l 718 972 l 718 849 l 258 849 l 258 535 l 688 535 l 688 411 l 258 411 l 258 0 l 107 0 l 107 972 z "},"G":{"ha":892,"x_min":46,"x_max":813,"o":"m 813 511 l 813 0 l 704 0 l 683 60 q 451 -14 590 -14 q 235 47 326 -14 q 94 219 143 107 q 46 486 46 332 q 99 750 46 638 q 250 924 153 863 q 478 986 347 986 q 674 944 589 986 q 799 828 760 903 l 713 747 q 617 833 676 804 q 479 863 558 863 q 272 764 346 863 q 199 486 199 665 q 269 202 199 303 q 468 101 340 101 q 576 117 525 101 q 663 164 626 133 l 663 401 l 438 401 l 438 511 l 813 511 z "},"Ğ":{"ha":892,"x_min":46,"x_max":813,"o":"m 813 511 l 813 0 l 704 0 l 683 60 q 451 -14 590 -14 q 235 47 326 -14 q 94 219 143 107 q 46 486 46 332 q 99 750 46 638 q 250 924 153 863 q 478 986 347 986 q 674 944 589 986 q 799 828 760 903 l 713 747 q 617 833 676 804 q 479 863 558 863 q 272 764 346 863 q 199 486 199 665 q 269 202 199 303 q 468 101 340 101 q 576 117 525 101 q 663 164 626 133 l 663 401 l 438 401 l 438 511 l 813 511 m 474 1047 q 322 1097 378 1047 q 264 1242 267 1146 l 354 1242 q 387 1165 357 1193 q 474 1138 417 1138 q 558 1164 526 1138 q 593 1242 590 1190 l 683 1242 q 628 1098 681 1149 q 474 1047 575 1047 z "},"Ǧ":{"ha":892,"x_min":46,"x_max":813,"o":"m 813 511 l 813 0 l 704 0 l 683 60 q 451 -14 590 -14 q 235 47 326 -14 q 94 219 143 107 q 46 486 46 332 q 99 750 46 638 q 250 924 153 863 q 478 986 347 986 q 674 944 589 986 q 799 828 760 903 l 713 747 q 617 833 676 804 q 479 863 558 863 q 272 764 346 863 q 199 486 199 665 q 269 202 199 303 q 468 101 340 101 q 576 117 525 101 q 663 164 626 133 l 663 401 l 438 401 l 438 511 l 813 511 m 264 1256 l 383 1256 l 474 1138 l 564 1256 l 683 1256 l 518 1047 l 429 1047 l 264 1256 z "},"Ĝ":{"ha":892,"x_min":46,"x_max":813,"o":"m 813 511 l 813 0 l 704 0 l 683 60 q 451 -14 590 -14 q 235 47 326 -14 q 94 219 143 107 q 46 486 46 332 q 99 750 46 638 q 250 924 153 863 q 478 986 347 986 q 674 944 589 986 q 799 828 760 903 l 713 747 q 617 833 676 804 q 479 863 558 863 q 272 764 346 863 q 199 486 199 665 q 269 202 199 303 q 468 101 340 101 q 576 117 525 101 q 663 164 626 133 l 663 401 l 438 401 l 438 511 l 813 511 m 429 1256 l 518 1256 l 683 1047 l 564 1047 l 474 1165 l 383 1047 l 264 1047 l 429 1256 z "},"Ģ":{"ha":892,"x_min":46,"x_max":813,"o":"m 813 511 l 813 0 l 704 0 l 683 60 q 451 -14 590 -14 q 235 47 326 -14 q 94 219 143 107 q 46 486 46 332 q 99 750 46 638 q 250 924 153 863 q 478 986 347 986 q 674 944 589 986 q 799 828 760 903 l 713 747 q 617 833 676 804 q 479 863 558 863 q 272 764 346 863 q 199 486 199 665 q 269 202 199 303 q 468 101 340 101 q 576 117 525 101 q 663 164 626 133 l 663 401 l 438 401 l 438 511 l 813 511 m 471 -100 q 539 -128 514 -100 q 564 -199 564 -156 q 538 -302 564 -247 q 468 -397 511 -357 l 413 -356 q 467 -264 451 -304 q 409 -240 431 -262 q 388 -183 388 -218 q 410 -123 388 -146 q 471 -100 433 -100 z "},"Ġ":{"ha":892,"x_min":46,"x_max":813,"o":"m 813 511 l 813 0 l 704 0 l 683 60 q 451 -14 590 -14 q 235 47 326 -14 q 94 219 143 107 q 46 486 46 332 q 99 750 46 638 q 250 924 153 863 q 478 986 347 986 q 674 944 589 986 q 799 828 760 903 l 713 747 q 617 833 676 804 q 479 863 558 863 q 272 764 346 863 q 199 486 199 665 q 269 202 199 303 q 468 101 340 101 q 576 117 525 101 q 663 164 626 133 l 663 401 l 438 401 l 438 511 l 813 511 m 474 1047 q 417 1069 439 1047 q 394 1125 394 1092 q 417 1181 394 1160 q 474 1203 439 1203 q 531 1181 508 1203 q 553 1125 553 1160 q 531 1069 553 1092 q 474 1047 508 1047 z "},"Ḡ":{"ha":892,"x_min":46,"x_max":813,"o":"m 813 511 l 813 0 l 704 0 l 683 60 q 451 -14 590 -14 q 235 47 326 -14 q 94 219 143 107 q 46 486 46 332 q 99 750 46 638 q 250 924 153 863 q 478 986 347 986 q 674 944 589 986 q 799 828 760 903 l 713 747 q 617 833 676 804 q 479 863 558 863 q 272 764 346 863 q 199 486 199 665 q 269 202 199 303 q 468 101 340 101 q 576 117 525 101 q 663 164 626 133 l 663 401 l 438 401 l 438 511 l 813 511 m 250 1158 l 697 1158 l 697 1065 l 250 1065 l 250 1158 z "},"H":{"ha":949,"x_min":106,"x_max":843,"o":"m 106 972 l 257 972 l 257 554 l 692 554 l 692 972 l 843 972 l 843 0 l 692 0 l 692 431 l 257 431 l 257 0 l 106 0 l 106 972 z "},"Ħ":{"ha":975,"x_min":36,"x_max":939,"o":"m 939 693 l 856 693 l 856 0 l 704 0 l 704 431 l 271 431 l 271 0 l 119 0 l 119 693 l 36 693 l 36 790 l 119 790 l 119 972 l 271 972 l 271 790 l 704 790 l 704 972 l 856 972 l 856 790 l 939 790 l 939 693 m 704 693 l 271 693 l 271 554 l 704 554 l 704 693 z "},"Ḫ":{"ha":949,"x_min":106,"x_max":843,"o":"m 106 972 l 257 972 l 257 554 l 692 554 l 692 972 l 843 972 l 843 0 l 692 0 l 692 431 l 257 431 l 257 0 l 106 0 l 106 972 m 475 -293 q 324 -244 379 -293 q 265 -100 268 -196 l 356 -100 q 388 -176 358 -149 q 475 -204 418 -204 q 560 -178 528 -204 q 594 -100 592 -151 l 685 -100 q 629 -242 682 -192 q 475 -293 576 -293 z "},"Ĥ":{"ha":949,"x_min":106,"x_max":843,"o":"m 106 972 l 257 972 l 257 554 l 692 554 l 692 972 l 843 972 l 843 0 l 692 0 l 692 431 l 257 431 l 257 0 l 106 0 l 106 972 m 431 1256 l 519 1256 l 685 1047 l 565 1047 l 475 1165 l 385 1047 l 265 1047 l 431 1256 z "},"Ḥ":{"ha":949,"x_min":106,"x_max":843,"o":"m 106 972 l 257 972 l 257 554 l 692 554 l 692 972 l 843 972 l 843 0 l 692 0 l 692 431 l 257 431 l 257 0 l 106 0 l 106 972 m 475 -256 q 418 -234 440 -256 q 396 -178 396 -212 q 418 -122 396 -143 q 475 -100 440 -100 q 532 -122 510 -100 q 554 -178 554 -143 q 532 -234 554 -212 q 475 -256 510 -256 z "},"I":{"ha":419,"x_min":135,"x_max":286,"o":"m 135 972 l 286 972 l 286 0 l 135 0 l 135 972 z "},"Ĳ":{"ha":1056,"x_min":135,"x_max":950,"o":"m 135 972 l 286 972 l 286 0 l 135 0 l 135 972 m 658 -14 q 531 8 593 -14 q 428 68 468 31 l 488 174 q 564 127 519 144 q 651 110 608 110 q 763 162 729 110 q 797 333 797 214 l 797 972 l 950 972 l 950 311 q 879 65 950 143 q 658 -14 808 -14 z "},"Í":{"ha":419,"x_min":135,"x_max":410,"o":"m 135 972 l 286 972 l 286 0 l 135 0 l 135 972 m 271 1258 l 410 1258 l 269 1047 l 160 1047 l 271 1258 z "},"Ĭ":{"ha":419,"x_min":1,"x_max":421,"o":"m 135 972 l 286 972 l 286 0 l 135 0 l 135 972 m 211 1047 q 60 1097 115 1047 q 1 1242 4 1146 l 92 1242 q 124 1165 94 1193 q 211 1138 154 1138 q 296 1164 264 1138 q 331 1242 328 1190 l 421 1242 q 365 1098 418 1149 q 211 1047 313 1047 z "},"Ǐ":{"ha":419,"x_min":1,"x_max":421,"o":"m 135 972 l 286 972 l 286 0 l 135 0 l 135 972 m 1 1256 l 121 1256 l 211 1138 l 301 1256 l 421 1256 l 256 1047 l 167 1047 l 1 1256 z "},"Î":{"ha":419,"x_min":1,"x_max":421,"o":"m 135 972 l 286 972 l 286 0 l 135 0 l 135 972 m 167 1256 l 256 1256 l 421 1047 l 301 1047 l 211 1165 l 121 1047 l 1 1047 l 167 1256 z "},"Ï":{"ha":419,"x_min":-10,"x_max":432,"o":"m 135 972 l 286 972 l 286 0 l 135 0 l 135 972 m 69 1047 q 13 1069 35 1047 q -10 1125 -10 1092 q 13 1181 -10 1160 q 69 1203 35 1203 q 126 1181 103 1203 q 149 1125 149 1158 q 126 1069 149 1092 q 69 1047 103 1047 m 353 1047 q 297 1069 319 1047 q 274 1125 274 1092 q 297 1181 274 1158 q 353 1203 319 1203 q 410 1181 388 1203 q 432 1125 432 1160 q 410 1069 432 1092 q 353 1047 388 1047 z "},"İ":{"ha":419,"x_min":132,"x_max":290,"o":"m 135 972 l 286 972 l 286 0 l 135 0 l 135 972 m 211 1047 q 154 1069 176 1047 q 132 1125 132 1092 q 154 1181 132 1160 q 211 1203 176 1203 q 268 1181 246 1203 q 290 1125 290 1160 q 268 1069 290 1092 q 211 1047 246 1047 z "},"Ị":{"ha":419,"x_min":132,"x_max":290,"o":"m 135 972 l 286 972 l 286 0 l 135 0 l 135 972 m 211 -256 q 154 -234 176 -256 q 132 -178 132 -212 q 154 -122 132 -143 q 211 -100 176 -100 q 268 -122 246 -100 q 290 -178 290 -143 q 268 -234 290 -212 q 211 -256 246 -256 z "},"Ì":{"ha":419,"x_min":17,"x_max":286,"o":"m 135 972 l 286 972 l 286 0 l 135 0 l 135 972 m 17 1258 l 154 1258 l 265 1047 l 156 1047 l 17 1258 z "},"Ỉ":{"ha":419,"x_min":57,"x_max":360,"o":"m 135 972 l 286 972 l 286 0 l 135 0 l 135 972 m 158 1047 q 173 1106 158 1083 q 215 1154 188 1129 q 248 1190 238 1175 q 258 1226 258 1206 q 204 1268 258 1268 q 117 1204 151 1268 l 57 1258 q 121 1326 79 1301 q 215 1350 163 1350 q 321 1319 282 1350 q 360 1233 360 1289 q 345 1175 360 1199 q 303 1124 331 1151 q 270 1084 281 1100 q 260 1047 260 1068 l 158 1047 z "},"Ī":{"ha":419,"x_min":-12,"x_max":435,"o":"m 135 972 l 286 972 l 286 0 l 135 0 l 135 972 m -12 1158 l 435 1158 l 435 1065 l -12 1065 l -12 1158 z "},"Į":{"ha":419,"x_min":46,"x_max":322,"o":"m 322 -257 q 263 -292 299 -279 q 189 -304 228 -304 q 84 -271 122 -304 q 46 -172 46 -237 q 169 0 46 -67 l 135 0 l 135 972 l 286 972 l 286 0 l 263 0 q 146 -154 146 -81 q 165 -199 146 -182 q 226 -215 185 -215 q 303 -196 257 -215 l 322 -257 z "},"Ĩ":{"ha":419,"x_min":-3,"x_max":415,"o":"m 135 972 l 286 972 l 286 0 l 135 0 l 135 972 m -3 1047 q 32 1158 -3 1117 q 121 1200 67 1200 q 172 1190 147 1200 q 225 1161 196 1179 q 263 1141 249 1147 q 289 1135 276 1135 q 331 1206 326 1135 l 415 1206 q 378 1089 414 1131 q 288 1047 343 1047 q 234 1058 260 1047 q 178 1089 208 1069 q 156 1101 175 1090 q 124 1113 136 1113 q 95 1095 107 1113 q 82 1047 83 1078 l -3 1047 z "},"J":{"ha":635,"x_min":8,"x_max":531,"o":"m 239 -14 q 111 8 174 -14 q 8 68 49 31 l 68 174 q 144 127 100 144 q 232 110 189 110 q 344 162 310 110 q 378 333 378 214 l 378 972 l 531 972 l 531 311 q 460 65 531 143 q 239 -14 389 -14 z "},"Ĵ":{"ha":635,"x_min":8,"x_max":546,"o":"m 239 -14 q 111 8 174 -14 q 8 68 49 31 l 68 174 q 144 127 100 144 q 232 110 189 110 q 344 162 310 110 q 378 333 378 214 l 378 972 l 531 972 l 531 311 q 460 65 531 143 q 239 -14 389 -14 m 292 1256 l 381 1256 l 546 1047 l 426 1047 l 336 1165 l 246 1047 l 126 1047 l 292 1256 z "},"K":{"ha":864,"x_min":106,"x_max":850,"o":"m 683 0 l 390 469 l 257 307 l 257 0 l 106 0 l 106 972 l 257 972 l 257 508 l 629 972 l 806 972 l 490 589 l 850 0 l 683 0 z "},"Ķ":{"ha":864,"x_min":106,"x_max":850,"o":"m 683 0 l 390 469 l 257 307 l 257 0 l 106 0 l 106 972 l 257 972 l 257 508 l 629 972 l 806 972 l 490 589 l 850 0 l 683 0 m 435 -100 q 503 -128 478 -100 q 528 -199 528 -156 q 501 -302 528 -247 q 432 -397 475 -357 l 376 -356 q 431 -264 415 -304 q 373 -240 394 -262 q 351 -183 351 -218 q 374 -123 351 -146 q 435 -100 397 -100 z "},"L":{"ha":769,"x_min":106,"x_max":724,"o":"m 106 972 l 257 972 l 257 124 l 724 124 l 724 0 l 106 0 l 106 972 z "},"Ĺ":{"ha":769,"x_min":106,"x_max":724,"o":"m 106 972 l 257 972 l 257 124 l 724 124 l 724 0 l 106 0 l 106 972 m 242 1258 l 381 1258 l 240 1047 l 131 1047 l 242 1258 z "},"Ľ":{"ha":769,"x_min":106,"x_max":724,"o":"m 106 972 l 257 972 l 257 124 l 724 124 l 724 0 l 106 0 l 106 972 m 585 986 q 653 958 628 986 q 678 888 678 931 q 652 784 678 839 q 583 689 626 729 l 526 731 q 557 774 542 750 q 581 821 572 799 q 524 844 546 822 q 501 901 501 867 q 524 963 501 939 q 585 986 547 986 z "},"Ļ":{"ha":769,"x_min":106,"x_max":724,"o":"m 106 972 l 257 972 l 257 124 l 724 124 l 724 0 l 106 0 l 106 972 m 410 -100 q 478 -128 453 -100 q 503 -199 503 -156 q 476 -302 503 -247 q 407 -397 450 -357 l 351 -356 q 406 -264 390 -304 q 348 -240 369 -262 q 326 -183 326 -218 q 349 -123 326 -146 q 410 -100 372 -100 z "},"Ŀ":{"ha":769,"x_min":106,"x_max":724,"o":"m 106 972 l 257 972 l 257 124 l 724 124 l 724 0 l 106 0 l 106 972 m 479 383 q 409 411 436 383 q 382 483 382 439 q 409 556 382 528 q 479 583 436 583 q 548 555 521 583 q 575 483 575 526 q 548 412 575 440 q 479 383 521 383 z "},"Ḷ":{"ha":769,"x_min":106,"x_max":724,"o":"m 106 972 l 257 972 l 257 124 l 724 124 l 724 0 l 106 0 l 106 972 m 410 -256 q 353 -234 375 -256 q 331 -178 331 -212 q 353 -122 331 -143 q 410 -100 375 -100 q 467 -122 444 -100 q 489 -178 489 -143 q 467 -234 489 -212 q 410 -256 444 -256 z "},"Ḹ":{"ha":769,"x_min":-42,"x_max":724,"o":"m 106 972 l 257 972 l 257 124 l 724 124 l 724 0 l 106 0 l 106 972 m 410 -256 q 353 -234 375 -256 q 331 -178 331 -212 q 353 -122 331 -143 q 410 -100 375 -100 q 467 -122 444 -100 q 489 -178 489 -143 q 467 -234 489 -212 q 410 -256 444 -256 m -42 1158 l 406 1158 l 406 1065 l -42 1065 l -42 1158 z "},"Ḻ":{"ha":769,"x_min":106,"x_max":724,"o":"m 106 972 l 257 972 l 257 124 l 724 124 l 724 0 l 106 0 l 106 972 m 186 -93 l 633 -93 l 633 -186 l 186 -186 l 186 -93 z "},"Ł":{"ha":769,"x_min":17,"x_max":724,"o":"m 724 124 l 724 0 l 106 0 l 106 375 l 17 339 l 17 458 l 106 496 l 106 972 l 257 972 l 257 560 l 492 660 l 492 535 l 257 438 l 257 124 l 724 124 z "},"M":{"ha":1117,"x_min":107,"x_max":1010,"o":"m 1010 972 l 1010 0 l 861 0 l 861 682 l 611 0 l 506 0 l 256 682 l 256 0 l 107 0 l 107 972 l 275 972 l 558 181 l 842 972 l 1010 972 z "},"Ṃ":{"ha":1117,"x_min":107,"x_max":1010,"o":"m 1010 972 l 1010 0 l 861 0 l 861 682 l 611 0 l 506 0 l 256 682 l 256 0 l 107 0 l 107 972 l 275 972 l 558 181 l 842 972 l 1010 972 m 558 -256 q 501 -234 524 -256 q 479 -178 479 -212 q 501 -122 479 -143 q 558 -100 524 -100 q 615 -122 593 -100 q 638 -178 638 -143 q 615 -234 638 -212 q 558 -256 593 -256 z "},"N":{"ha":956,"x_min":106,"x_max":850,"o":"m 850 972 l 850 0 l 704 0 l 257 726 l 257 0 l 106 0 l 106 972 l 260 972 l 699 256 l 699 972 l 850 972 z "},"Ń":{"ha":956,"x_min":106,"x_max":850,"o":"m 850 972 l 850 0 l 704 0 l 257 726 l 257 0 l 106 0 l 106 972 l 260 972 l 699 256 l 699 972 l 850 972 m 538 1258 l 676 1258 l 536 1047 l 426 1047 l 538 1258 z "},"Ň":{"ha":956,"x_min":106,"x_max":850,"o":"m 850 972 l 850 0 l 704 0 l 257 726 l 257 0 l 106 0 l 106 972 l 260 972 l 699 256 l 699 972 l 850 972 m 268 1256 l 388 1256 l 478 1138 l 568 1256 l 688 1256 l 522 1047 l 433 1047 l 268 1256 z "},"Ņ":{"ha":956,"x_min":106,"x_max":850,"o":"m 850 972 l 850 0 l 704 0 l 257 726 l 257 0 l 106 0 l 106 972 l 260 972 l 699 256 l 699 972 l 850 972 m 478 -100 q 546 -128 521 -100 q 571 -199 571 -156 q 544 -302 571 -247 q 475 -397 518 -357 l 419 -356 q 474 -264 458 -304 q 416 -240 438 -262 q 394 -183 394 -218 q 417 -123 394 -146 q 478 -100 440 -100 z "},"Ṅ":{"ha":956,"x_min":106,"x_max":850,"o":"m 850 972 l 850 0 l 704 0 l 257 726 l 257 0 l 106 0 l 106 972 l 260 972 l 699 256 l 699 972 l 850 972 m 478 1047 q 421 1069 443 1047 q 399 1125 399 1092 q 421 1181 399 1160 q 478 1203 443 1203 q 535 1181 513 1203 q 557 1125 557 1160 q 535 1069 557 1092 q 478 1047 513 1047 z "},"Ṇ":{"ha":956,"x_min":106,"x_max":850,"o":"m 850 972 l 850 0 l 704 0 l 257 726 l 257 0 l 106 0 l 106 972 l 260 972 l 699 256 l 699 972 l 850 972 m 478 -256 q 421 -234 443 -256 q 399 -178 399 -212 q 421 -122 399 -143 q 478 -100 443 -100 q 535 -122 513 -100 q 557 -178 557 -143 q 535 -234 557 -212 q 478 -256 513 -256 z "},"Ŋ":{"ha":956,"x_min":106,"x_max":850,"o":"m 106 972 l 260 972 l 699 257 l 699 972 l 850 972 l 850 -67 q 782 -294 850 -219 q 576 -368 714 -368 q 469 -351 521 -368 q 382 -306 417 -335 l 432 -208 q 499 -244 463 -231 q 568 -257 535 -257 q 669 -210 638 -257 q 701 -62 701 -164 l 700 7 l 257 726 l 257 0 l 106 0 l 106 972 z "},"Ṉ":{"ha":956,"x_min":106,"x_max":850,"o":"m 850 972 l 850 0 l 704 0 l 257 726 l 257 0 l 106 0 l 106 972 l 260 972 l 699 256 l 699 972 l 850 972 m 254 -93 l 701 -93 l 701 -186 l 254 -186 l 254 -93 z "},"Ñ":{"ha":956,"x_min":106,"x_max":850,"o":"m 850 972 l 850 0 l 704 0 l 257 726 l 257 0 l 106 0 l 106 972 l 260 972 l 699 256 l 699 972 l 850 972 m 264 1047 q 299 1158 264 1117 q 388 1200 333 1200 q 438 1190 414 1200 q 492 1161 463 1179 q 529 1141 515 1147 q 556 1135 543 1135 q 597 1206 593 1135 l 682 1206 q 645 1089 681 1131 q 554 1047 610 1047 q 501 1058 526 1047 q 444 1089 475 1069 q 422 1101 442 1090 q 390 1113 403 1113 q 362 1095 374 1113 q 349 1047 350 1078 l 264 1047 z "},"O":{"ha":932,"x_min":46,"x_max":886,"o":"m 467 -14 q 242 47 338 -14 q 97 219 147 107 q 46 486 46 332 q 97 753 46 640 q 242 926 147 865 q 467 986 338 986 q 690 926 596 986 q 835 753 785 865 q 886 486 886 640 q 835 219 886 332 q 690 47 785 107 q 467 -14 596 -14 m 467 107 q 663 209 590 107 q 735 486 735 311 q 663 764 735 663 q 467 865 590 865 q 270 763 343 865 q 197 486 197 661 q 230 285 197 371 q 324 153 263 199 q 467 107 385 107 z "},"Ó":{"ha":932,"x_min":46,"x_max":886,"o":"m 467 -14 q 242 47 338 -14 q 97 219 147 107 q 46 486 46 332 q 97 753 46 640 q 242 926 147 865 q 467 986 338 986 q 690 926 596 986 q 835 753 785 865 q 886 486 886 640 q 835 219 886 332 q 690 47 785 107 q 467 -14 596 -14 m 467 107 q 663 209 590 107 q 735 486 735 311 q 663 764 735 663 q 467 865 590 865 q 270 763 343 865 q 197 486 197 661 q 230 285 197 371 q 324 153 263 199 q 467 107 385 107 m 526 1258 l 665 1258 l 525 1047 l 415 1047 l 526 1258 z "},"Ŏ":{"ha":932,"x_min":46,"x_max":886,"o":"m 467 -14 q 242 47 338 -14 q 97 219 147 107 q 46 486 46 332 q 97 753 46 640 q 242 926 147 865 q 467 986 338 986 q 690 926 596 986 q 835 753 785 865 q 886 486 886 640 q 835 219 886 332 q 690 47 785 107 q 467 -14 596 -14 m 467 107 q 663 209 590 107 q 735 486 735 311 q 663 764 735 663 q 467 865 590 865 q 270 763 343 865 q 197 486 197 661 q 230 285 197 371 q 324 153 263 199 q 467 107 385 107 m 467 1047 q 315 1097 371 1047 q 257 1242 260 1146 l 347 1242 q 380 1165 350 1193 q 467 1138 410 1138 q 551 1164 519 1138 q 586 1242 583 1190 l 676 1242 q 621 1098 674 1149 q 467 1047 568 1047 z "},"Ǒ":{"ha":932,"x_min":46,"x_max":886,"o":"m 467 -14 q 242 47 338 -14 q 97 219 147 107 q 46 486 46 332 q 97 753 46 640 q 242 926 147 865 q 467 986 338 986 q 690 926 596 986 q 835 753 785 865 q 886 486 886 640 q 835 219 886 332 q 690 47 785 107 q 467 -14 596 -14 m 467 107 q 663 209 590 107 q 735 486 735 311 q 663 764 735 663 q 467 865 590 865 q 270 763 343 865 q 197 486 197 661 q 230 285 197 371 q 324 153 263 199 q 467 107 385 107 m 257 1256 l 376 1256 l 467 1138 l 557 1256 l 676 1256 l 511 1047 l 422 1047 l 257 1256 z "},"Ô":{"ha":932,"x_min":46,"x_max":886,"o":"m 467 -14 q 242 47 338 -14 q 97 219 147 107 q 46 486 46 332 q 97 753 46 640 q 242 926 147 865 q 467 986 338 986 q 690 926 596 986 q 835 753 785 865 q 886 486 886 640 q 835 219 886 332 q 690 47 785 107 q 467 -14 596 -14 m 467 107 q 663 209 590 107 q 735 486 735 311 q 663 764 735 663 q 467 865 590 865 q 270 763 343 865 q 197 486 197 661 q 230 285 197 371 q 324 153 263 199 q 467 107 385 107 m 422 1256 l 511 1256 l 676 1047 l 557 1047 l 467 1165 l 376 1047 l 257 1047 l 422 1256 z "},"Ố":{"ha":932,"x_min":46,"x_max":886,"o":"m 467 -14 q 242 47 338 -14 q 97 219 147 107 q 46 486 46 332 q 97 753 46 640 q 242 926 147 865 q 467 986 338 986 q 690 926 596 986 q 835 753 785 865 q 886 486 886 640 q 835 219 886 332 q 690 47 785 107 q 467 -14 596 -14 m 467 107 q 663 209 590 107 q 735 486 735 311 q 663 764 735 663 q 467 865 590 865 q 270 763 343 865 q 197 486 197 661 q 230 285 197 371 q 324 153 263 199 q 467 107 385 107 m 664 1365 l 771 1365 l 683 1219 l 599 1219 l 664 1365 m 422 1256 l 510 1256 l 676 1047 l 556 1047 l 467 1165 l 376 1047 l 257 1047 l 422 1256 z "},"Ộ":{"ha":932,"x_min":46,"x_max":886,"o":"m 467 -14 q 242 47 338 -14 q 97 219 147 107 q 46 486 46 332 q 97 753 46 640 q 242 926 147 865 q 467 986 338 986 q 690 926 596 986 q 835 753 785 865 q 886 486 886 640 q 835 219 886 332 q 690 47 785 107 q 467 -14 596 -14 m 467 107 q 663 209 590 107 q 735 486 735 311 q 663 764 735 663 q 467 865 590 865 q 270 763 343 865 q 197 486 197 661 q 230 285 197 371 q 324 153 263 199 q 467 107 385 107 m 467 -256 q 410 -234 432 -256 q 388 -178 388 -212 q 410 -122 388 -143 q 467 -100 432 -100 q 524 -122 501 -100 q 546 -178 546 -143 q 524 -234 546 -212 q 467 -256 501 -256 m 422 1256 l 511 1256 l 676 1047 l 557 1047 l 467 1165 l 376 1047 l 257 1047 l 422 1256 z "},"Ồ":{"ha":932,"x_min":46,"x_max":886,"o":"m 467 -14 q 242 47 338 -14 q 97 219 147 107 q 46 486 46 332 q 97 753 46 640 q 242 926 147 865 q 467 986 338 986 q 690 926 596 986 q 835 753 785 865 q 886 486 886 640 q 835 219 886 332 q 690 47 785 107 q 467 -14 596 -14 m 467 107 q 663 209 590 107 q 735 486 735 311 q 663 764 735 663 q 467 865 590 865 q 270 763 343 865 q 197 486 197 661 q 230 285 197 371 q 324 153 263 199 q 467 107 385 107 m 557 1365 l 664 1365 l 729 1219 l 644 1219 l 557 1365 m 422 1256 l 510 1256 l 676 1047 l 556 1047 l 467 1165 l 376 1047 l 257 1047 l 422 1256 z "},"Ổ":{"ha":932,"x_min":46,"x_max":886,"o":"m 467 -14 q 242 47 338 -14 q 97 219 147 107 q 46 486 46 332 q 97 753 46 640 q 242 926 147 865 q 467 986 338 986 q 690 926 596 986 q 835 753 785 865 q 886 486 886 640 q 835 219 886 332 q 690 47 785 107 q 467 -14 596 -14 m 467 107 q 663 209 590 107 q 735 486 735 311 q 663 764 735 663 q 467 865 590 865 q 270 763 343 865 q 197 486 197 661 q 230 285 197 371 q 324 153 263 199 q 467 107 385 107 m 640 1206 q 653 1256 640 1238 q 690 1293 667 1275 q 717 1317 708 1307 q 725 1343 725 1328 q 714 1367 725 1358 q 683 1375 703 1375 q 643 1364 663 1375 q 611 1333 624 1353 l 565 1376 q 619 1424 585 1406 q 692 1442 653 1442 q 770 1417 740 1442 q 800 1347 800 1392 q 789 1304 800 1321 q 756 1269 778 1288 q 726 1238 735 1250 q 715 1206 717 1225 l 640 1206 m 422 1256 l 510 1256 l 676 1047 l 556 1047 l 467 1165 l 376 1047 l 257 1047 l 422 1256 z "},"Ỗ":{"ha":932,"x_min":46,"x_max":886,"o":"m 467 -14 q 242 47 338 -14 q 97 219 147 107 q 46 486 46 332 q 97 753 46 640 q 242 926 147 865 q 467 986 338 986 q 690 926 596 986 q 835 753 785 865 q 886 486 886 640 q 835 219 886 332 q 690 47 785 107 q 467 -14 596 -14 m 467 107 q 663 209 590 107 q 735 486 735 311 q 663 764 735 663 q 467 865 590 865 q 270 763 343 865 q 197 486 197 661 q 230 285 197 371 q 324 153 263 199 q 467 107 385 107 m 538 1299 q 497 1308 517 1299 q 453 1333 478 1317 q 416 1355 429 1349 q 389 1361 403 1361 q 339 1306 351 1361 l 272 1306 q 313 1399 283 1365 q 392 1432 343 1432 q 435 1424 414 1432 q 485 1399 457 1415 q 503 1389 489 1397 q 528 1377 517 1381 q 550 1374 540 1374 q 600 1431 589 1374 l 664 1431 q 622 1333 656 1368 q 538 1299 589 1299 m 422 1256 l 510 1256 l 676 1047 l 556 1047 l 467 1165 l 376 1047 l 257 1047 l 422 1256 z "},"Ö":{"ha":932,"x_min":46,"x_max":886,"o":"m 467 -14 q 242 47 338 -14 q 97 219 147 107 q 46 486 46 332 q 97 753 46 640 q 242 926 147 865 q 467 986 338 986 q 690 926 596 986 q 835 753 785 865 q 886 486 886 640 q 835 219 886 332 q 690 47 785 107 q 467 -14 596 -14 m 467 107 q 663 209 590 107 q 735 486 735 311 q 663 764 735 663 q 467 865 590 865 q 270 763 343 865 q 197 486 197 661 q 230 285 197 371 q 324 153 263 199 q 467 107 385 107 m 325 1047 q 268 1069 290 1047 q 246 1125 246 1092 q 268 1181 246 1160 q 325 1203 290 1203 q 381 1181 358 1203 q 404 1125 404 1158 q 381 1069 404 1092 q 325 1047 358 1047 m 608 1047 q 552 1069 575 1047 q 529 1125 529 1092 q 552 1181 529 1158 q 608 1203 575 1203 q 665 1181 643 1203 q 688 1125 688 1160 q 665 1069 688 1092 q 608 1047 643 1047 z "},"Ọ":{"ha":932,"x_min":46,"x_max":886,"o":"m 467 -14 q 242 47 338 -14 q 97 219 147 107 q 46 486 46 332 q 97 753 46 640 q 242 926 147 865 q 467 986 338 986 q 690 926 596 986 q 835 753 785 865 q 886 486 886 640 q 835 219 886 332 q 690 47 785 107 q 467 -14 596 -14 m 467 107 q 663 209 590 107 q 735 486 735 311 q 663 764 735 663 q 467 865 590 865 q 270 763 343 865 q 197 486 197 661 q 230 285 197 371 q 324 153 263 199 q 467 107 385 107 m 467 -256 q 410 -234 432 -256 q 388 -178 388 -212 q 410 -122 388 -143 q 467 -100 432 -100 q 524 -122 501 -100 q 546 -178 546 -143 q 524 -234 546 -212 q 467 -256 501 -256 z "},"Ò":{"ha":932,"x_min":46,"x_max":886,"o":"m 467 -14 q 242 47 338 -14 q 97 219 147 107 q 46 486 46 332 q 97 753 46 640 q 242 926 147 865 q 467 986 338 986 q 690 926 596 986 q 835 753 785 865 q 886 486 886 640 q 835 219 886 332 q 690 47 785 107 q 467 -14 596 -14 m 467 107 q 663 209 590 107 q 735 486 735 311 q 663 764 735 663 q 467 865 590 865 q 270 763 343 865 q 197 486 197 661 q 230 285 197 371 q 324 153 263 199 q 467 107 385 107 m 272 1258 l 410 1258 l 521 1047 l 411 1047 l 272 1258 z "},"Ỏ":{"ha":932,"x_min":46,"x_max":886,"o":"m 467 -14 q 242 47 338 -14 q 97 219 147 107 q 46 486 46 332 q 97 753 46 640 q 242 926 147 865 q 467 986 338 986 q 690 926 596 986 q 835 753 785 865 q 886 486 886 640 q 835 219 886 332 q 690 47 785 107 q 467 -14 596 -14 m 467 107 q 663 209 590 107 q 735 486 735 311 q 663 764 735 663 q 467 865 590 865 q 270 763 343 865 q 197 486 197 661 q 230 285 197 371 q 324 153 263 199 q 467 107 385 107 m 414 1047 q 428 1106 414 1083 q 471 1154 443 1129 q 503 1190 493 1175 q 514 1226 514 1206 q 460 1268 514 1268 q 372 1204 407 1268 l 313 1258 q 376 1326 335 1301 q 471 1350 418 1350 q 576 1319 538 1350 q 615 1233 615 1289 q 601 1175 615 1199 q 558 1124 586 1151 q 526 1084 536 1100 q 515 1047 515 1068 l 414 1047 z "},"Ơ":{"ha":988,"x_min":46,"x_max":1032,"o":"m 1032 972 l 1032 914 q 988 757 1032 826 q 869 651 943 688 q 886 486 886 576 q 835 219 886 332 q 690 47 785 107 q 467 -14 596 -14 q 242 47 338 -14 q 97 219 147 107 q 46 486 46 332 q 97 753 46 640 q 242 926 147 865 q 467 986 338 986 q 697 922 600 986 q 842 738 793 857 q 896 813 879 771 q 913 914 913 854 l 913 972 l 1032 972 m 467 107 q 663 209 590 107 q 735 486 735 311 q 663 764 735 663 q 467 865 590 865 q 270 763 343 865 q 197 486 197 661 q 230 285 197 371 q 324 153 263 199 q 467 107 385 107 z "},"Ớ":{"ha":988,"x_min":46,"x_max":1032,"o":"m 1032 972 l 1032 914 q 988 757 1032 826 q 869 651 943 688 q 886 486 886 576 q 835 219 886 332 q 690 47 785 107 q 467 -14 596 -14 q 242 47 338 -14 q 97 219 147 107 q 46 486 46 332 q 97 753 46 640 q 242 926 147 865 q 467 986 338 986 q 697 922 600 986 q 842 738 793 857 q 896 813 879 771 q 913 914 913 854 l 913 972 l 1032 972 m 467 107 q 663 209 590 107 q 735 486 735 311 q 663 764 735 663 q 467 865 590 865 q 270 763 343 865 q 197 486 197 661 q 230 285 197 371 q 324 153 263 199 q 467 107 385 107 m 526 1258 l 665 1258 l 525 1047 l 415 1047 l 526 1258 z "},"Ợ":{"ha":988,"x_min":46,"x_max":1032,"o":"m 1032 972 l 1032 914 q 988 757 1032 826 q 869 651 943 688 q 886 486 886 576 q 835 219 886 332 q 690 47 785 107 q 467 -14 596 -14 q 242 47 338 -14 q 97 219 147 107 q 46 486 46 332 q 97 753 46 640 q 242 926 147 865 q 467 986 338 986 q 697 922 600 986 q 842 738 793 857 q 896 813 879 771 q 913 914 913 854 l 913 972 l 1032 972 m 467 107 q 663 209 590 107 q 735 486 735 311 q 663 764 735 663 q 467 865 590 865 q 270 763 343 865 q 197 486 197 661 q 230 285 197 371 q 324 153 263 199 q 467 107 385 107 m 467 -256 q 410 -234 432 -256 q 388 -178 388 -212 q 410 -122 388 -143 q 467 -100 432 -100 q 524 -122 501 -100 q 546 -178 546 -143 q 524 -234 546 -212 q 467 -256 501 -256 z "},"Ờ":{"ha":988,"x_min":46,"x_max":1032,"o":"m 1032 972 l 1032 914 q 988 757 1032 826 q 869 651 943 688 q 886 486 886 576 q 835 219 886 332 q 690 47 785 107 q 467 -14 596 -14 q 242 47 338 -14 q 97 219 147 107 q 46 486 46 332 q 97 753 46 640 q 242 926 147 865 q 467 986 338 986 q 697 922 600 986 q 842 738 793 857 q 896 813 879 771 q 913 914 913 854 l 913 972 l 1032 972 m 467 107 q 663 209 590 107 q 735 486 735 311 q 663 764 735 663 q 467 865 590 865 q 270 763 343 865 q 197 486 197 661 q 230 285 197 371 q 324 153 263 199 q 467 107 385 107 m 272 1258 l 410 1258 l 521 1047 l 411 1047 l 272 1258 z "},"Ở":{"ha":988,"x_min":46,"x_max":1032,"o":"m 1032 972 l 1032 914 q 988 757 1032 826 q 869 651 943 688 q 886 486 886 576 q 835 219 886 332 q 690 47 785 107 q 467 -14 596 -14 q 242 47 338 -14 q 97 219 147 107 q 46 486 46 332 q 97 753 46 640 q 242 926 147 865 q 467 986 338 986 q 697 922 600 986 q 842 738 793 857 q 896 813 879 771 q 913 914 913 854 l 913 972 l 1032 972 m 467 107 q 663 209 590 107 q 735 486 735 311 q 663 764 735 663 q 467 865 590 865 q 270 763 343 865 q 197 486 197 661 q 230 285 197 371 q 324 153 263 199 q 467 107 385 107 m 414 1047 q 428 1106 414 1083 q 471 1154 443 1129 q 503 1190 493 1175 q 514 1226 514 1206 q 460 1268 514 1268 q 372 1204 407 1268 l 313 1258 q 376 1326 335 1301 q 471 1350 418 1350 q 576 1319 538 1350 q 615 1233 615 1289 q 601 1175 615 1199 q 558 1124 586 1151 q 526 1084 536 1100 q 515 1047 515 1068 l 414 1047 z "},"Ỡ":{"ha":988,"x_min":46,"x_max":1032,"o":"m 1032 972 l 1032 914 q 988 757 1032 826 q 869 651 943 688 q 886 486 886 576 q 835 219 886 332 q 690 47 785 107 q 467 -14 596 -14 q 242 47 338 -14 q 97 219 147 107 q 46 486 46 332 q 97 753 46 640 q 242 926 147 865 q 467 986 338 986 q 697 922 600 986 q 842 738 793 857 q 896 813 879 771 q 913 914 913 854 l 913 972 l 1032 972 m 467 107 q 663 209 590 107 q 735 486 735 311 q 663 764 735 663 q 467 865 590 865 q 270 763 343 865 q 197 486 197 661 q 230 285 197 371 q 324 153 263 199 q 467 107 385 107 m 253 1047 q 288 1158 253 1117 q 376 1200 322 1200 q 427 1190 403 1200 q 481 1161 451 1179 q 518 1141 504 1147 q 544 1135 532 1135 q 586 1206 582 1135 l 671 1206 q 634 1089 669 1131 q 543 1047 599 1047 q 490 1058 515 1047 q 433 1089 464 1069 q 411 1101 431 1090 q 379 1113 392 1113 q 351 1095 363 1113 q 338 1047 339 1078 l 253 1047 z "},"Ő":{"ha":932,"x_min":46,"x_max":886,"o":"m 467 -14 q 242 47 338 -14 q 97 219 147 107 q 46 486 46 332 q 97 753 46 640 q 242 926 147 865 q 467 986 338 986 q 690 926 596 986 q 835 753 785 865 q 886 486 886 640 q 835 219 886 332 q 690 47 785 107 q 467 -14 596 -14 m 467 107 q 663 209 590 107 q 735 486 735 311 q 663 764 735 663 q 467 865 590 865 q 270 763 343 865 q 197 486 197 661 q 230 285 197 371 q 324 153 263 199 q 467 107 385 107 m 399 1258 l 535 1258 l 397 1047 l 286 1047 l 399 1258 m 600 1258 l 736 1258 l 599 1047 l 488 1047 l 600 1258 z "},"Ō":{"ha":932,"x_min":46,"x_max":886,"o":"m 467 -14 q 242 47 338 -14 q 97 219 147 107 q 46 486 46 332 q 97 753 46 640 q 242 926 147 865 q 467 986 338 986 q 690 926 596 986 q 835 753 785 865 q 886 486 886 640 q 835 219 886 332 q 690 47 785 107 q 467 -14 596 -14 m 467 107 q 663 209 590 107 q 735 486 735 311 q 663 764 735 663 q 467 865 590 865 q 270 763 343 865 q 197 486 197 661 q 230 285 197 371 q 324 153 263 199 q 467 107 385 107 m 243 1158 l 690 1158 l 690 1065 l 243 1065 l 243 1158 z "},"Ø":{"ha":932,"x_min":46,"x_max":886,"o":"m 735 892 q 847 724 808 828 q 886 486 886 621 q 835 219 886 332 q 690 47 785 107 q 467 -14 596 -14 q 275 28 358 -14 l 228 -60 l 108 -60 l 188 89 q 82 256 118 154 q 46 486 46 357 q 97 753 46 640 q 242 926 147 865 q 467 986 338 986 q 642 951 561 986 l 671 1007 l 796 1007 l 735 892 m 197 486 q 258 226 197 326 l 582 838 q 467 865 529 865 q 270 763 343 865 q 197 486 197 661 m 467 107 q 663 209 590 107 q 735 486 735 311 q 665 761 735 660 l 336 144 q 467 107 393 107 z "},"Ǿ":{"ha":932,"x_min":46,"x_max":886,"o":"m 735 892 q 847 724 808 828 q 886 486 886 621 q 835 219 886 332 q 690 47 785 107 q 467 -14 596 -14 q 275 28 358 -14 l 228 -60 l 108 -60 l 188 89 q 82 256 118 154 q 46 486 46 357 q 97 753 46 640 q 242 926 147 865 q 467 986 338 986 q 642 951 561 986 l 671 1007 l 796 1007 l 735 892 m 197 486 q 258 226 197 326 l 582 838 q 467 865 529 865 q 270 763 343 865 q 197 486 197 661 m 467 107 q 663 209 590 107 q 735 486 735 311 q 665 761 735 660 l 336 144 q 467 107 393 107 m 526 1258 l 665 1258 l 525 1047 l 415 1047 l 526 1258 z "},"Õ":{"ha":932,"x_min":46,"x_max":886,"o":"m 467 -14 q 242 47 338 -14 q 97 219 147 107 q 46 486 46 332 q 97 753 46 640 q 242 926 147 865 q 467 986 338 986 q 690 926 596 986 q 835 753 785 865 q 886 486 886 640 q 835 219 886 332 q 690 47 785 107 q 467 -14 596 -14 m 467 107 q 663 209 590 107 q 735 486 735 311 q 663 764 735 663 q 467 865 590 865 q 270 763 343 865 q 197 486 197 661 q 230 285 197 371 q 324 153 263 199 q 467 107 385 107 m 253 1047 q 288 1158 253 1117 q 376 1200 322 1200 q 427 1190 403 1200 q 481 1161 451 1179 q 518 1141 504 1147 q 544 1135 532 1135 q 586 1206 582 1135 l 671 1206 q 634 1089 669 1131 q 543 1047 599 1047 q 490 1058 515 1047 q 433 1089 464 1069 q 411 1101 431 1090 q 379 1113 392 1113 q 351 1095 363 1113 q 338 1047 339 1078 l 253 1047 z "},"Œ":{"ha":1233,"x_min":46,"x_max":1168,"o":"m 782 850 l 782 568 l 1122 568 l 1122 454 l 782 454 l 782 122 l 1168 122 l 1168 0 l 631 0 l 631 72 q 407 -14 538 -14 q 139 115 232 -14 q 46 486 46 243 q 139 858 46 729 q 407 986 232 986 q 631 901 539 986 l 631 972 l 1168 972 l 1168 850 l 782 850 m 414 107 q 575 204 519 107 q 631 486 631 301 q 575 769 631 672 q 414 865 519 865 q 251 772 304 865 q 197 486 197 678 q 251 201 197 296 q 414 107 304 107 z "},"P":{"ha":804,"x_min":107,"x_max":739,"o":"m 107 972 l 406 972 q 654 896 569 972 q 739 672 739 819 q 651 435 739 517 q 399 353 564 353 l 258 353 l 258 0 l 107 0 l 107 972 m 415 476 q 547 526 501 476 q 593 667 593 575 q 544 802 593 756 q 404 849 496 849 l 258 849 l 258 476 l 415 476 z "},"Þ":{"ha":790,"x_min":107,"x_max":726,"o":"m 107 972 l 258 972 l 258 840 l 393 840 q 642 765 557 840 q 726 544 726 689 q 638 312 726 393 q 386 231 550 231 l 258 231 l 258 0 l 107 0 l 107 972 m 403 354 q 534 402 488 354 q 581 539 581 450 q 532 672 581 626 q 392 718 483 718 l 258 718 l 258 354 l 403 354 z "},"Q":{"ha":932,"x_min":46,"x_max":886,"o":"m 886 486 q 806 163 886 290 q 579 0 725 36 q 865 -57 693 -43 l 840 -162 q 597 -108 721 -151 q 386 -7 472 -64 q 136 150 226 21 q 46 486 46 279 q 97 753 46 640 q 242 926 147 865 q 467 986 338 986 q 690 926 596 986 q 835 753 785 865 q 886 486 886 640 m 197 486 q 230 285 197 371 q 324 153 263 199 q 467 107 385 107 q 663 209 590 107 q 735 486 735 311 q 663 764 735 663 q 467 865 590 865 q 270 763 343 865 q 197 486 197 661 z "},"R":{"ha":814,"x_min":107,"x_max":783,"o":"m 107 972 l 419 972 q 660 906 581 972 q 739 708 739 840 q 693 545 739 613 q 564 451 647 478 l 564 449 q 609 410 592 431 q 638 361 626 389 l 783 0 l 621 0 l 501 308 q 450 383 481 364 q 350 401 419 401 l 258 401 l 258 0 l 107 0 l 107 972 m 408 524 q 593 696 593 524 q 547 811 593 774 q 404 849 500 849 l 258 849 l 258 524 l 408 524 z "},"Ŕ":{"ha":814,"x_min":107,"x_max":783,"o":"m 107 972 l 419 972 q 660 906 581 972 q 739 708 739 840 q 693 545 739 613 q 564 451 647 478 l 564 449 q 609 410 592 431 q 638 361 626 389 l 783 0 l 621 0 l 501 308 q 450 383 481 364 q 350 401 419 401 l 258 401 l 258 0 l 107 0 l 107 972 m 408 524 q 593 696 593 524 q 547 811 593 774 q 404 849 500 849 l 258 849 l 258 524 l 408 524 m 468 1258 l 607 1258 l 467 1047 l 357 1047 l 468 1258 z "},"Ř":{"ha":814,"x_min":107,"x_max":783,"o":"m 107 972 l 419 972 q 660 906 581 972 q 739 708 739 840 q 693 545 739 613 q 564 451 647 478 l 564 449 q 609 410 592 431 q 638 361 626 389 l 783 0 l 621 0 l 501 308 q 450 383 481 364 q 350 401 419 401 l 258 401 l 258 0 l 107 0 l 107 972 m 408 524 q 593 696 593 524 q 547 811 593 774 q 404 849 500 849 l 258 849 l 258 524 l 408 524 m 199 1256 l 318 1256 l 408 1138 l 499 1256 l 618 1256 l 453 1047 l 364 1047 l 199 1256 z "},"Ŗ":{"ha":814,"x_min":107,"x_max":783,"o":"m 107 972 l 419 972 q 660 906 581 972 q 739 708 739 840 q 693 545 739 613 q 564 451 647 478 l 564 449 q 609 410 592 431 q 638 361 626 389 l 783 0 l 621 0 l 501 308 q 450 383 481 364 q 350 401 419 401 l 258 401 l 258 0 l 107 0 l 107 972 m 408 524 q 593 696 593 524 q 547 811 593 774 q 404 849 500 849 l 258 849 l 258 524 l 408 524 m 408 -100 q 476 -128 451 -100 q 501 -199 501 -156 q 475 -302 501 -247 q 406 -397 449 -357 l 350 -356 q 404 -264 389 -304 q 347 -240 368 -262 q 325 -183 325 -218 q 348 -123 325 -146 q 408 -100 371 -100 z "},"Ṛ":{"ha":814,"x_min":107,"x_max":783,"o":"m 107 972 l 419 972 q 660 906 581 972 q 739 708 739 840 q 693 545 739 613 q 564 451 647 478 l 564 449 q 609 410 592 431 q 638 361 626 389 l 783 0 l 621 0 l 501 308 q 450 383 481 364 q 350 401 419 401 l 258 401 l 258 0 l 107 0 l 107 972 m 408 524 q 593 696 593 524 q 547 811 593 774 q 404 849 500 849 l 258 849 l 258 524 l 408 524 m 408 -256 q 351 -234 374 -256 q 329 -178 329 -212 q 351 -122 329 -143 q 408 -100 374 -100 q 465 -122 443 -100 q 488 -178 488 -143 q 465 -234 488 -212 q 408 -256 443 -256 z "},"Ṝ":{"ha":814,"x_min":107,"x_max":783,"o":"m 107 972 l 419 972 q 660 906 581 972 q 739 708 739 840 q 693 545 739 613 q 564 451 647 478 l 564 449 q 609 410 592 431 q 638 361 626 389 l 783 0 l 621 0 l 501 308 q 450 383 481 364 q 350 401 419 401 l 258 401 l 258 0 l 107 0 l 107 972 m 408 524 q 593 696 593 524 q 547 811 593 774 q 404 849 500 849 l 258 849 l 258 524 l 408 524 m 408 -256 q 351 -234 374 -256 q 329 -178 329 -212 q 351 -122 329 -143 q 408 -100 374 -100 q 465 -122 443 -100 q 488 -178 488 -143 q 465 -234 488 -212 q 408 -256 443 -256 m 185 1158 l 632 1158 l 632 1065 l 185 1065 l 185 1158 z "},"Ṟ":{"ha":814,"x_min":107,"x_max":783,"o":"m 107 972 l 419 972 q 660 906 581 972 q 739 708 739 840 q 693 545 739 613 q 564 451 647 478 l 564 449 q 609 410 592 431 q 638 361 626 389 l 783 0 l 621 0 l 501 308 q 450 383 481 364 q 350 401 419 401 l 258 401 l 258 0 l 107 0 l 107 972 m 408 524 q 593 696 593 524 q 547 811 593 774 q 404 849 500 849 l 258 849 l 258 524 l 408 524 m 185 -93 l 632 -93 l 632 -186 l 185 -186 l 185 -93 z "},"S":{"ha":744,"x_min":49,"x_max":694,"o":"m 368 -14 q 185 28 269 -14 q 49 144 100 69 l 139 233 q 248 144 182 178 q 375 110 314 110 q 498 147 451 110 q 544 246 544 185 q 528 317 544 288 q 472 374 513 346 q 354 442 432 403 q 143 581 204 515 q 82 738 82 647 q 119 868 82 811 q 226 956 157 925 q 386 986 296 986 q 562 945 483 986 q 675 836 640 904 l 578 764 q 495 837 544 811 q 389 863 446 863 q 275 830 317 863 q 233 740 233 797 q 251 681 233 706 q 313 627 268 656 q 453 553 358 599 q 640 422 585 489 q 694 257 694 354 q 654 115 694 176 q 540 19 614 53 q 368 -14 465 -14 z "},"Ś":{"ha":744,"x_min":49,"x_max":694,"o":"m 368 -14 q 185 28 269 -14 q 49 144 100 69 l 139 233 q 248 144 182 178 q 375 110 314 110 q 498 147 451 110 q 544 246 544 185 q 528 317 544 288 q 472 374 513 346 q 354 442 432 403 q 143 581 204 515 q 82 738 82 647 q 119 868 82 811 q 226 956 157 925 q 386 986 296 986 q 562 945 483 986 q 675 836 640 904 l 578 764 q 495 837 544 811 q 389 863 446 863 q 275 830 317 863 q 233 740 233 797 q 251 681 233 706 q 313 627 268 656 q 453 553 358 599 q 640 422 585 489 q 694 257 694 354 q 654 115 694 176 q 540 19 614 53 q 368 -14 465 -14 m 433 1258 l 572 1258 l 432 1047 l 322 1047 l 433 1258 z "},"Š":{"ha":744,"x_min":49,"x_max":694,"o":"m 368 -14 q 185 28 269 -14 q 49 144 100 69 l 139 233 q 248 144 182 178 q 375 110 314 110 q 498 147 451 110 q 544 246 544 185 q 528 317 544 288 q 472 374 513 346 q 354 442 432 403 q 143 581 204 515 q 82 738 82 647 q 119 868 82 811 q 226 956 157 925 q 386 986 296 986 q 562 945 483 986 q 675 836 640 904 l 578 764 q 495 837 544 811 q 389 863 446 863 q 275 830 317 863 q 233 740 233 797 q 251 681 233 706 q 313 627 268 656 q 453 553 358 599 q 640 422 585 489 q 694 257 694 354 q 654 115 694 176 q 540 19 614 53 q 368 -14 465 -14 m 164 1256 l 283 1256 l 374 1138 l 464 1256 l 583 1256 l 418 1047 l 329 1047 l 164 1256 z "},"Ş":{"ha":744,"x_min":49,"x_max":694,"o":"m 694 257 q 619 72 694 144 q 415 -11 543 0 l 375 -87 q 467 -115 432 -87 q 503 -189 503 -142 q 462 -281 503 -246 q 353 -317 421 -317 q 288 -310 321 -317 q 239 -294 256 -304 l 251 -233 q 335 -246 292 -246 q 386 -232 367 -246 q 406 -193 406 -218 q 378 -156 406 -169 q 303 -144 351 -143 l 271 -108 l 325 -11 q 167 38 239 -3 q 49 144 94 78 l 139 233 q 248 144 182 178 q 375 110 314 110 q 498 147 451 110 q 544 246 544 185 q 528 317 544 288 q 472 374 513 346 q 354 442 432 403 q 143 581 204 515 q 82 738 82 647 q 119 868 82 811 q 226 956 157 925 q 386 986 296 986 q 562 945 483 986 q 675 836 640 904 l 578 764 q 495 837 544 811 q 389 863 446 863 q 275 830 317 863 q 233 740 233 797 q 251 681 233 706 q 313 627 268 656 q 453 553 358 599 q 640 422 585 489 q 694 257 694 354 z "},"Ŝ":{"ha":744,"x_min":49,"x_max":694,"o":"m 368 -14 q 185 28 269 -14 q 49 144 100 69 l 139 233 q 248 144 182 178 q 375 110 314 110 q 498 147 451 110 q 544 246 544 185 q 528 317 544 288 q 472 374 513 346 q 354 442 432 403 q 143 581 204 515 q 82 738 82 647 q 119 868 82 811 q 226 956 157 925 q 386 986 296 986 q 562 945 483 986 q 675 836 640 904 l 578 764 q 495 837 544 811 q 389 863 446 863 q 275 830 317 863 q 233 740 233 797 q 251 681 233 706 q 313 627 268 656 q 453 553 358 599 q 640 422 585 489 q 694 257 694 354 q 654 115 694 176 q 540 19 614 53 q 368 -14 465 -14 m 329 1256 l 418 1256 l 583 1047 l 464 1047 l 374 1165 l 283 1047 l 164 1047 l 329 1256 z "},"Ș":{"ha":744,"x_min":49,"x_max":694,"o":"m 368 -14 q 185 28 269 -14 q 49 144 100 69 l 139 233 q 248 144 182 178 q 375 110 314 110 q 498 147 451 110 q 544 246 544 185 q 528 317 544 288 q 472 374 513 346 q 354 442 432 403 q 143 581 204 515 q 82 738 82 647 q 119 868 82 811 q 226 956 157 925 q 386 986 296 986 q 562 945 483 986 q 675 836 640 904 l 578 764 q 495 837 544 811 q 389 863 446 863 q 275 830 317 863 q 233 740 233 797 q 251 681 233 706 q 313 627 268 656 q 453 553 358 599 q 640 422 585 489 q 694 257 694 354 q 654 115 694 176 q 540 19 614 53 q 368 -14 465 -14 m 374 -100 q 442 -128 417 -100 q 467 -199 467 -156 q 440 -302 467 -247 q 371 -397 414 -357 l 315 -356 q 369 -264 354 -304 q 312 -240 333 -262 q 290 -183 290 -218 q 313 -123 290 -146 q 374 -100 336 -100 z "},"Ṡ":{"ha":744,"x_min":49,"x_max":694,"o":"m 368 -14 q 185 28 269 -14 q 49 144 100 69 l 139 233 q 248 144 182 178 q 375 110 314 110 q 498 147 451 110 q 544 246 544 185 q 528 317 544 288 q 472 374 513 346 q 354 442 432 403 q 143 581 204 515 q 82 738 82 647 q 119 868 82 811 q 226 956 157 925 q 386 986 296 986 q 562 945 483 986 q 675 836 640 904 l 578 764 q 495 837 544 811 q 389 863 446 863 q 275 830 317 863 q 233 740 233 797 q 251 681 233 706 q 313 627 268 656 q 453 553 358 599 q 640 422 585 489 q 694 257 694 354 q 654 115 694 176 q 540 19 614 53 q 368 -14 465 -14 m 374 1047 q 317 1069 339 1047 q 294 1125 294 1092 q 317 1181 294 1160 q 374 1203 339 1203 q 431 1181 408 1203 q 453 1125 453 1160 q 431 1069 453 1092 q 374 1047 408 1047 z "},"Ṣ":{"ha":744,"x_min":49,"x_max":694,"o":"m 368 -14 q 185 28 269 -14 q 49 144 100 69 l 139 233 q 248 144 182 178 q 375 110 314 110 q 498 147 451 110 q 544 246 544 185 q 528 317 544 288 q 472 374 513 346 q 354 442 432 403 q 143 581 204 515 q 82 738 82 647 q 119 868 82 811 q 226 956 157 925 q 386 986 296 986 q 562 945 483 986 q 675 836 640 904 l 578 764 q 495 837 544 811 q 389 863 446 863 q 275 830 317 863 q 233 740 233 797 q 251 681 233 706 q 313 627 268 656 q 453 553 358 599 q 640 422 585 489 q 694 257 694 354 q 654 115 694 176 q 540 19 614 53 q 368 -14 465 -14 m 374 -256 q 317 -234 339 -256 q 294 -178 294 -212 q 317 -122 294 -143 q 374 -100 339 -100 q 431 -122 408 -100 q 453 -178 453 -143 q 431 -234 453 -212 q 374 -256 408 -256 z "},"ẞ":{"ha":874,"x_min":106,"x_max":824,"o":"m 543 -14 q 317 111 376 -14 l 400 171 q 542 96 450 96 q 642 140 604 96 q 681 258 681 185 q 654 355 681 317 q 567 421 628 393 q 401 472 507 449 l 401 542 l 556 849 l 257 849 l 257 0 l 106 0 l 106 972 l 715 972 l 715 878 l 543 551 q 753 443 683 515 q 824 258 824 371 q 788 116 824 178 q 689 20 753 54 q 543 -14 625 -14 z "},"Ə":{"ha":939,"x_min":46,"x_max":893,"o":"m 450 986 q 688 926 588 986 q 840 753 788 867 q 893 482 893 639 q 842 217 893 328 q 693 46 790 106 q 464 -14 596 -14 q 156 115 265 -14 q 46 474 46 243 l 46 543 l 739 543 q 652 781 726 697 q 453 865 578 865 q 297 826 367 865 q 179 713 226 786 l 90 803 q 238 938 143 890 q 450 986 332 986 m 464 107 q 657 192 585 107 q 740 431 729 276 l 200 429 l 200 417 q 271 190 200 274 q 464 107 342 107 z "},"T":{"ha":790,"x_min":22,"x_max":767,"o":"m 319 857 l 22 857 l 22 972 l 767 972 l 767 857 l 471 857 l 471 0 l 319 0 l 319 857 z "},"Ŧ":{"ha":790,"x_min":22,"x_max":767,"o":"m 471 857 l 471 519 l 693 519 l 693 417 l 471 417 l 471 0 l 319 0 l 319 417 l 97 417 l 97 519 l 319 519 l 319 857 l 22 857 l 22 972 l 767 972 l 767 857 l 471 857 z "},"Ť":{"ha":790,"x_min":22,"x_max":767,"o":"m 319 857 l 22 857 l 22 972 l 767 972 l 767 857 l 471 857 l 471 0 l 319 0 l 319 857 m 185 1256 l 304 1256 l 394 1138 l 485 1256 l 604 1256 l 439 1047 l 350 1047 l 185 1256 z "},"Ţ":{"ha":790,"x_min":22,"x_max":767,"o":"m 443 0 l 396 -87 q 488 -115 453 -87 q 524 -189 524 -142 q 483 -281 524 -246 q 374 -317 442 -317 q 309 -310 342 -317 q 260 -294 276 -304 l 272 -233 q 356 -246 313 -246 q 407 -232 388 -246 q 426 -193 426 -218 q 399 -156 426 -169 q 324 -144 372 -143 l 292 -108 l 353 0 l 319 0 l 319 857 l 22 857 l 22 972 l 767 972 l 767 857 l 471 857 l 471 0 l 443 0 z "},"Ț":{"ha":790,"x_min":22,"x_max":767,"o":"m 319 857 l 22 857 l 22 972 l 767 972 l 767 857 l 471 857 l 471 0 l 319 0 l 319 857 m 394 -100 q 463 -128 438 -100 q 488 -199 488 -156 q 461 -302 488 -247 q 392 -397 435 -357 l 336 -356 q 390 -264 375 -304 q 333 -240 354 -262 q 311 -183 311 -218 q 334 -123 311 -146 q 394 -100 357 -100 z "},"Ṭ":{"ha":790,"x_min":22,"x_max":767,"o":"m 319 857 l 22 857 l 22 972 l 767 972 l 767 857 l 471 857 l 471 0 l 319 0 l 319 857 m 394 -256 q 338 -234 360 -256 q 315 -178 315 -212 q 338 -122 315 -143 q 394 -100 360 -100 q 451 -122 429 -100 q 474 -178 474 -143 q 451 -234 474 -212 q 394 -256 429 -256 z "},"Ṯ":{"ha":790,"x_min":22,"x_max":767,"o":"m 319 857 l 22 857 l 22 972 l 767 972 l 767 857 l 471 857 l 471 0 l 319 0 l 319 857 m 171 -93 l 618 -93 l 618 -186 l 171 -186 l 171 -93 z "},"U":{"ha":915,"x_min":99,"x_max":817,"o":"m 458 -14 q 190 85 281 -14 q 99 381 99 185 l 99 972 l 251 972 l 251 383 q 458 110 251 110 q 664 383 664 110 l 664 972 l 817 972 l 817 381 q 726 86 817 186 q 458 -14 635 -14 z "},"Ú":{"ha":915,"x_min":99,"x_max":817,"o":"m 458 -14 q 190 85 281 -14 q 99 381 99 185 l 99 972 l 251 972 l 251 383 q 458 110 251 110 q 664 383 664 110 l 664 972 l 817 972 l 817 381 q 726 86 817 186 q 458 -14 635 -14 m 518 1258 l 657 1258 l 517 1047 l 407 1047 l 518 1258 z "},"Ŭ":{"ha":915,"x_min":99,"x_max":817,"o":"m 458 -14 q 190 85 281 -14 q 99 381 99 185 l 99 972 l 251 972 l 251 383 q 458 110 251 110 q 664 383 664 110 l 664 972 l 817 972 l 817 381 q 726 86 817 186 q 458 -14 635 -14 m 458 1047 q 307 1097 363 1047 q 249 1242 251 1146 l 339 1242 q 372 1165 342 1193 q 458 1138 401 1138 q 543 1164 511 1138 q 578 1242 575 1190 l 668 1242 q 613 1098 665 1149 q 458 1047 560 1047 z "},"Ǔ":{"ha":915,"x_min":99,"x_max":817,"o":"m 458 -14 q 190 85 281 -14 q 99 381 99 185 l 99 972 l 251 972 l 251 383 q 458 110 251 110 q 664 383 664 110 l 664 972 l 817 972 l 817 381 q 726 86 817 186 q 458 -14 635 -14 m 249 1256 l 368 1256 l 458 1138 l 549 1256 l 668 1256 l 503 1047 l 414 1047 l 249 1256 z "},"Û":{"ha":915,"x_min":99,"x_max":817,"o":"m 458 -14 q 190 85 281 -14 q 99 381 99 185 l 99 972 l 251 972 l 251 383 q 458 110 251 110 q 664 383 664 110 l 664 972 l 817 972 l 817 381 q 726 86 817 186 q 458 -14 635 -14 m 414 1256 l 503 1256 l 668 1047 l 549 1047 l 458 1165 l 368 1047 l 249 1047 l 414 1256 z "},"Ü":{"ha":915,"x_min":99,"x_max":817,"o":"m 458 -14 q 190 85 281 -14 q 99 381 99 185 l 99 972 l 251 972 l 251 383 q 458 110 251 110 q 664 383 664 110 l 664 972 l 817 972 l 817 381 q 726 86 817 186 q 458 -14 635 -14 m 317 1047 q 260 1069 282 1047 q 238 1125 238 1092 q 260 1181 238 1160 q 317 1203 282 1203 q 373 1181 350 1203 q 396 1125 396 1158 q 373 1069 396 1092 q 317 1047 350 1047 m 600 1047 q 544 1069 567 1047 q 521 1125 521 1092 q 544 1181 521 1158 q 600 1203 567 1203 q 657 1181 635 1203 q 679 1125 679 1160 q 657 1069 679 1092 q 600 1047 635 1047 z "},"Ǘ":{"ha":915,"x_min":99,"x_max":817,"o":"m 458 -14 q 190 85 281 -14 q 99 381 99 185 l 99 972 l 251 972 l 251 383 q 458 110 251 110 q 664 383 664 110 l 664 972 l 817 972 l 817 381 q 726 86 817 186 q 458 -14 635 -14 m 472 1393 l 583 1393 l 496 1247 l 407 1247 l 472 1393 m 317 1047 q 260 1069 282 1047 q 238 1125 238 1092 q 260 1181 238 1160 q 317 1203 282 1203 q 373 1181 350 1203 q 396 1125 396 1158 q 373 1069 396 1092 q 317 1047 350 1047 m 600 1047 q 544 1069 567 1047 q 521 1125 521 1092 q 544 1181 521 1158 q 600 1203 567 1203 q 657 1181 635 1203 q 679 1125 679 1160 q 657 1069 679 1092 q 600 1047 635 1047 z "},"Ǚ":{"ha":915,"x_min":99,"x_max":817,"o":"m 458 -14 q 190 85 281 -14 q 99 381 99 185 l 99 972 l 251 972 l 251 383 q 458 110 251 110 q 664 383 664 110 l 664 972 l 817 972 l 817 381 q 726 86 817 186 q 458 -14 635 -14 m 260 1401 l 372 1401 l 458 1300 l 544 1401 l 657 1401 l 499 1229 l 417 1229 l 260 1401 m 317 1047 q 260 1069 282 1047 q 238 1125 238 1092 q 260 1181 238 1160 q 317 1203 282 1203 q 373 1181 350 1203 q 396 1125 396 1158 q 373 1069 396 1092 q 317 1047 350 1047 m 600 1047 q 544 1069 567 1047 q 521 1125 521 1092 q 544 1181 521 1158 q 600 1203 567 1203 q 657 1181 635 1203 q 679 1125 679 1160 q 657 1069 679 1092 q 600 1047 635 1047 z "},"Ǜ":{"ha":915,"x_min":99,"x_max":817,"o":"m 458 -14 q 190 85 281 -14 q 99 381 99 185 l 99 972 l 251 972 l 251 383 q 458 110 251 110 q 664 383 664 110 l 664 972 l 817 972 l 817 381 q 726 86 817 186 q 458 -14 635 -14 m 331 1393 l 442 1393 l 507 1247 l 418 1247 l 331 1393 m 317 1047 q 260 1069 282 1047 q 238 1125 238 1092 q 260 1181 238 1160 q 317 1203 282 1203 q 373 1181 350 1203 q 396 1125 396 1158 q 373 1069 396 1092 q 317 1047 350 1047 m 600 1047 q 544 1069 567 1047 q 521 1125 521 1092 q 544 1181 521 1158 q 600 1203 567 1203 q 657 1181 635 1203 q 679 1125 679 1160 q 657 1069 679 1092 q 600 1047 635 1047 z "},"Ǖ":{"ha":915,"x_min":99,"x_max":817,"o":"m 458 -14 q 190 85 281 -14 q 99 381 99 185 l 99 972 l 251 972 l 251 383 q 458 110 251 110 q 664 383 664 110 l 664 972 l 817 972 l 817 381 q 726 86 817 186 q 458 -14 635 -14 m 260 1349 l 657 1349 l 657 1268 l 260 1268 l 260 1349 m 317 1047 q 260 1069 282 1047 q 238 1125 238 1092 q 260 1181 238 1160 q 317 1203 282 1203 q 373 1181 350 1203 q 396 1125 396 1158 q 373 1069 396 1092 q 317 1047 350 1047 m 600 1047 q 544 1069 567 1047 q 521 1125 521 1092 q 544 1181 521 1158 q 600 1203 567 1203 q 657 1181 635 1203 q 679 1125 679 1160 q 657 1069 679 1092 q 600 1047 635 1047 z "},"Ụ":{"ha":915,"x_min":99,"x_max":817,"o":"m 458 -14 q 190 85 281 -14 q 99 381 99 185 l 99 972 l 251 972 l 251 383 q 458 110 251 110 q 664 383 664 110 l 664 972 l 817 972 l 817 381 q 726 86 817 186 q 458 -14 635 -14 m 458 -256 q 401 -234 424 -256 q 379 -178 379 -212 q 401 -122 379 -143 q 458 -100 424 -100 q 515 -122 493 -100 q 538 -178 538 -143 q 515 -234 538 -212 q 458 -256 493 -256 z "},"Ù":{"ha":915,"x_min":99,"x_max":817,"o":"m 458 -14 q 190 85 281 -14 q 99 381 99 185 l 99 972 l 251 972 l 251 383 q 458 110 251 110 q 664 383 664 110 l 664 972 l 817 972 l 817 381 q 726 86 817 186 q 458 -14 635 -14 m 264 1258 l 401 1258 l 513 1047 l 403 1047 l 264 1258 z "},"Ủ":{"ha":915,"x_min":99,"x_max":817,"o":"m 458 -14 q 190 85 281 -14 q 99 381 99 185 l 99 972 l 251 972 l 251 383 q 458 110 251 110 q 664 383 664 110 l 664 972 l 817 972 l 817 381 q 726 86 817 186 q 458 -14 635 -14 m 406 1047 q 420 1106 406 1083 q 463 1154 435 1129 q 495 1190 485 1175 q 506 1226 506 1206 q 451 1268 506 1268 q 364 1204 399 1268 l 304 1258 q 368 1326 326 1301 q 463 1350 410 1350 q 568 1319 529 1350 q 607 1233 607 1289 q 592 1175 607 1199 q 550 1124 578 1151 q 517 1084 528 1100 q 507 1047 507 1068 l 406 1047 z "},"Ư":{"ha":986,"x_min":99,"x_max":1036,"o":"m 1036 972 l 1036 914 q 975 733 1036 810 q 817 629 914 656 l 817 381 q 726 86 817 186 q 458 -14 635 -14 q 190 85 281 -14 q 99 381 99 185 l 99 972 l 251 972 l 251 383 q 458 110 251 110 q 664 383 664 110 l 664 972 l 817 972 l 817 714 q 894 799 871 753 q 917 914 917 844 l 917 972 l 1036 972 z "},"Ứ":{"ha":986,"x_min":99,"x_max":1036,"o":"m 1036 972 l 1036 914 q 975 733 1036 810 q 817 629 914 656 l 817 381 q 726 86 817 186 q 458 -14 635 -14 q 190 85 281 -14 q 99 381 99 185 l 99 972 l 251 972 l 251 383 q 458 110 251 110 q 664 383 664 110 l 664 972 l 817 972 l 817 714 q 894 799 871 753 q 917 914 917 844 l 917 972 l 1036 972 m 518 1258 l 657 1258 l 517 1047 l 407 1047 l 518 1258 z "},"Ự":{"ha":986,"x_min":99,"x_max":1036,"o":"m 1036 972 l 1036 914 q 975 733 1036 810 q 817 629 914 656 l 817 381 q 726 86 817 186 q 458 -14 635 -14 q 190 85 281 -14 q 99 381 99 185 l 99 972 l 251 972 l 251 383 q 458 110 251 110 q 664 383 664 110 l 664 972 l 817 972 l 817 714 q 894 799 871 753 q 917 914 917 844 l 917 972 l 1036 972 m 458 -256 q 401 -234 424 -256 q 379 -178 379 -212 q 401 -122 379 -143 q 458 -100 424 -100 q 515 -122 493 -100 q 538 -178 538 -143 q 515 -234 538 -212 q 458 -256 493 -256 z "},"Ừ":{"ha":986,"x_min":99,"x_max":1036,"o":"m 1036 972 l 1036 914 q 975 733 1036 810 q 817 629 914 656 l 817 381 q 726 86 817 186 q 458 -14 635 -14 q 190 85 281 -14 q 99 381 99 185 l 99 972 l 251 972 l 251 383 q 458 110 251 110 q 664 383 664 110 l 664 972 l 817 972 l 817 714 q 894 799 871 753 q 917 914 917 844 l 917 972 l 1036 972 m 264 1258 l 401 1258 l 513 1047 l 403 1047 l 264 1258 z "},"Ử":{"ha":986,"x_min":99,"x_max":1036,"o":"m 1036 972 l 1036 914 q 975 733 1036 810 q 817 629 914 656 l 817 381 q 726 86 817 186 q 458 -14 635 -14 q 190 85 281 -14 q 99 381 99 185 l 99 972 l 251 972 l 251 383 q 458 110 251 110 q 664 383 664 110 l 664 972 l 817 972 l 817 714 q 894 799 871 753 q 917 914 917 844 l 917 972 l 1036 972 m 406 1047 q 420 1106 406 1083 q 463 1154 435 1129 q 495 1190 485 1175 q 506 1226 506 1206 q 451 1268 506 1268 q 364 1204 399 1268 l 304 1258 q 368 1326 326 1301 q 463 1350 410 1350 q 568 1319 529 1350 q 607 1233 607 1289 q 592 1175 607 1199 q 550 1124 578 1151 q 517 1084 528 1100 q 507 1047 507 1068 l 406 1047 z "},"Ữ":{"ha":986,"x_min":99,"x_max":1036,"o":"m 1036 972 l 1036 914 q 975 733 1036 810 q 817 629 914 656 l 817 381 q 726 86 817 186 q 458 -14 635 -14 q 190 85 281 -14 q 99 381 99 185 l 99 972 l 251 972 l 251 383 q 458 110 251 110 q 664 383 664 110 l 664 972 l 817 972 l 817 714 q 894 799 871 753 q 917 914 917 844 l 917 972 l 1036 972 m 244 1047 q 279 1158 244 1117 q 368 1200 314 1200 q 419 1190 394 1200 q 472 1161 443 1179 q 510 1141 496 1147 q 536 1135 524 1135 q 578 1206 574 1135 l 663 1206 q 626 1089 661 1131 q 535 1047 590 1047 q 481 1058 507 1047 q 425 1089 456 1069 q 403 1101 422 1090 q 371 1113 383 1113 q 342 1095 354 1113 q 329 1047 331 1078 l 244 1047 z "},"Ű":{"ha":915,"x_min":99,"x_max":817,"o":"m 458 -14 q 190 85 281 -14 q 99 381 99 185 l 99 972 l 251 972 l 251 383 q 458 110 251 110 q 664 383 664 110 l 664 972 l 817 972 l 817 381 q 726 86 817 186 q 458 -14 635 -14 m 390 1258 l 526 1258 l 389 1047 l 278 1047 l 390 1258 m 592 1258 l 728 1258 l 590 1047 l 479 1047 l 592 1258 z "},"Ū":{"ha":915,"x_min":99,"x_max":817,"o":"m 458 -14 q 190 85 281 -14 q 99 381 99 185 l 99 972 l 251 972 l 251 383 q 458 110 251 110 q 664 383 664 110 l 664 972 l 817 972 l 817 381 q 726 86 817 186 q 458 -14 635 -14 m 235 1158 l 682 1158 l 682 1065 l 235 1065 l 235 1158 z "},"Ų":{"ha":915,"x_min":99,"x_max":817,"o":"m 817 972 l 817 381 q 742 106 817 204 q 522 -10 668 7 q 419 -154 419 -86 q 440 -198 419 -181 q 500 -215 460 -215 q 578 -196 531 -215 l 596 -257 q 537 -292 572 -279 q 463 -304 501 -304 q 358 -271 397 -304 q 319 -172 319 -237 q 421 -12 319 -76 q 180 97 261 -1 q 99 381 99 196 l 99 972 l 251 972 l 251 383 q 458 110 251 110 q 664 383 664 110 l 664 972 l 817 972 z "},"Ů":{"ha":915,"x_min":99,"x_max":817,"o":"m 458 -14 q 190 85 281 -14 q 99 381 99 185 l 99 972 l 251 972 l 251 383 q 458 110 251 110 q 664 383 664 110 l 664 972 l 817 972 l 817 381 q 726 86 817 186 q 458 -14 635 -14 m 458 1031 q 360 1067 399 1031 q 321 1160 321 1103 q 360 1253 321 1217 q 458 1289 399 1289 q 557 1253 518 1289 q 596 1160 596 1217 q 557 1067 596 1103 q 458 1031 518 1031 m 458 1089 q 508 1109 489 1089 q 528 1160 528 1129 q 508 1210 528 1190 q 458 1231 489 1231 q 408 1210 428 1231 q 389 1160 389 1190 q 408 1109 389 1129 q 458 1089 428 1089 z "},"Ũ":{"ha":915,"x_min":99,"x_max":817,"o":"m 458 -14 q 190 85 281 -14 q 99 381 99 185 l 99 972 l 251 972 l 251 383 q 458 110 251 110 q 664 383 664 110 l 664 972 l 817 972 l 817 381 q 726 86 817 186 q 458 -14 635 -14 m 244 1047 q 279 1158 244 1117 q 368 1200 314 1200 q 419 1190 394 1200 q 472 1161 443 1179 q 510 1141 496 1147 q 536 1135 524 1135 q 578 1206 574 1135 l 663 1206 q 626 1089 661 1131 q 535 1047 590 1047 q 481 1058 507 1047 q 425 1089 456 1069 q 403 1101 422 1090 q 371 1113 383 1113 q 342 1095 354 1113 q 329 1047 331 1078 l 244 1047 z "},"V":{"ha":857,"x_min":22,"x_max":835,"o":"m 835 972 l 500 0 l 357 0 l 22 972 l 183 972 l 429 200 l 674 972 l 835 972 z "},"W":{"ha":1174,"x_min":36,"x_max":1136,"o":"m 1136 972 l 935 0 l 786 0 l 588 774 l 388 0 l 240 0 l 36 972 l 199 972 l 325 240 l 513 972 l 661 972 l 849 243 l 974 972 l 1136 972 z "},"Ẃ":{"ha":1174,"x_min":36,"x_max":1136,"o":"m 1136 972 l 935 0 l 786 0 l 588 774 l 388 0 l 240 0 l 36 972 l 199 972 l 325 240 l 513 972 l 661 972 l 849 243 l 974 972 l 1136 972 m 646 1258 l 785 1258 l 644 1047 l 535 1047 l 646 1258 z "},"Ŵ":{"ha":1174,"x_min":36,"x_max":1136,"o":"m 1136 972 l 935 0 l 786 0 l 588 774 l 388 0 l 240 0 l 36 972 l 199 972 l 325 240 l 513 972 l 661 972 l 849 243 l 974 972 l 1136 972 m 542 1256 l 631 1256 l 796 1047 l 676 1047 l 586 1165 l 496 1047 l 376 1047 l 542 1256 z "},"Ẅ":{"ha":1174,"x_min":36,"x_max":1136,"o":"m 1136 972 l 935 0 l 786 0 l 588 774 l 388 0 l 240 0 l 36 972 l 199 972 l 325 240 l 513 972 l 661 972 l 849 243 l 974 972 l 1136 972 m 444 1047 q 388 1069 410 1047 q 365 1125 365 1092 q 388 1181 365 1160 q 444 1203 410 1203 q 501 1181 478 1203 q 524 1125 524 1158 q 501 1069 524 1092 q 444 1047 478 1047 m 728 1047 q 672 1069 694 1047 q 649 1125 649 1092 q 672 1181 649 1158 q 728 1203 694 1203 q 785 1181 763 1203 q 807 1125 807 1160 q 785 1069 807 1092 q 728 1047 763 1047 z "},"Ẁ":{"ha":1174,"x_min":36,"x_max":1136,"o":"m 1136 972 l 935 0 l 786 0 l 588 774 l 388 0 l 240 0 l 36 972 l 199 972 l 325 240 l 513 972 l 661 972 l 849 243 l 974 972 l 1136 972 m 392 1258 l 529 1258 l 640 1047 l 531 1047 l 392 1258 z "},"X":{"ha":864,"x_min":44,"x_max":819,"o":"m 344 499 l 57 972 l 231 972 l 432 614 l 633 972 l 807 972 l 519 499 l 819 0 l 650 0 l 432 375 l 215 0 l 44 0 l 344 499 z "},"Y":{"ha":821,"x_min":22,"x_max":797,"o":"m 335 388 l 22 972 l 189 972 l 410 529 l 631 972 l 797 972 l 488 388 l 488 0 l 335 0 l 335 388 z "},"Ý":{"ha":821,"x_min":22,"x_max":797,"o":"m 335 388 l 22 972 l 189 972 l 410 529 l 631 972 l 797 972 l 488 388 l 488 0 l 335 0 l 335 388 m 469 1258 l 608 1258 l 468 1047 l 358 1047 l 469 1258 z "},"Ŷ":{"ha":821,"x_min":22,"x_max":797,"o":"m 335 388 l 22 972 l 189 972 l 410 529 l 631 972 l 797 972 l 488 388 l 488 0 l 335 0 l 335 388 m 365 1256 l 454 1256 l 619 1047 l 500 1047 l 410 1165 l 319 1047 l 200 1047 l 365 1256 z "},"Ÿ":{"ha":821,"x_min":22,"x_max":797,"o":"m 335 388 l 22 972 l 189 972 l 410 529 l 631 972 l 797 972 l 488 388 l 488 0 l 335 0 l 335 388 m 268 1047 q 211 1069 233 1047 q 189 1125 189 1092 q 211 1181 189 1160 q 268 1203 233 1203 q 324 1181 301 1203 q 347 1125 347 1158 q 324 1069 347 1092 q 268 1047 301 1047 m 551 1047 q 495 1069 518 1047 q 472 1125 472 1092 q 495 1181 472 1158 q 551 1203 518 1203 q 608 1181 586 1203 q 631 1125 631 1160 q 608 1069 631 1092 q 551 1047 586 1047 z "},"Ẏ":{"ha":821,"x_min":22,"x_max":797,"o":"m 335 388 l 22 972 l 189 972 l 410 529 l 631 972 l 797 972 l 488 388 l 488 0 l 335 0 l 335 388 m 410 1047 q 353 1069 375 1047 q 331 1125 331 1092 q 353 1181 331 1160 q 410 1203 375 1203 q 467 1181 444 1203 q 489 1125 489 1160 q 467 1069 489 1092 q 410 1047 444 1047 z "},"Ỵ":{"ha":821,"x_min":22,"x_max":797,"o":"m 335 388 l 22 972 l 189 972 l 410 529 l 631 972 l 797 972 l 488 388 l 488 0 l 335 0 l 335 388 m 410 -256 q 353 -234 375 -256 q 331 -178 331 -212 q 353 -122 331 -143 q 410 -100 375 -100 q 467 -122 444 -100 q 489 -178 489 -143 q 467 -234 489 -212 q 410 -256 444 -256 z "},"Ỳ":{"ha":821,"x_min":22,"x_max":797,"o":"m 335 388 l 22 972 l 189 972 l 410 529 l 631 972 l 797 972 l 488 388 l 488 0 l 335 0 l 335 388 m 215 1258 l 353 1258 l 464 1047 l 354 1047 l 215 1258 z "},"Ỷ":{"ha":821,"x_min":22,"x_max":797,"o":"m 335 388 l 22 972 l 189 972 l 410 529 l 631 972 l 797 972 l 488 388 l 488 0 l 335 0 l 335 388 m 357 1047 q 372 1106 357 1083 q 414 1154 386 1129 q 447 1190 436 1175 q 457 1226 457 1206 q 403 1268 457 1268 q 315 1204 350 1268 l 256 1258 q 319 1326 278 1301 q 414 1350 361 1350 q 519 1319 481 1350 q 558 1233 558 1289 q 544 1175 558 1199 q 501 1124 529 1151 q 469 1084 479 1100 q 458 1047 458 1068 l 357 1047 z "},"Ỹ":{"ha":821,"x_min":22,"x_max":797,"o":"m 335 388 l 22 972 l 189 972 l 410 529 l 631 972 l 797 972 l 488 388 l 488 0 l 335 0 l 335 388 m 196 1047 q 231 1158 196 1117 q 319 1200 265 1200 q 370 1190 346 1200 q 424 1161 394 1179 q 461 1141 447 1147 q 488 1135 475 1135 q 529 1206 525 1135 l 614 1206 q 577 1089 613 1131 q 486 1047 542 1047 q 433 1058 458 1047 q 376 1089 407 1069 q 354 1101 374 1090 q 322 1113 335 1113 q 294 1095 306 1113 q 281 1047 282 1078 l 196 1047 z "},"Z":{"ha":799,"x_min":44,"x_max":756,"o":"m 44 79 l 549 849 l 83 849 l 83 972 l 738 972 l 738 890 l 235 124 l 756 124 l 756 0 l 44 0 l 44 79 z "},"Ź":{"ha":799,"x_min":44,"x_max":756,"o":"m 44 79 l 549 849 l 83 849 l 83 972 l 738 972 l 738 890 l 235 124 l 756 124 l 756 0 l 44 0 l 44 79 m 458 1258 l 597 1258 l 457 1047 l 347 1047 l 458 1258 z "},"Ž":{"ha":799,"x_min":44,"x_max":756,"o":"m 44 79 l 549 849 l 83 849 l 83 972 l 738 972 l 738 890 l 235 124 l 756 124 l 756 0 l 44 0 l 44 79 m 189 1256 l 308 1256 l 399 1138 l 489 1256 l 608 1256 l 443 1047 l 354 1047 l 189 1256 z "},"Ż":{"ha":799,"x_min":44,"x_max":756,"o":"m 44 79 l 549 849 l 83 849 l 83 972 l 738 972 l 738 890 l 235 124 l 756 124 l 756 0 l 44 0 l 44 79 m 399 1047 q 342 1069 364 1047 q 319 1125 319 1092 q 342 1181 319 1160 q 399 1203 364 1203 q 456 1181 433 1203 q 478 1125 478 1160 q 456 1069 478 1092 q 399 1047 433 1047 z "},"Ẓ":{"ha":799,"x_min":44,"x_max":756,"o":"m 44 79 l 549 849 l 83 849 l 83 972 l 738 972 l 738 890 l 235 124 l 756 124 l 756 0 l 44 0 l 44 79 m 399 -256 q 342 -234 364 -256 q 319 -178 319 -212 q 342 -122 319 -143 q 399 -100 364 -100 q 456 -122 433 -100 q 478 -178 478 -143 q 456 -234 478 -212 q 399 -256 433 -256 z "},"a":{"ha":721,"x_min":51,"x_max":647,"o":"m 286 -14 q 165 14 218 -14 q 81 91 111 42 q 51 203 51 140 q 132 365 51 308 q 361 421 213 421 l 492 421 l 492 456 q 454 563 492 525 q 344 600 417 600 q 228 576 282 600 q 139 506 174 551 l 74 588 q 195 677 124 646 q 350 708 267 708 q 557 644 483 708 q 631 461 631 579 l 631 139 q 647 0 631 76 l 526 0 q 507 93 513 33 l 504 93 q 286 -14 425 -14 m 313 93 q 440 134 388 93 q 492 233 492 175 l 492 325 l 356 325 q 230 294 274 325 q 186 203 186 263 q 220 122 186 151 q 313 93 254 93 z "},"á":{"ha":721,"x_min":51,"x_max":647,"o":"m 286 -14 q 165 14 218 -14 q 81 91 111 42 q 51 203 51 140 q 132 365 51 308 q 361 421 213 421 l 492 421 l 492 456 q 454 563 492 525 q 344 600 417 600 q 228 576 282 600 q 139 506 174 551 l 74 588 q 195 677 124 646 q 350 708 267 708 q 557 644 483 708 q 631 461 631 579 l 631 139 q 647 0 631 76 l 526 0 q 507 93 513 33 l 504 93 q 286 -14 425 -14 m 313 93 q 440 134 388 93 q 492 233 492 175 l 492 325 l 356 325 q 230 294 274 325 q 186 203 186 263 q 220 122 186 151 q 313 93 254 93 m 415 981 l 554 981 l 414 769 l 304 769 l 415 981 z "},"ă":{"ha":721,"x_min":51,"x_max":647,"o":"m 286 -14 q 165 14 218 -14 q 81 91 111 42 q 51 203 51 140 q 132 365 51 308 q 361 421 213 421 l 492 421 l 492 456 q 454 563 492 525 q 344 600 417 600 q 228 576 282 600 q 139 506 174 551 l 74 588 q 195 677 124 646 q 350 708 267 708 q 557 644 483 708 q 631 461 631 579 l 631 139 q 647 0 631 76 l 526 0 q 507 93 513 33 l 504 93 q 286 -14 425 -14 m 313 93 q 440 134 388 93 q 492 233 492 175 l 492 325 l 356 325 q 230 294 274 325 q 186 203 186 263 q 220 122 186 151 q 313 93 254 93 m 356 769 q 204 819 260 769 q 146 964 149 868 l 236 964 q 269 888 239 915 q 356 860 299 860 q 440 886 408 860 q 475 964 472 913 l 565 964 q 510 820 563 871 q 356 769 457 769 z "},"ắ":{"ha":721,"x_min":51,"x_max":647,"o":"m 286 -14 q 165 14 218 -14 q 81 91 111 42 q 51 203 51 140 q 132 365 51 308 q 361 421 213 421 l 492 421 l 492 456 q 454 563 492 525 q 344 600 417 600 q 228 576 282 600 q 139 506 174 551 l 74 588 q 195 677 124 646 q 350 708 267 708 q 557 644 483 708 q 631 461 631 579 l 631 139 q 647 0 631 76 l 526 0 q 507 93 513 33 l 504 93 q 286 -14 425 -14 m 313 93 q 440 134 388 93 q 492 233 492 175 l 492 325 l 356 325 q 230 294 274 325 q 186 203 186 263 q 220 122 186 151 q 313 93 254 93 m 374 1143 l 483 1143 l 392 992 l 304 992 l 374 1143 m 356 769 q 204 819 260 769 q 146 964 149 868 l 236 964 q 269 888 239 915 q 356 860 299 860 q 440 886 408 860 q 475 964 472 913 l 565 964 q 510 820 563 871 q 356 769 457 769 z "},"ặ":{"ha":721,"x_min":51,"x_max":647,"o":"m 286 -14 q 165 14 218 -14 q 81 91 111 42 q 51 203 51 140 q 132 365 51 308 q 361 421 213 421 l 492 421 l 492 456 q 454 563 492 525 q 344 600 417 600 q 228 576 282 600 q 139 506 174 551 l 74 588 q 195 677 124 646 q 350 708 267 708 q 557 644 483 708 q 631 461 631 579 l 631 139 q 647 0 631 76 l 526 0 q 507 93 513 33 l 504 93 q 286 -14 425 -14 m 313 93 q 440 134 388 93 q 492 233 492 175 l 492 325 l 356 325 q 230 294 274 325 q 186 203 186 263 q 220 122 186 151 q 313 93 254 93 m 358 -256 q 301 -234 324 -256 q 279 -178 279 -212 q 301 -122 279 -143 q 358 -100 324 -100 q 415 -122 393 -100 q 438 -178 438 -143 q 415 -234 438 -212 q 358 -256 393 -256 m 356 769 q 204 819 260 769 q 146 964 149 868 l 236 964 q 269 888 239 915 q 356 860 299 860 q 440 886 408 860 q 475 964 472 913 l 565 964 q 510 820 563 871 q 356 769 457 769 z "},"ằ":{"ha":721,"x_min":51,"x_max":647,"o":"m 286 -14 q 165 14 218 -14 q 81 91 111 42 q 51 203 51 140 q 132 365 51 308 q 361 421 213 421 l 492 421 l 492 456 q 454 563 492 525 q 344 600 417 600 q 228 576 282 600 q 139 506 174 551 l 74 588 q 195 677 124 646 q 350 708 267 708 q 557 644 483 708 q 631 461 631 579 l 631 139 q 647 0 631 76 l 526 0 q 507 93 513 33 l 504 93 q 286 -14 425 -14 m 313 93 q 440 134 388 93 q 492 233 492 175 l 492 325 l 356 325 q 230 294 274 325 q 186 203 186 263 q 220 122 186 151 q 313 93 254 93 m 218 1143 l 328 1143 l 397 992 l 308 992 l 218 1143 m 356 769 q 204 819 260 769 q 146 964 149 868 l 236 964 q 269 888 239 915 q 356 860 299 860 q 440 886 408 860 q 475 964 472 913 l 565 964 q 510 820 563 871 q 356 769 457 769 z "},"ẳ":{"ha":721,"x_min":51,"x_max":647,"o":"m 286 -14 q 165 14 218 -14 q 81 91 111 42 q 51 203 51 140 q 132 365 51 308 q 361 421 213 421 l 492 421 l 492 456 q 454 563 492 525 q 344 600 417 600 q 228 576 282 600 q 139 506 174 551 l 74 588 q 195 677 124 646 q 350 708 267 708 q 557 644 483 708 q 631 461 631 579 l 631 139 q 647 0 631 76 l 526 0 q 507 93 513 33 l 504 93 q 286 -14 425 -14 m 313 93 q 440 134 388 93 q 492 233 492 175 l 492 325 l 356 325 q 230 294 274 325 q 186 203 186 263 q 220 122 186 151 q 313 93 254 93 m 315 983 q 328 1033 315 1015 q 367 1071 342 1051 q 394 1097 386 1086 q 403 1122 403 1107 q 391 1145 403 1136 q 358 1154 379 1154 q 318 1144 338 1154 q 286 1114 299 1133 l 243 1154 q 294 1201 261 1183 q 367 1219 328 1219 q 444 1194 414 1219 q 475 1126 475 1168 q 464 1083 475 1099 q 431 1046 453 1067 q 401 1017 410 1029 q 390 983 392 1004 l 315 983 m 356 769 q 204 819 260 769 q 146 964 149 868 l 236 964 q 269 888 239 915 q 356 860 299 860 q 440 886 408 860 q 475 964 472 913 l 565 964 q 510 820 563 871 q 356 769 457 769 z "},"ẵ":{"ha":721,"x_min":51,"x_max":647,"o":"m 286 -14 q 165 14 218 -14 q 81 91 111 42 q 51 203 51 140 q 132 365 51 308 q 361 421 213 421 l 492 421 l 492 456 q 454 563 492 525 q 344 600 417 600 q 228 576 282 600 q 139 506 174 551 l 74 588 q 195 677 124 646 q 350 708 267 708 q 557 644 483 708 q 631 461 631 579 l 631 139 q 647 0 631 76 l 526 0 q 507 93 513 33 l 504 93 q 286 -14 425 -14 m 313 93 q 440 134 388 93 q 492 233 492 175 l 492 325 l 356 325 q 230 294 274 325 q 186 203 186 263 q 220 122 186 151 q 313 93 254 93 m 428 1018 q 385 1027 406 1018 q 340 1053 365 1036 q 305 1073 318 1067 q 278 1079 292 1079 q 247 1065 260 1079 q 228 1025 233 1051 l 161 1025 q 202 1117 172 1083 q 281 1151 232 1151 q 324 1143 304 1151 q 372 1118 344 1135 q 410 1099 394 1106 q 439 1092 425 1092 q 489 1150 478 1092 l 553 1150 q 512 1053 544 1088 q 428 1018 479 1018 m 356 769 q 204 819 260 769 q 146 964 149 868 l 236 964 q 269 888 239 915 q 356 860 299 860 q 440 886 408 860 q 475 964 472 913 l 565 964 q 510 820 563 871 q 356 769 457 769 z "},"ǎ":{"ha":721,"x_min":51,"x_max":647,"o":"m 286 -14 q 165 14 218 -14 q 81 91 111 42 q 51 203 51 140 q 132 365 51 308 q 361 421 213 421 l 492 421 l 492 456 q 454 563 492 525 q 344 600 417 600 q 228 576 282 600 q 139 506 174 551 l 74 588 q 195 677 124 646 q 350 708 267 708 q 557 644 483 708 q 631 461 631 579 l 631 139 q 647 0 631 76 l 526 0 q 507 93 513 33 l 504 93 q 286 -14 425 -14 m 313 93 q 440 134 388 93 q 492 233 492 175 l 492 325 l 356 325 q 230 294 274 325 q 186 203 186 263 q 220 122 186 151 q 313 93 254 93 m 146 978 l 265 978 l 356 860 l 446 978 l 565 978 l 400 769 l 311 769 l 146 978 z "},"â":{"ha":721,"x_min":51,"x_max":647,"o":"m 286 -14 q 165 14 218 -14 q 81 91 111 42 q 51 203 51 140 q 132 365 51 308 q 361 421 213 421 l 492 421 l 492 456 q 454 563 492 525 q 344 600 417 600 q 228 576 282 600 q 139 506 174 551 l 74 588 q 195 677 124 646 q 350 708 267 708 q 557 644 483 708 q 631 461 631 579 l 631 139 q 647 0 631 76 l 526 0 q 507 93 513 33 l 504 93 q 286 -14 425 -14 m 313 93 q 440 134 388 93 q 492 233 492 175 l 492 325 l 356 325 q 230 294 274 325 q 186 203 186 263 q 220 122 186 151 q 313 93 254 93 m 311 978 l 400 978 l 565 769 l 446 769 l 356 888 l 265 769 l 146 769 l 311 978 z "},"ấ":{"ha":721,"x_min":51,"x_max":660,"o":"m 286 -14 q 165 14 218 -14 q 81 91 111 42 q 51 203 51 140 q 132 365 51 308 q 361 421 213 421 l 492 421 l 492 456 q 454 563 492 525 q 344 600 417 600 q 228 576 282 600 q 139 506 174 551 l 74 588 q 195 677 124 646 q 350 708 267 708 q 557 644 483 708 q 631 461 631 579 l 631 139 q 647 0 631 76 l 526 0 q 507 93 513 33 l 504 93 q 286 -14 425 -14 m 313 93 q 440 134 388 93 q 492 233 492 175 l 492 325 l 356 325 q 230 294 274 325 q 186 203 186 263 q 220 122 186 151 q 313 93 254 93 m 553 1088 l 660 1088 l 572 942 l 488 942 l 553 1088 m 311 978 l 399 978 l 565 769 l 444 769 l 356 888 l 265 769 l 146 769 l 311 978 z "},"ậ":{"ha":721,"x_min":51,"x_max":647,"o":"m 286 -14 q 165 14 218 -14 q 81 91 111 42 q 51 203 51 140 q 132 365 51 308 q 361 421 213 421 l 492 421 l 492 456 q 454 563 492 525 q 344 600 417 600 q 228 576 282 600 q 139 506 174 551 l 74 588 q 195 677 124 646 q 350 708 267 708 q 557 644 483 708 q 631 461 631 579 l 631 139 q 647 0 631 76 l 526 0 q 507 93 513 33 l 504 93 q 286 -14 425 -14 m 313 93 q 440 134 388 93 q 492 233 492 175 l 492 325 l 356 325 q 230 294 274 325 q 186 203 186 263 q 220 122 186 151 q 313 93 254 93 m 358 -256 q 301 -234 324 -256 q 279 -178 279 -212 q 301 -122 279 -143 q 358 -100 324 -100 q 415 -122 393 -100 q 438 -178 438 -143 q 415 -234 438 -212 q 358 -256 393 -256 m 311 978 l 400 978 l 565 769 l 446 769 l 356 888 l 265 769 l 146 769 l 311 978 z "},"ầ":{"ha":721,"x_min":51,"x_max":647,"o":"m 286 -14 q 165 14 218 -14 q 81 91 111 42 q 51 203 51 140 q 132 365 51 308 q 361 421 213 421 l 492 421 l 492 456 q 454 563 492 525 q 344 600 417 600 q 228 576 282 600 q 139 506 174 551 l 74 588 q 195 677 124 646 q 350 708 267 708 q 557 644 483 708 q 631 461 631 579 l 631 139 q 647 0 631 76 l 526 0 q 507 93 513 33 l 504 93 q 286 -14 425 -14 m 313 93 q 440 134 388 93 q 492 233 492 175 l 492 325 l 356 325 q 230 294 274 325 q 186 203 186 263 q 220 122 186 151 q 313 93 254 93 m 446 1088 l 553 1088 l 618 942 l 533 942 l 446 1088 m 311 978 l 399 978 l 565 769 l 444 769 l 356 888 l 265 769 l 146 769 l 311 978 z "},"ẩ":{"ha":721,"x_min":51,"x_max":689,"o":"m 286 -14 q 165 14 218 -14 q 81 91 111 42 q 51 203 51 140 q 132 365 51 308 q 361 421 213 421 l 492 421 l 492 456 q 454 563 492 525 q 344 600 417 600 q 228 576 282 600 q 139 506 174 551 l 74 588 q 195 677 124 646 q 350 708 267 708 q 557 644 483 708 q 631 461 631 579 l 631 139 q 647 0 631 76 l 526 0 q 507 93 513 33 l 504 93 q 286 -14 425 -14 m 313 93 q 440 134 388 93 q 492 233 492 175 l 492 325 l 356 325 q 230 294 274 325 q 186 203 186 263 q 220 122 186 151 q 313 93 254 93 m 529 928 q 542 978 529 960 q 579 1015 556 997 q 606 1040 597 1029 q 614 1065 614 1050 q 603 1089 614 1081 q 572 1097 592 1097 q 532 1086 551 1097 q 500 1056 513 1075 l 454 1099 q 508 1146 474 1128 q 581 1164 542 1164 q 659 1139 629 1164 q 689 1069 689 1114 q 678 1026 689 1043 q 644 992 667 1010 q 615 960 624 972 q 604 928 606 947 l 529 928 m 311 978 l 399 978 l 565 769 l 444 769 l 356 888 l 265 769 l 146 769 l 311 978 z "},"ẫ":{"ha":721,"x_min":51,"x_max":647,"o":"m 286 -14 q 165 14 218 -14 q 81 91 111 42 q 51 203 51 140 q 132 365 51 308 q 361 421 213 421 l 492 421 l 492 456 q 454 563 492 525 q 344 600 417 600 q 228 576 282 600 q 139 506 174 551 l 74 588 q 195 677 124 646 q 350 708 267 708 q 557 644 483 708 q 631 461 631 579 l 631 139 q 647 0 631 76 l 526 0 q 507 93 513 33 l 504 93 q 286 -14 425 -14 m 313 93 q 440 134 388 93 q 492 233 492 175 l 492 325 l 356 325 q 230 294 274 325 q 186 203 186 263 q 220 122 186 151 q 313 93 254 93 m 426 1021 q 386 1030 406 1021 q 342 1056 367 1039 q 305 1077 318 1071 q 278 1083 292 1083 q 228 1028 240 1083 l 161 1028 q 202 1121 172 1088 q 281 1154 232 1154 q 324 1146 303 1154 q 374 1121 346 1138 q 392 1111 378 1119 q 417 1099 406 1103 q 439 1096 429 1096 q 489 1153 478 1096 l 553 1153 q 511 1056 544 1090 q 426 1021 478 1021 m 311 978 l 399 978 l 565 769 l 444 769 l 356 888 l 265 769 l 146 769 l 311 978 z "},"ä":{"ha":721,"x_min":51,"x_max":647,"o":"m 286 -14 q 165 14 218 -14 q 81 91 111 42 q 51 203 51 140 q 132 365 51 308 q 361 421 213 421 l 492 421 l 492 456 q 454 563 492 525 q 344 600 417 600 q 228 576 282 600 q 139 506 174 551 l 74 588 q 195 677 124 646 q 350 708 267 708 q 557 644 483 708 q 631 461 631 579 l 631 139 q 647 0 631 76 l 526 0 q 507 93 513 33 l 504 93 q 286 -14 425 -14 m 313 93 q 440 134 388 93 q 492 233 492 175 l 492 325 l 356 325 q 230 294 274 325 q 186 203 186 263 q 220 122 186 151 q 313 93 254 93 m 214 769 q 157 792 179 769 q 135 847 135 814 q 157 903 135 882 q 214 925 179 925 q 270 903 247 925 q 293 847 293 881 q 270 792 293 814 q 214 769 247 769 m 497 769 q 441 792 464 769 q 418 847 418 814 q 441 903 418 881 q 497 925 464 925 q 554 903 532 925 q 576 847 576 882 q 554 792 576 814 q 497 769 532 769 z "},"ạ":{"ha":721,"x_min":51,"x_max":647,"o":"m 286 -14 q 165 14 218 -14 q 81 91 111 42 q 51 203 51 140 q 132 365 51 308 q 361 421 213 421 l 492 421 l 492 456 q 454 563 492 525 q 344 600 417 600 q 228 576 282 600 q 139 506 174 551 l 74 588 q 195 677 124 646 q 350 708 267 708 q 557 644 483 708 q 631 461 631 579 l 631 139 q 647 0 631 76 l 526 0 q 507 93 513 33 l 504 93 q 286 -14 425 -14 m 313 93 q 440 134 388 93 q 492 233 492 175 l 492 325 l 356 325 q 230 294 274 325 q 186 203 186 263 q 220 122 186 151 q 313 93 254 93 m 358 -256 q 301 -234 324 -256 q 279 -178 279 -212 q 301 -122 279 -143 q 358 -100 324 -100 q 415 -122 393 -100 q 438 -178 438 -143 q 415 -234 438 -212 q 358 -256 393 -256 z "},"à":{"ha":721,"x_min":51,"x_max":647,"o":"m 286 -14 q 165 14 218 -14 q 81 91 111 42 q 51 203 51 140 q 132 365 51 308 q 361 421 213 421 l 492 421 l 492 456 q 454 563 492 525 q 344 600 417 600 q 228 576 282 600 q 139 506 174 551 l 74 588 q 195 677 124 646 q 350 708 267 708 q 557 644 483 708 q 631 461 631 579 l 631 139 q 647 0 631 76 l 526 0 q 507 93 513 33 l 504 93 q 286 -14 425 -14 m 313 93 q 440 134 388 93 q 492 233 492 175 l 492 325 l 356 325 q 230 294 274 325 q 186 203 186 263 q 220 122 186 151 q 313 93 254 93 m 161 981 l 299 981 l 410 769 l 300 769 l 161 981 z "},"ả":{"ha":721,"x_min":51,"x_max":647,"o":"m 286 -14 q 165 14 218 -14 q 81 91 111 42 q 51 203 51 140 q 132 365 51 308 q 361 421 213 421 l 492 421 l 492 456 q 454 563 492 525 q 344 600 417 600 q 228 576 282 600 q 139 506 174 551 l 74 588 q 195 677 124 646 q 350 708 267 708 q 557 644 483 708 q 631 461 631 579 l 631 139 q 647 0 631 76 l 526 0 q 507 93 513 33 l 504 93 q 286 -14 425 -14 m 313 93 q 440 134 388 93 q 492 233 492 175 l 492 325 l 356 325 q 230 294 274 325 q 186 203 186 263 q 220 122 186 151 q 313 93 254 93 m 303 769 q 317 828 303 806 q 360 876 332 851 q 392 913 382 897 q 403 949 403 928 q 349 990 403 990 q 261 926 296 990 l 201 981 q 265 1048 224 1024 q 360 1072 307 1072 q 465 1042 426 1072 q 504 956 504 1011 q 490 897 504 921 q 447 846 475 874 q 415 806 425 822 q 404 769 404 790 l 303 769 z "},"ɑ":{"ha":747,"x_min":44,"x_max":669,"o":"m 329 -14 q 120 87 196 -14 q 44 360 44 188 q 122 614 44 519 q 332 708 200 708 q 526 608 458 708 l 529 608 l 529 694 l 665 694 l 665 178 q 669 0 665 46 l 543 0 q 540 104 539 60 l 538 104 q 451 17 507 49 q 329 -14 394 -14 m 353 94 q 481 144 433 94 q 529 278 529 193 l 529 410 q 481 550 529 496 q 353 604 432 604 q 225 539 269 604 q 181 357 181 474 q 225 164 181 233 q 353 94 269 94 z "},"ā":{"ha":721,"x_min":51,"x_max":647,"o":"m 286 -14 q 165 14 218 -14 q 81 91 111 42 q 51 203 51 140 q 132 365 51 308 q 361 421 213 421 l 492 421 l 492 456 q 454 563 492 525 q 344 600 417 600 q 228 576 282 600 q 139 506 174 551 l 74 588 q 195 677 124 646 q 350 708 267 708 q 557 644 483 708 q 631 461 631 579 l 631 139 q 647 0 631 76 l 526 0 q 507 93 513 33 l 504 93 q 286 -14 425 -14 m 313 93 q 440 134 388 93 q 492 233 492 175 l 492 325 l 356 325 q 230 294 274 325 q 186 203 186 263 q 220 122 186 151 q 313 93 254 93 m 132 881 l 579 881 l 579 788 l 132 788 l 132 881 z "},"ą":{"ha":721,"x_min":51,"x_max":689,"o":"m 689 -257 q 630 -292 665 -279 q 556 -304 594 -304 q 451 -271 489 -304 q 413 -172 413 -237 q 536 0 413 -67 l 526 0 q 507 93 513 33 l 504 93 q 286 -14 425 -14 q 165 14 218 -14 q 81 91 111 42 q 51 203 51 140 q 132 365 51 308 q 361 421 213 421 l 492 421 l 492 456 q 454 563 492 525 q 344 600 417 600 q 228 576 282 600 q 139 506 174 551 l 74 588 q 195 677 124 646 q 350 708 267 708 q 557 644 483 708 q 631 461 631 579 l 631 139 q 647 0 631 76 l 629 0 q 513 -154 513 -81 q 532 -199 513 -182 q 593 -215 551 -215 q 669 -196 624 -215 l 689 -257 m 492 325 l 356 325 q 230 294 274 325 q 186 203 186 263 q 220 122 186 151 q 313 93 254 93 q 440 134 388 93 q 492 233 492 175 l 492 325 z "},"å":{"ha":721,"x_min":51,"x_max":647,"o":"m 286 -14 q 165 14 218 -14 q 81 91 111 42 q 51 203 51 140 q 132 365 51 308 q 361 421 213 421 l 492 421 l 492 456 q 454 563 492 525 q 344 600 417 600 q 228 576 282 600 q 139 506 174 551 l 74 588 q 195 677 124 646 q 350 708 267 708 q 557 644 483 708 q 631 461 631 579 l 631 139 q 647 0 631 76 l 526 0 q 507 93 513 33 l 504 93 q 286 -14 425 -14 m 313 93 q 440 134 388 93 q 492 233 492 175 l 492 325 l 356 325 q 230 294 274 325 q 186 203 186 263 q 220 122 186 151 q 313 93 254 93 m 356 753 q 257 789 296 753 q 218 882 218 825 q 257 975 218 939 q 356 1011 296 1011 q 454 975 415 1011 q 493 882 493 939 q 454 789 493 825 q 356 753 415 753 m 356 811 q 406 831 386 811 q 425 882 425 851 q 406 933 425 913 q 356 953 386 953 q 306 933 325 953 q 286 882 286 913 q 306 831 286 851 q 356 811 325 811 z "},"ǻ":{"ha":721,"x_min":51,"x_max":647,"o":"m 385 1199 l 506 1199 l 411 1053 l 311 1053 l 385 1199 m 356 753 q 258 789 296 753 q 219 882 219 825 q 258 975 219 939 q 356 1011 296 1011 q 455 975 417 1011 q 493 882 493 939 q 455 789 493 825 q 356 753 417 753 m 356 811 q 406 831 386 811 q 425 882 425 851 q 406 933 425 913 q 356 953 386 953 q 306 933 325 953 q 288 882 288 914 q 306 831 288 851 q 356 811 325 811 m 286 -14 q 165 14 218 -14 q 81 91 111 42 q 51 203 51 140 q 132 365 51 308 q 361 421 213 421 l 492 421 l 492 456 q 454 563 492 525 q 344 600 417 600 q 228 576 282 600 q 139 506 174 551 l 74 588 q 195 677 124 646 q 350 708 267 708 q 557 644 483 708 q 631 461 631 579 l 631 139 q 647 0 631 76 l 526 0 q 507 93 513 33 l 504 93 q 286 -14 425 -14 m 313 93 q 440 134 388 93 q 492 233 492 175 l 492 325 l 356 325 q 230 294 274 325 q 186 203 186 263 q 220 122 186 151 q 313 93 254 93 z "},"ã":{"ha":721,"x_min":51,"x_max":647,"o":"m 286 -14 q 165 14 218 -14 q 81 91 111 42 q 51 203 51 140 q 132 365 51 308 q 361 421 213 421 l 492 421 l 492 456 q 454 563 492 525 q 344 600 417 600 q 228 576 282 600 q 139 506 174 551 l 74 588 q 195 677 124 646 q 350 708 267 708 q 557 644 483 708 q 631 461 631 579 l 631 139 q 647 0 631 76 l 526 0 q 507 93 513 33 l 504 93 q 286 -14 425 -14 m 313 93 q 440 134 388 93 q 492 233 492 175 l 492 325 l 356 325 q 230 294 274 325 q 186 203 186 263 q 220 122 186 151 q 313 93 254 93 m 142 769 q 176 881 142 839 q 265 922 211 922 q 316 912 292 922 q 369 883 340 901 q 407 863 393 869 q 433 857 421 857 q 475 928 471 857 l 560 928 q 523 811 558 853 q 432 769 488 769 q 378 781 404 769 q 322 811 353 792 q 300 824 319 813 q 268 835 281 835 q 240 817 251 835 q 226 769 228 800 l 142 769 z "},"æ":{"ha":1149,"x_min":51,"x_max":1101,"o":"m 1101 315 l 617 315 q 672 157 624 211 q 810 103 721 103 q 915 126 869 103 q 1001 199 961 150 l 1076 125 q 965 23 1038 60 q 803 -14 892 -14 q 660 14 724 -14 q 556 96 597 42 q 444 16 511 46 q 303 -14 378 -14 q 121 45 190 -14 q 51 199 51 104 q 124 356 51 301 q 336 411 197 411 l 479 411 l 479 456 q 443 563 479 526 q 338 600 407 600 q 224 576 275 600 q 138 506 172 551 l 72 588 q 191 678 122 647 q 343 708 260 708 q 477 684 419 708 q 569 614 535 660 q 800 708 656 708 q 1023 619 944 708 q 1101 365 1101 531 l 1101 315 m 967 418 q 923 550 967 504 q 796 596 879 596 q 676 548 722 596 q 619 411 631 500 l 967 411 l 967 418 m 479 315 l 349 315 q 227 285 269 315 q 185 199 185 254 q 218 122 185 150 q 307 93 251 93 q 429 134 379 93 q 479 233 479 175 l 479 315 z "},"ǽ":{"ha":1149,"x_min":51,"x_max":1101,"o":"m 1101 315 l 617 315 q 672 157 624 211 q 810 103 721 103 q 915 126 869 103 q 1001 199 961 150 l 1076 125 q 965 23 1038 60 q 803 -14 892 -14 q 660 14 724 -14 q 556 96 597 42 q 444 16 511 46 q 303 -14 378 -14 q 121 45 190 -14 q 51 199 51 104 q 124 356 51 301 q 336 411 197 411 l 479 411 l 479 456 q 443 563 479 526 q 338 600 407 600 q 224 576 275 600 q 138 506 172 551 l 72 588 q 191 678 122 647 q 343 708 260 708 q 477 684 419 708 q 569 614 535 660 q 800 708 656 708 q 1023 619 944 708 q 1101 365 1101 531 l 1101 315 m 967 418 q 923 550 967 504 q 796 596 879 596 q 676 548 722 596 q 619 411 631 500 l 967 411 l 967 418 m 479 315 l 349 315 q 227 285 269 315 q 185 199 185 254 q 218 122 185 150 q 307 93 251 93 q 429 134 379 93 q 479 233 479 175 l 479 315 m 636 981 l 775 981 l 635 769 l 525 769 l 636 981 z "},"b":{"ha":760,"x_min":78,"x_max":717,"o":"m 424 -14 q 300 19 360 -14 q 210 104 240 51 l 207 104 q 206 0 208 71 l 78 0 q 82 178 82 44 l 82 1031 l 219 1031 l 219 608 l 222 608 q 429 708 288 708 q 640 615 563 708 q 717 360 717 522 q 638 86 717 186 q 424 -14 560 -14 m 401 94 q 532 164 485 94 q 579 357 579 233 q 533 540 579 475 q 401 604 486 604 q 270 550 321 604 q 219 410 219 496 l 219 278 q 269 144 219 193 q 401 94 318 94 z "},"c":{"ha":665,"x_min":44,"x_max":643,"o":"m 376 -14 q 132 82 219 -14 q 44 347 44 178 q 132 613 44 518 q 376 708 219 708 q 535 674 467 708 q 643 574 604 639 l 561 500 q 485 574 532 547 q 382 600 438 600 q 235 533 288 600 q 182 347 182 467 q 235 162 182 229 q 382 94 288 94 q 485 121 438 94 q 561 194 532 147 l 643 121 q 535 21 604 56 q 376 -14 467 -14 z "},"ć":{"ha":665,"x_min":44,"x_max":643,"o":"m 376 -14 q 132 82 219 -14 q 44 347 44 178 q 132 613 44 518 q 376 708 219 708 q 535 674 467 708 q 643 574 604 639 l 561 500 q 485 574 532 547 q 382 600 438 600 q 235 533 288 600 q 182 347 182 467 q 235 162 182 229 q 382 94 288 94 q 485 121 438 94 q 561 194 532 147 l 643 121 q 535 21 604 56 q 376 -14 467 -14 m 442 981 l 581 981 l 440 769 l 331 769 l 442 981 z "},"č":{"ha":665,"x_min":44,"x_max":643,"o":"m 376 -14 q 132 82 219 -14 q 44 347 44 178 q 132 613 44 518 q 376 708 219 708 q 535 674 467 708 q 643 574 604 639 l 561 500 q 485 574 532 547 q 382 600 438 600 q 235 533 288 600 q 182 347 182 467 q 235 162 182 229 q 382 94 288 94 q 485 121 438 94 q 561 194 532 147 l 643 121 q 535 21 604 56 q 376 -14 467 -14 m 172 978 l 292 978 l 382 860 l 472 978 l 592 978 l 426 769 l 338 769 l 172 978 z "},"ç":{"ha":665,"x_min":44,"x_max":643,"o":"m 382 94 q 485 121 438 94 q 561 194 532 147 l 643 121 q 553 31 610 64 q 424 -11 497 -3 l 382 -87 q 475 -115 440 -87 q 510 -189 510 -142 q 469 -281 510 -246 q 360 -317 428 -317 q 297 -310 329 -317 q 246 -294 264 -304 l 260 -233 q 342 -246 300 -246 q 393 -232 374 -246 q 413 -193 413 -218 q 385 -156 413 -169 q 311 -144 358 -143 l 279 -108 l 333 -12 q 120 96 196 1 q 44 347 44 190 q 132 613 44 518 q 376 708 219 708 q 535 674 467 708 q 643 574 604 639 l 561 500 q 485 574 532 547 q 382 600 438 600 q 235 533 288 600 q 182 347 182 467 q 235 162 182 229 q 382 94 288 94 z "},"ĉ":{"ha":665,"x_min":44,"x_max":643,"o":"m 376 -14 q 132 82 219 -14 q 44 347 44 178 q 132 613 44 518 q 376 708 219 708 q 535 674 467 708 q 643 574 604 639 l 561 500 q 485 574 532 547 q 382 600 438 600 q 235 533 288 600 q 182 347 182 467 q 235 162 182 229 q 382 94 288 94 q 485 121 438 94 q 561 194 532 147 l 643 121 q 535 21 604 56 q 376 -14 467 -14 m 338 978 l 426 978 l 592 769 l 472 769 l 382 888 l 292 769 l 172 769 l 338 978 z "},"ċ":{"ha":665,"x_min":44,"x_max":643,"o":"m 376 -14 q 132 82 219 -14 q 44 347 44 178 q 132 613 44 518 q 376 708 219 708 q 535 674 467 708 q 643 574 604 639 l 561 500 q 485 574 532 547 q 382 600 438 600 q 235 533 288 600 q 182 347 182 467 q 235 162 182 229 q 382 94 288 94 q 485 121 438 94 q 561 194 532 147 l 643 121 q 535 21 604 56 q 376 -14 467 -14 m 382 769 q 325 792 347 769 q 303 847 303 814 q 325 903 303 882 q 382 925 347 925 q 439 903 417 925 q 461 847 461 882 q 439 792 461 814 q 382 769 417 769 z "},"d":{"ha":760,"x_min":44,"x_max":683,"o":"m 336 -14 q 122 86 200 -14 q 44 360 44 186 q 81 544 44 465 q 183 665 117 622 q 339 708 250 708 q 539 608 464 708 l 542 608 l 542 1031 l 679 1031 l 679 178 q 683 0 679 44 l 556 0 q 553 104 553 31 l 550 104 q 460 19 518 51 q 336 -14 401 -14 m 358 94 q 492 144 442 94 q 542 278 542 193 l 542 410 q 491 550 542 496 q 358 604 440 604 q 228 540 275 604 q 182 357 182 475 q 228 164 182 233 q 358 94 275 94 z "},"ð":{"ha":699,"x_min":49,"x_max":651,"o":"m 439 821 q 595 611 539 733 q 651 351 651 489 q 613 158 651 240 q 505 31 575 75 q 342 -14 435 -14 q 189 25 256 -14 q 85 134 122 64 q 49 296 49 204 q 85 461 49 388 q 188 576 122 535 q 338 617 254 617 q 415 602 378 617 q 478 561 453 588 q 344 760 436 676 l 168 646 l 115 724 l 264 821 q 99 889 192 868 l 110 972 q 358 882 243 954 l 521 988 l 572 907 l 439 821 m 349 97 q 472 153 426 97 q 518 301 518 208 q 472 453 518 397 q 349 510 426 510 q 228 453 272 510 q 185 301 185 397 q 228 152 185 207 q 349 97 272 97 z "},"ď":{"ha":957,"x_min":44,"x_max":944,"o":"m 336 -14 q 122 86 200 -14 q 44 360 44 186 q 81 544 44 465 q 183 665 117 622 q 339 708 250 708 q 539 608 464 708 l 542 608 l 542 1031 l 679 1031 l 679 178 q 683 0 679 44 l 556 0 q 553 104 553 31 l 550 104 q 460 19 518 51 q 336 -14 401 -14 m 358 94 q 492 144 442 94 q 542 278 542 193 l 542 410 q 491 550 542 496 q 358 604 440 604 q 228 540 275 604 q 182 357 182 475 q 228 164 182 233 q 358 94 275 94 m 851 1061 q 919 1033 894 1061 q 944 963 944 1006 q 919 859 944 914 q 850 764 893 804 l 793 806 q 824 849 808 825 q 847 896 839 874 q 790 919 813 897 q 768 976 768 942 q 791 1038 768 1014 q 851 1061 814 1061 z "},"đ":{"ha":788,"x_min":44,"x_max":760,"o":"m 679 826 l 679 178 q 683 0 679 44 l 556 0 q 553 104 553 31 l 550 104 q 460 19 518 51 q 336 -14 401 -14 q 122 86 200 -14 q 44 360 44 186 q 81 544 44 465 q 183 665 117 622 q 339 708 250 708 q 539 608 464 708 l 542 608 l 542 826 l 344 826 l 344 919 l 542 919 l 542 1031 l 679 1031 l 679 919 l 760 919 l 760 826 l 679 826 m 542 410 q 491 550 542 496 q 358 604 440 604 q 228 540 275 604 q 182 357 182 475 q 228 164 182 233 q 358 94 275 94 q 492 144 442 94 q 542 278 542 193 l 542 410 z "},"ḍ":{"ha":760,"x_min":44,"x_max":683,"o":"m 336 -14 q 122 86 200 -14 q 44 360 44 186 q 81 544 44 465 q 183 665 117 622 q 339 708 250 708 q 539 608 464 708 l 542 608 l 542 1031 l 679 1031 l 679 178 q 683 0 679 44 l 556 0 q 553 104 553 31 l 550 104 q 460 19 518 51 q 336 -14 401 -14 m 358 94 q 492 144 442 94 q 542 278 542 193 l 542 410 q 491 550 542 496 q 358 604 440 604 q 228 540 275 604 q 182 357 182 475 q 228 164 182 233 q 358 94 275 94 m 389 -256 q 332 -234 354 -256 q 310 -178 310 -212 q 332 -122 310 -143 q 389 -100 354 -100 q 446 -122 424 -100 q 468 -178 468 -143 q 446 -234 468 -212 q 389 -256 424 -256 z "},"ḏ":{"ha":760,"x_min":44,"x_max":683,"o":"m 336 -14 q 122 86 200 -14 q 44 360 44 186 q 81 544 44 465 q 183 665 117 622 q 339 708 250 708 q 539 608 464 708 l 542 608 l 542 1031 l 679 1031 l 679 178 q 683 0 679 44 l 556 0 q 553 104 553 31 l 550 104 q 460 19 518 51 q 336 -14 401 -14 m 358 94 q 492 144 442 94 q 542 278 542 193 l 542 410 q 491 550 542 496 q 358 604 440 604 q 228 540 275 604 q 182 357 182 475 q 228 164 182 233 q 358 94 275 94 m 165 -93 l 613 -93 l 613 -186 l 165 -186 l 165 -93 z "},"e":{"ha":731,"x_min":49,"x_max":683,"o":"m 683 294 l 189 294 q 249 151 200 200 q 385 103 299 103 q 582 199 507 103 l 658 125 q 543 23 618 60 q 378 -14 468 -14 q 135 81 222 -14 q 49 346 49 176 q 136 612 49 515 q 376 708 224 708 q 602 613 521 708 q 683 347 683 518 l 683 294 m 553 403 q 504 544 553 493 q 371 596 456 596 q 244 543 292 596 q 188 393 197 490 l 553 393 l 553 403 z "},"é":{"ha":731,"x_min":49,"x_max":683,"o":"m 683 294 l 189 294 q 249 151 200 200 q 385 103 299 103 q 582 199 507 103 l 658 125 q 543 23 618 60 q 378 -14 468 -14 q 135 81 222 -14 q 49 346 49 176 q 136 612 49 515 q 376 708 224 708 q 602 613 521 708 q 683 347 683 518 l 683 294 m 553 403 q 504 544 553 493 q 371 596 456 596 q 244 543 292 596 q 188 393 197 490 l 553 393 l 553 403 m 433 981 l 572 981 l 432 769 l 322 769 l 433 981 z "},"ĕ":{"ha":731,"x_min":49,"x_max":683,"o":"m 683 294 l 189 294 q 249 151 200 200 q 385 103 299 103 q 582 199 507 103 l 658 125 q 543 23 618 60 q 378 -14 468 -14 q 135 81 222 -14 q 49 346 49 176 q 136 612 49 515 q 376 708 224 708 q 602 613 521 708 q 683 347 683 518 l 683 294 m 553 403 q 504 544 553 493 q 371 596 456 596 q 244 543 292 596 q 188 393 197 490 l 553 393 l 553 403 m 374 769 q 222 819 278 769 q 164 964 167 868 l 254 964 q 287 888 257 915 q 374 860 317 860 q 458 886 426 860 q 493 964 490 913 l 583 964 q 528 820 581 871 q 374 769 475 769 z "},"ě":{"ha":731,"x_min":49,"x_max":683,"o":"m 683 294 l 189 294 q 249 151 200 200 q 385 103 299 103 q 582 199 507 103 l 658 125 q 543 23 618 60 q 378 -14 468 -14 q 135 81 222 -14 q 49 346 49 176 q 136 612 49 515 q 376 708 224 708 q 602 613 521 708 q 683 347 683 518 l 683 294 m 553 403 q 504 544 553 493 q 371 596 456 596 q 244 543 292 596 q 188 393 197 490 l 553 393 l 553 403 m 164 978 l 283 978 l 374 860 l 464 978 l 583 978 l 418 769 l 329 769 l 164 978 z "},"ê":{"ha":731,"x_min":49,"x_max":683,"o":"m 683 294 l 189 294 q 249 151 200 200 q 385 103 299 103 q 582 199 507 103 l 658 125 q 543 23 618 60 q 378 -14 468 -14 q 135 81 222 -14 q 49 346 49 176 q 136 612 49 515 q 376 708 224 708 q 602 613 521 708 q 683 347 683 518 l 683 294 m 553 403 q 504 544 553 493 q 371 596 456 596 q 244 543 292 596 q 188 393 197 490 l 553 393 l 553 403 m 329 978 l 418 978 l 583 769 l 464 769 l 374 888 l 283 769 l 164 769 l 329 978 z "},"ế":{"ha":731,"x_min":49,"x_max":683,"o":"m 683 294 l 189 294 q 249 151 200 200 q 385 103 299 103 q 582 199 507 103 l 658 125 q 543 23 618 60 q 378 -14 468 -14 q 135 81 222 -14 q 49 346 49 176 q 136 612 49 515 q 376 708 224 708 q 602 613 521 708 q 683 347 683 518 l 683 294 m 553 403 q 504 544 553 493 q 371 596 456 596 q 244 543 292 596 q 188 393 197 490 l 553 393 l 553 403 m 571 1088 l 678 1088 l 590 942 l 506 942 l 571 1088 m 329 978 l 417 978 l 583 769 l 463 769 l 374 888 l 283 769 l 164 769 l 329 978 z "},"ệ":{"ha":731,"x_min":49,"x_max":683,"o":"m 683 294 l 189 294 q 249 151 200 200 q 385 103 299 103 q 582 199 507 103 l 658 125 q 543 23 618 60 q 378 -14 468 -14 q 135 81 222 -14 q 49 346 49 176 q 136 612 49 515 q 376 708 224 708 q 602 613 521 708 q 683 347 683 518 l 683 294 m 553 403 q 504 544 553 493 q 371 596 456 596 q 244 543 292 596 q 188 393 197 490 l 553 393 l 553 403 m 378 -256 q 321 -234 343 -256 q 299 -178 299 -212 q 321 -122 299 -143 q 378 -100 343 -100 q 435 -122 413 -100 q 457 -178 457 -143 q 435 -234 457 -212 q 378 -256 413 -256 m 329 978 l 418 978 l 583 769 l 464 769 l 374 888 l 283 769 l 164 769 l 329 978 z "},"ề":{"ha":731,"x_min":49,"x_max":683,"o":"m 683 294 l 189 294 q 249 151 200 200 q 385 103 299 103 q 582 199 507 103 l 658 125 q 543 23 618 60 q 378 -14 468 -14 q 135 81 222 -14 q 49 346 49 176 q 136 612 49 515 q 376 708 224 708 q 602 613 521 708 q 683 347 683 518 l 683 294 m 553 403 q 504 544 553 493 q 371 596 456 596 q 244 543 292 596 q 188 393 197 490 l 553 393 l 553 403 m 464 1088 l 571 1088 l 636 942 l 551 942 l 464 1088 m 329 978 l 417 978 l 583 769 l 463 769 l 374 888 l 283 769 l 164 769 l 329 978 z "},"ể":{"ha":731,"x_min":49,"x_max":707,"o":"m 683 294 l 189 294 q 249 151 200 200 q 385 103 299 103 q 582 199 507 103 l 658 125 q 543 23 618 60 q 378 -14 468 -14 q 135 81 222 -14 q 49 346 49 176 q 136 612 49 515 q 376 708 224 708 q 602 613 521 708 q 683 347 683 518 l 683 294 m 553 403 q 504 544 553 493 q 371 596 456 596 q 244 543 292 596 q 188 393 197 490 l 553 393 l 553 403 m 547 928 q 560 978 547 960 q 597 1015 574 997 q 624 1040 615 1029 q 632 1065 632 1050 q 621 1089 632 1081 q 590 1097 610 1097 q 550 1086 569 1097 q 518 1056 531 1075 l 472 1099 q 526 1146 492 1128 q 599 1164 560 1164 q 677 1139 647 1164 q 707 1069 707 1114 q 696 1026 707 1043 q 663 992 685 1010 q 633 960 642 972 q 622 928 624 947 l 547 928 m 329 978 l 417 978 l 583 769 l 463 769 l 374 888 l 283 769 l 164 769 l 329 978 z "},"ễ":{"ha":731,"x_min":49,"x_max":683,"o":"m 683 294 l 189 294 q 249 151 200 200 q 385 103 299 103 q 582 199 507 103 l 658 125 q 543 23 618 60 q 378 -14 468 -14 q 135 81 222 -14 q 49 346 49 176 q 136 612 49 515 q 376 708 224 708 q 602 613 521 708 q 683 347 683 518 l 683 294 m 553 403 q 504 544 553 493 q 371 596 456 596 q 244 543 292 596 q 188 393 197 490 l 553 393 l 553 403 m 444 1021 q 404 1030 424 1021 q 360 1056 385 1039 q 323 1077 336 1071 q 296 1083 310 1083 q 246 1028 258 1083 l 179 1028 q 220 1121 190 1088 q 299 1154 250 1154 q 342 1146 321 1154 q 392 1121 364 1138 q 410 1111 396 1119 q 435 1099 424 1103 q 457 1096 447 1096 q 507 1153 496 1096 l 571 1153 q 529 1056 563 1090 q 444 1021 496 1021 m 329 978 l 417 978 l 583 769 l 463 769 l 374 888 l 283 769 l 164 769 l 329 978 z "},"ë":{"ha":731,"x_min":49,"x_max":683,"o":"m 683 294 l 189 294 q 249 151 200 200 q 385 103 299 103 q 582 199 507 103 l 658 125 q 543 23 618 60 q 378 -14 468 -14 q 135 81 222 -14 q 49 346 49 176 q 136 612 49 515 q 376 708 224 708 q 602 613 521 708 q 683 347 683 518 l 683 294 m 553 403 q 504 544 553 493 q 371 596 456 596 q 244 543 292 596 q 188 393 197 490 l 553 393 l 553 403 m 232 769 q 175 792 197 769 q 153 847 153 814 q 175 903 153 882 q 232 925 197 925 q 288 903 265 925 q 311 847 311 881 q 288 792 311 814 q 232 769 265 769 m 515 769 q 459 792 482 769 q 436 847 436 814 q 459 903 436 881 q 515 925 482 925 q 572 903 550 925 q 594 847 594 882 q 572 792 594 814 q 515 769 550 769 z "},"ė":{"ha":731,"x_min":49,"x_max":683,"o":"m 683 294 l 189 294 q 249 151 200 200 q 385 103 299 103 q 582 199 507 103 l 658 125 q 543 23 618 60 q 378 -14 468 -14 q 135 81 222 -14 q 49 346 49 176 q 136 612 49 515 q 376 708 224 708 q 602 613 521 708 q 683 347 683 518 l 683 294 m 553 403 q 504 544 553 493 q 371 596 456 596 q 244 543 292 596 q 188 393 197 490 l 553 393 l 553 403 m 374 769 q 317 792 339 769 q 294 847 294 814 q 317 903 294 882 q 374 925 339 925 q 431 903 408 925 q 453 847 453 882 q 431 792 453 814 q 374 769 408 769 z "},"ẹ":{"ha":731,"x_min":49,"x_max":683,"o":"m 683 294 l 189 294 q 249 151 200 200 q 385 103 299 103 q 582 199 507 103 l 658 125 q 543 23 618 60 q 378 -14 468 -14 q 135 81 222 -14 q 49 346 49 176 q 136 612 49 515 q 376 708 224 708 q 602 613 521 708 q 683 347 683 518 l 683 294 m 553 403 q 504 544 553 493 q 371 596 456 596 q 244 543 292 596 q 188 393 197 490 l 553 393 l 553 403 m 378 -256 q 321 -234 343 -256 q 299 -178 299 -212 q 321 -122 299 -143 q 378 -100 343 -100 q 435 -122 413 -100 q 457 -178 457 -143 q 435 -234 457 -212 q 378 -256 413 -256 z "},"è":{"ha":731,"x_min":49,"x_max":683,"o":"m 683 294 l 189 294 q 249 151 200 200 q 385 103 299 103 q 582 199 507 103 l 658 125 q 543 23 618 60 q 378 -14 468 -14 q 135 81 222 -14 q 49 346 49 176 q 136 612 49 515 q 376 708 224 708 q 602 613 521 708 q 683 347 683 518 l 683 294 m 553 403 q 504 544 553 493 q 371 596 456 596 q 244 543 292 596 q 188 393 197 490 l 553 393 l 553 403 m 179 981 l 317 981 l 428 769 l 318 769 l 179 981 z "},"ẻ":{"ha":731,"x_min":49,"x_max":683,"o":"m 683 294 l 189 294 q 249 151 200 200 q 385 103 299 103 q 582 199 507 103 l 658 125 q 543 23 618 60 q 378 -14 468 -14 q 135 81 222 -14 q 49 346 49 176 q 136 612 49 515 q 376 708 224 708 q 602 613 521 708 q 683 347 683 518 l 683 294 m 553 403 q 504 544 553 493 q 371 596 456 596 q 244 543 292 596 q 188 393 197 490 l 553 393 l 553 403 m 321 769 q 335 828 321 806 q 378 876 350 851 q 410 913 400 897 q 421 949 421 928 q 367 990 421 990 q 279 926 314 990 l 219 981 q 283 1048 242 1024 q 378 1072 325 1072 q 483 1042 444 1072 q 522 956 522 1011 q 508 897 522 921 q 465 846 493 874 q 433 806 443 822 q 422 769 422 790 l 321 769 z "},"ē":{"ha":731,"x_min":49,"x_max":683,"o":"m 683 294 l 189 294 q 249 151 200 200 q 385 103 299 103 q 582 199 507 103 l 658 125 q 543 23 618 60 q 378 -14 468 -14 q 135 81 222 -14 q 49 346 49 176 q 136 612 49 515 q 376 708 224 708 q 602 613 521 708 q 683 347 683 518 l 683 294 m 553 403 q 504 544 553 493 q 371 596 456 596 q 244 543 292 596 q 188 393 197 490 l 553 393 l 553 403 m 150 881 l 597 881 l 597 788 l 150 788 l 150 881 z "},"ę":{"ha":731,"x_min":49,"x_max":683,"o":"m 683 294 l 189 294 q 249 151 200 200 q 385 103 299 103 q 582 199 507 103 l 658 125 q 569 38 624 71 q 497 -83 497 -24 q 517 -128 497 -111 q 578 -144 536 -144 q 654 -125 608 -144 l 674 -186 q 613 -221 649 -208 q 540 -233 578 -233 q 435 -200 474 -233 q 397 -101 397 -167 q 424 -11 397 -51 q 378 -14 393 -14 q 135 81 222 -14 q 49 346 49 176 q 136 612 49 515 q 376 708 224 708 q 602 613 521 708 q 683 347 683 518 l 683 294 m 553 403 q 504 544 553 493 q 371 596 456 596 q 244 543 292 596 q 188 393 197 490 l 553 393 l 553 403 z "},"ẽ":{"ha":731,"x_min":49,"x_max":683,"o":"m 683 294 l 189 294 q 249 151 200 200 q 385 103 299 103 q 582 199 507 103 l 658 125 q 543 23 618 60 q 378 -14 468 -14 q 135 81 222 -14 q 49 346 49 176 q 136 612 49 515 q 376 708 224 708 q 602 613 521 708 q 683 347 683 518 l 683 294 m 553 403 q 504 544 553 493 q 371 596 456 596 q 244 543 292 596 q 188 393 197 490 l 553 393 l 553 403 m 160 769 q 194 881 160 839 q 283 922 229 922 q 334 912 310 922 q 388 883 358 901 q 425 863 411 869 q 451 857 439 857 q 493 928 489 857 l 578 928 q 541 811 576 853 q 450 769 506 769 q 397 781 422 769 q 340 811 371 792 q 318 824 338 813 q 286 835 299 835 q 258 817 269 835 q 244 769 246 800 l 160 769 z "},"ə":{"ha":731,"x_min":49,"x_max":683,"o":"m 353 708 q 597 614 510 708 q 683 349 683 519 q 596 83 683 179 q 356 -14 508 -14 q 130 82 211 -14 q 49 347 49 178 l 49 400 l 543 400 q 483 543 533 494 q 346 592 432 592 q 149 497 225 592 l 72 569 q 188 671 113 633 q 353 708 263 708 m 360 99 q 487 151 439 99 q 544 301 535 204 l 178 301 l 178 292 q 226 150 178 201 q 360 99 275 99 z "},"f":{"ha":481,"x_min":13,"x_max":501,"o":"m 128 597 l 13 597 l 13 694 l 128 694 l 128 781 q 188 938 128 881 q 353 996 247 996 q 437 982 397 996 q 501 943 476 968 l 451 860 q 365 890 417 890 q 292 859 319 890 q 265 774 265 828 l 265 694 l 463 694 l 463 597 l 265 597 l 265 0 l 128 0 l 128 597 z "},"g":{"ha":758,"x_min":44,"x_max":679,"o":"m 679 694 l 679 24 q 595 -233 679 -146 q 349 -321 511 -321 q 206 -303 274 -321 q 86 -253 139 -286 l 132 -156 q 343 -207 238 -207 q 549 44 549 -207 l 549 93 q 467 18 521 44 q 343 -8 414 -8 q 124 89 203 -8 q 44 358 44 186 q 122 615 44 522 q 336 708 200 708 q 463 680 408 708 q 549 599 517 651 l 551 599 l 565 694 l 679 694 m 542 392 q 495 549 542 493 q 365 604 449 604 q 231 538 279 604 q 182 354 182 472 q 230 167 182 233 q 365 101 278 101 q 495 151 449 101 q 542 292 542 201 l 542 392 z "},"ğ":{"ha":758,"x_min":44,"x_max":679,"o":"m 679 694 l 679 24 q 595 -233 679 -146 q 349 -321 511 -321 q 206 -303 274 -321 q 86 -253 139 -286 l 132 -156 q 343 -207 238 -207 q 549 44 549 -207 l 549 93 q 467 18 521 44 q 343 -8 414 -8 q 124 89 203 -8 q 44 358 44 186 q 122 615 44 522 q 336 708 200 708 q 463 680 408 708 q 549 599 517 651 l 551 599 l 565 694 l 679 694 m 542 392 q 495 549 542 493 q 365 604 449 604 q 231 538 279 604 q 182 354 182 472 q 230 167 182 233 q 365 101 278 101 q 495 151 449 101 q 542 292 542 201 l 542 392 m 358 769 q 207 819 263 769 q 149 964 151 868 l 239 964 q 272 888 242 915 q 358 860 301 860 q 443 886 411 860 q 478 964 475 913 l 568 964 q 513 820 565 871 q 358 769 460 769 z "},"ǧ":{"ha":758,"x_min":44,"x_max":679,"o":"m 679 694 l 679 24 q 595 -233 679 -146 q 349 -321 511 -321 q 206 -303 274 -321 q 86 -253 139 -286 l 132 -156 q 343 -207 238 -207 q 549 44 549 -207 l 549 93 q 467 18 521 44 q 343 -8 414 -8 q 124 89 203 -8 q 44 358 44 186 q 122 615 44 522 q 336 708 200 708 q 463 680 408 708 q 549 599 517 651 l 551 599 l 565 694 l 679 694 m 542 392 q 495 549 542 493 q 365 604 449 604 q 231 538 279 604 q 182 354 182 472 q 230 167 182 233 q 365 101 278 101 q 495 151 449 101 q 542 292 542 201 l 542 392 m 149 978 l 268 978 l 358 860 l 449 978 l 568 978 l 403 769 l 314 769 l 149 978 z "},"ĝ":{"ha":758,"x_min":44,"x_max":679,"o":"m 679 694 l 679 24 q 595 -233 679 -146 q 349 -321 511 -321 q 206 -303 274 -321 q 86 -253 139 -286 l 132 -156 q 343 -207 238 -207 q 549 44 549 -207 l 549 93 q 467 18 521 44 q 343 -8 414 -8 q 124 89 203 -8 q 44 358 44 186 q 122 615 44 522 q 336 708 200 708 q 463 680 408 708 q 549 599 517 651 l 551 599 l 565 694 l 679 694 m 542 392 q 495 549 542 493 q 365 604 449 604 q 231 538 279 604 q 182 354 182 472 q 230 167 182 233 q 365 101 278 101 q 495 151 449 101 q 542 292 542 201 l 542 392 m 314 978 l 403 978 l 568 769 l 449 769 l 358 888 l 268 769 l 149 769 l 314 978 z "},"ģ":{"ha":758,"x_min":44,"x_max":679,"o":"m 679 694 l 679 24 q 595 -233 679 -146 q 349 -321 511 -321 q 206 -303 274 -321 q 86 -253 139 -286 l 132 -156 q 343 -207 238 -207 q 549 44 549 -207 l 549 93 q 467 18 521 44 q 343 -8 414 -8 q 124 89 203 -8 q 44 358 44 186 q 122 615 44 522 q 336 708 200 708 q 463 680 408 708 q 549 599 517 651 l 551 599 l 565 694 l 679 694 m 542 392 q 495 549 542 493 q 365 604 449 604 q 231 538 279 604 q 182 354 182 472 q 230 167 182 233 q 365 101 278 101 q 495 151 449 101 q 542 292 542 201 l 542 392 m 367 935 q 425 913 403 935 q 447 854 447 890 q 424 793 447 817 q 365 769 401 769 q 296 797 321 769 q 271 868 271 825 q 297 972 271 917 q 367 1068 324 1028 l 424 1025 q 367 935 385 976 z "},"ġ":{"ha":758,"x_min":44,"x_max":679,"o":"m 679 694 l 679 24 q 595 -233 679 -146 q 349 -321 511 -321 q 206 -303 274 -321 q 86 -253 139 -286 l 132 -156 q 343 -207 238 -207 q 549 44 549 -207 l 549 93 q 467 18 521 44 q 343 -8 414 -8 q 124 89 203 -8 q 44 358 44 186 q 122 615 44 522 q 336 708 200 708 q 463 680 408 708 q 549 599 517 651 l 551 599 l 565 694 l 679 694 m 542 392 q 495 549 542 493 q 365 604 449 604 q 231 538 279 604 q 182 354 182 472 q 230 167 182 233 q 365 101 278 101 q 495 151 449 101 q 542 292 542 201 l 542 392 m 358 769 q 301 792 324 769 q 279 847 279 814 q 301 903 279 882 q 358 925 324 925 q 415 903 393 925 q 438 847 438 882 q 415 792 438 814 q 358 769 393 769 z "},"ḡ":{"ha":758,"x_min":44,"x_max":679,"o":"m 679 694 l 679 24 q 595 -233 679 -146 q 349 -321 511 -321 q 206 -303 274 -321 q 86 -253 139 -286 l 132 -156 q 343 -207 238 -207 q 549 44 549 -207 l 549 93 q 467 18 521 44 q 343 -8 414 -8 q 124 89 203 -8 q 44 358 44 186 q 122 615 44 522 q 336 708 200 708 q 463 680 408 708 q 549 599 517 651 l 551 599 l 565 694 l 679 694 m 542 392 q 495 549 542 493 q 365 604 449 604 q 231 538 279 604 q 182 354 182 472 q 230 167 182 233 q 365 101 278 101 q 495 151 449 101 q 542 292 542 201 l 542 392 m 135 881 l 582 881 l 582 788 l 135 788 l 135 881 z "},"h":{"ha":779,"x_min":79,"x_max":700,"o":"m 79 1031 l 217 1031 l 217 594 q 308 678 247 647 q 443 708 369 708 q 632 628 564 708 q 700 404 700 547 l 700 0 l 563 0 l 563 400 q 524 551 563 499 q 414 604 486 604 q 272 542 328 604 q 217 379 217 479 l 217 0 l 79 0 l 79 1031 z "},"ħ":{"ha":779,"x_min":-1,"x_max":700,"o":"m 443 708 q 632 628 564 708 q 700 404 700 547 l 700 0 l 563 0 l 563 400 q 524 551 563 499 q 414 604 486 604 q 272 542 328 604 q 217 379 217 479 l 217 0 l 79 0 l 79 826 l -1 826 l -1 919 l 79 919 l 79 1031 l 217 1031 l 217 919 l 406 919 l 406 826 l 217 826 l 217 594 q 308 678 247 647 q 443 708 369 708 z "},"ḫ":{"ha":779,"x_min":79,"x_max":700,"o":"m 79 1031 l 217 1031 l 217 594 q 308 678 247 647 q 443 708 369 708 q 632 628 564 708 q 700 404 700 547 l 700 0 l 563 0 l 563 400 q 524 551 563 499 q 414 604 486 604 q 272 542 328 604 q 217 379 217 479 l 217 0 l 79 0 l 79 1031 m 389 -293 q 238 -244 293 -293 q 179 -100 182 -196 l 269 -100 q 302 -176 272 -149 q 389 -204 332 -204 q 474 -178 442 -204 q 508 -100 506 -151 l 599 -100 q 543 -242 596 -192 q 389 -293 490 -293 z "},"ĥ":{"ha":779,"x_min":79,"x_max":700,"o":"m 79 1031 l 217 1031 l 217 594 q 308 678 247 647 q 443 708 369 708 q 632 628 564 708 q 700 404 700 547 l 700 0 l 563 0 l 563 400 q 524 551 563 499 q 414 604 486 604 q 272 542 328 604 q 217 379 217 479 l 217 0 l 79 0 l 79 1031 m 246 1314 l 335 1314 l 500 1106 l 381 1106 l 290 1224 l 200 1106 l 81 1106 l 246 1314 z "},"ḥ":{"ha":779,"x_min":79,"x_max":700,"o":"m 79 1031 l 217 1031 l 217 594 q 308 678 247 647 q 443 708 369 708 q 632 628 564 708 q 700 404 700 547 l 700 0 l 563 0 l 563 400 q 524 551 563 499 q 414 604 486 604 q 272 542 328 604 q 217 379 217 479 l 217 0 l 79 0 l 79 1031 m 389 -256 q 332 -234 354 -256 q 310 -178 310 -212 q 332 -122 310 -143 q 389 -100 354 -100 q 446 -122 424 -100 q 468 -178 468 -143 q 446 -234 468 -212 q 389 -256 424 -256 z "},"i":{"ha":353,"x_min":83,"x_max":271,"o":"m 176 801 q 108 825 133 801 q 83 889 83 849 q 108 953 83 929 q 176 976 133 976 q 245 953 219 976 q 271 889 271 929 q 245 825 271 849 q 176 801 219 801 m 108 694 l 246 694 l 246 0 l 108 0 l 108 694 z "},"ı":{"ha":364,"x_min":114,"x_max":250,"o":"m 114 694 l 250 694 l 250 0 l 114 0 l 114 694 z "},"í":{"ha":364,"x_min":114,"x_max":381,"o":"m 114 694 l 250 694 l 250 0 l 114 0 l 114 694 m 242 981 l 381 981 l 240 769 l 131 769 l 242 981 z "},"ĭ":{"ha":364,"x_min":-28,"x_max":392,"o":"m 114 694 l 250 694 l 250 0 l 114 0 l 114 694 m 182 769 q 31 819 86 769 q -28 964 -25 868 l 63 964 q 95 888 65 915 q 182 860 125 860 q 267 886 235 860 q 301 964 299 913 l 392 964 q 336 820 389 871 q 182 769 283 769 z "},"ǐ":{"ha":364,"x_min":-28,"x_max":392,"o":"m 114 694 l 250 694 l 250 0 l 114 0 l 114 694 m -28 978 l 92 978 l 182 860 l 272 978 l 392 978 l 226 769 l 138 769 l -28 978 z "},"î":{"ha":364,"x_min":-28,"x_max":392,"o":"m 114 694 l 250 694 l 250 0 l 114 0 l 114 694 m 138 978 l 226 978 l 392 769 l 272 769 l 182 888 l 92 769 l -28 769 l 138 978 z "},"ï":{"ha":364,"x_min":-39,"x_max":403,"o":"m 114 694 l 250 694 l 250 0 l 114 0 l 114 694 m 40 769 q -17 792 6 769 q -39 847 -39 814 q -17 903 -39 882 q 40 925 6 925 q 97 903 74 925 q 119 847 119 881 q 97 792 119 814 q 40 769 74 769 m 324 769 q 267 792 290 769 q 244 847 244 814 q 267 903 244 881 q 324 925 290 925 q 381 903 358 925 q 403 847 403 882 q 381 792 403 814 q 324 769 358 769 z "},"ị":{"ha":353,"x_min":83,"x_max":271,"o":"m 176 801 q 108 825 133 801 q 83 889 83 849 q 108 953 83 929 q 176 976 133 976 q 245 953 219 976 q 271 889 271 929 q 245 825 271 849 q 176 801 219 801 m 108 694 l 246 694 l 246 0 l 108 0 l 108 694 m 176 -256 q 119 -234 142 -256 q 97 -178 97 -212 q 119 -122 97 -143 q 176 -100 142 -100 q 233 -122 211 -100 q 256 -178 256 -143 q 233 -234 256 -212 q 176 -256 211 -256 z "},"ì":{"ha":364,"x_min":-12,"x_max":250,"o":"m 114 694 l 250 694 l 250 0 l 114 0 l 114 694 m -12 981 l 125 981 l 236 769 l 126 769 l -12 981 z "},"ỉ":{"ha":364,"x_min":28,"x_max":331,"o":"m 114 694 l 250 694 l 250 0 l 114 0 l 114 694 m 129 769 q 144 828 129 806 q 186 876 158 851 q 219 913 208 897 q 229 949 229 928 q 175 990 229 990 q 88 926 122 990 l 28 981 q 92 1048 50 1024 q 186 1072 133 1072 q 292 1042 253 1072 q 331 956 331 1011 q 316 897 331 921 q 274 846 301 874 q 241 806 251 822 q 231 769 231 790 l 129 769 z "},"ĳ":{"ha":711,"x_min":83,"x_max":639,"o":"m 176 801 q 108 825 133 801 q 83 889 83 849 q 108 953 83 929 q 176 976 133 976 q 245 953 219 976 q 271 889 271 929 q 245 825 271 849 q 176 801 219 801 m 108 694 l 246 694 l 246 0 l 108 0 l 108 694 m 544 801 q 476 826 501 801 q 450 889 450 850 q 476 952 450 928 q 544 976 501 976 q 613 952 588 976 q 639 889 639 928 q 613 826 639 850 q 544 801 588 801 m 383 -271 q 278 -258 329 -271 l 285 -160 q 350 -162 308 -162 q 450 -126 421 -162 q 479 -10 479 -89 l 479 694 l 618 694 l 618 -12 q 383 -271 618 -271 z "},"ī":{"ha":364,"x_min":-42,"x_max":406,"o":"m 114 694 l 250 694 l 250 0 l 114 0 l 114 694 m -42 881 l 406 881 l 406 788 l -42 788 l -42 881 z "},"į":{"ha":353,"x_min":11,"x_max":288,"o":"m 176 801 q 108 825 133 801 q 83 889 83 849 q 108 953 83 929 q 176 976 133 976 q 245 953 219 976 q 271 889 271 929 q 245 825 271 849 q 176 801 219 801 m 288 -257 q 228 -292 264 -279 q 154 -304 193 -304 q 49 -271 88 -304 q 11 -172 11 -237 q 135 0 11 -67 l 108 0 l 108 694 l 246 694 l 246 0 l 228 0 q 111 -154 111 -81 q 131 -199 111 -182 q 192 -215 150 -215 q 268 -196 222 -215 l 288 -257 z "},"ĩ":{"ha":364,"x_min":-32,"x_max":386,"o":"m 114 694 l 250 694 l 250 0 l 114 0 l 114 694 m -32 769 q 3 881 -32 839 q 92 922 38 922 q 142 912 118 922 q 196 883 167 901 q 233 863 219 869 q 260 857 247 857 q 301 928 297 857 l 386 928 q 349 811 385 853 q 258 769 314 769 q 205 781 231 769 q 149 811 179 792 q 126 824 146 813 q 94 835 107 835 q 66 817 78 835 q 53 769 54 800 l -32 769 z "},"j":{"ha":358,"x_min":-75,"x_max":286,"o":"m 192 801 q 123 826 149 801 q 97 889 97 850 q 123 952 97 928 q 192 976 149 976 q 260 952 235 976 q 286 889 286 928 q 260 826 286 850 q 192 801 235 801 m 31 -271 q -75 -258 -24 -271 l -68 -160 q -3 -162 -44 -162 q 97 -126 68 -162 q 126 -10 126 -89 l 126 694 l 265 694 l 265 -12 q 31 -271 265 -271 z "},"ȷ":{"ha":357,"x_min":-75,"x_max":254,"o":"m 28 -271 q -75 -258 -26 -271 l -68 -160 q -3 -162 -42 -162 q 89 -126 61 -162 q 117 -10 117 -89 l 117 694 l 254 694 l 254 -12 q 28 -271 254 -271 z "},"ĵ":{"ha":357,"x_min":-75,"x_max":394,"o":"m 28 -271 q -75 -258 -26 -271 l -68 -160 q -3 -162 -42 -162 q 89 -126 61 -162 q 117 -10 117 -89 l 117 694 l 254 694 l 254 -12 q 28 -271 254 -271 m 140 978 l 229 978 l 394 769 l 275 769 l 185 888 l 94 769 l -25 769 l 140 978 z "},"k":{"ha":697,"x_min":79,"x_max":690,"o":"m 535 0 l 314 340 l 218 246 l 218 0 l 79 0 l 79 1031 l 218 1031 l 218 411 l 501 694 l 669 694 l 407 433 l 690 0 l 535 0 z "},"ķ":{"ha":697,"x_min":79,"x_max":690,"o":"m 535 0 l 314 340 l 218 246 l 218 0 l 79 0 l 79 1031 l 218 1031 l 218 411 l 501 694 l 669 694 l 407 433 l 690 0 l 535 0 m 349 -100 q 417 -128 392 -100 q 442 -199 442 -156 q 415 -302 442 -247 q 346 -397 389 -357 l 290 -356 q 344 -264 329 -304 q 287 -240 308 -262 q 265 -183 265 -218 q 288 -123 265 -146 q 349 -100 311 -100 z "},"ĸ":{"ha":697,"x_min":79,"x_max":690,"o":"m 535 0 l 326 328 l 218 213 l 218 0 l 79 0 l 79 694 l 218 694 l 218 379 l 503 694 l 669 694 l 418 425 l 690 0 l 535 0 z "},"l":{"ha":408,"x_min":92,"x_max":390,"o":"m 251 -14 q 132 31 172 -14 q 92 165 92 76 l 92 1031 l 229 1031 l 229 165 q 245 104 229 122 q 297 86 261 86 q 369 104 326 86 l 390 25 q 251 -14 336 -14 z "},"ĺ":{"ha":408,"x_min":92,"x_max":390,"o":"m 251 -14 q 132 31 172 -14 q 92 165 92 76 l 92 1031 l 229 1031 l 229 165 q 245 104 229 122 q 297 86 261 86 q 369 104 326 86 l 390 25 q 251 -14 336 -14 m 221 1317 l 360 1317 l 219 1106 l 110 1106 l 221 1317 z "},"ľ":{"ha":488,"x_min":92,"x_max":499,"o":"m 251 -14 q 132 31 172 -14 q 92 165 92 76 l 92 1031 l 229 1031 l 229 165 q 245 104 229 122 q 297 86 261 86 q 369 104 326 86 l 390 25 q 251 -14 336 -14 m 406 1033 q 474 1006 449 1033 q 499 935 499 978 q 473 831 499 886 q 404 736 447 776 l 347 778 q 378 822 363 797 q 401 868 393 846 q 344 892 367 869 q 322 949 322 914 q 345 1010 322 986 q 406 1033 368 1033 z "},"ļ":{"ha":408,"x_min":92,"x_max":390,"o":"m 251 -14 q 132 31 172 -14 q 92 165 92 76 l 92 1031 l 229 1031 l 229 165 q 245 104 229 122 q 297 86 261 86 q 369 104 326 86 l 390 25 q 251 -14 336 -14 m 249 -100 q 317 -128 292 -100 q 342 -199 342 -156 q 315 -302 342 -247 q 246 -397 289 -357 l 190 -356 q 244 -264 229 -304 q 187 -240 208 -262 q 165 -183 165 -218 q 188 -123 165 -146 q 249 -100 211 -100 z "},"ŀ":{"ha":501,"x_min":92,"x_max":489,"o":"m 251 -14 q 132 31 172 -14 q 92 165 92 76 l 92 1031 l 229 1031 l 229 165 q 245 104 229 122 q 297 86 261 86 q 369 104 326 86 l 390 25 q 251 -14 336 -14 m 393 363 q 323 390 350 363 q 296 463 296 418 q 323 535 296 507 q 393 563 350 563 q 462 534 435 563 q 489 463 489 506 q 462 391 489 419 q 393 363 435 363 z "},"ḷ":{"ha":408,"x_min":92,"x_max":390,"o":"m 251 -14 q 132 31 172 -14 q 92 165 92 76 l 92 1031 l 229 1031 l 229 165 q 245 104 229 122 q 297 86 261 86 q 369 104 326 86 l 390 25 q 251 -14 336 -14 m 249 -256 q 192 -234 214 -256 q 169 -178 169 -212 q 192 -122 169 -143 q 249 -100 214 -100 q 306 -122 283 -100 q 328 -178 328 -143 q 306 -234 328 -212 q 249 -256 283 -256 z "},"ḹ":{"ha":408,"x_min":-62,"x_max":390,"o":"m 251 -14 q 132 31 172 -14 q 92 165 92 76 l 92 1031 l 229 1031 l 229 165 q 245 104 229 122 q 297 86 261 86 q 369 104 326 86 l 390 25 q 251 -14 336 -14 m 249 -256 q 192 -234 214 -256 q 169 -178 169 -212 q 192 -122 169 -143 q 249 -100 214 -100 q 306 -122 283 -100 q 328 -178 328 -143 q 306 -234 328 -212 q 249 -256 283 -256 m -62 1217 l 385 1217 l 385 1124 l -62 1124 l -62 1217 z "},"ḻ":{"ha":408,"x_min":25,"x_max":472,"o":"m 251 -14 q 132 31 172 -14 q 92 165 92 76 l 92 1031 l 229 1031 l 229 165 q 245 104 229 122 q 297 86 261 86 q 369 104 326 86 l 390 25 q 251 -14 336 -14 m 25 -93 l 472 -93 l 472 -186 l 25 -186 l 25 -93 z "},"ł":{"ha":421,"x_min":26,"x_max":394,"o":"m 394 25 q 256 -14 340 -14 q 136 31 176 -14 q 96 165 96 76 l 96 447 l 26 418 l 26 522 l 96 551 l 96 1031 l 233 1031 l 233 611 l 371 669 l 371 565 l 233 507 l 233 165 q 249 104 233 122 q 301 86 265 86 q 374 104 331 86 l 394 25 z "},"m":{"ha":1168,"x_min":72,"x_max":1086,"o":"m 79 517 q 72 694 79 622 l 194 694 q 200 572 200 643 l 204 572 q 290 672 231 635 q 424 708 349 708 q 550 673 497 708 q 621 574 603 638 q 709 672 650 636 q 842 708 768 708 q 1022 634 957 708 q 1086 429 1086 560 l 1086 0 l 949 0 l 949 417 q 912 550 949 503 q 807 597 875 597 q 694 547 738 597 q 650 415 650 496 l 650 0 l 514 0 l 514 411 q 378 597 514 597 q 297 572 333 597 q 238 504 260 547 q 215 411 215 461 l 215 0 l 79 0 l 79 517 z "},"ṃ":{"ha":1168,"x_min":72,"x_max":1086,"o":"m 79 517 q 72 694 79 622 l 194 694 q 200 572 200 643 l 204 572 q 290 672 231 635 q 424 708 349 708 q 550 673 497 708 q 621 574 603 638 q 709 672 650 636 q 842 708 768 708 q 1022 634 957 708 q 1086 429 1086 560 l 1086 0 l 949 0 l 949 417 q 912 550 949 503 q 807 597 875 597 q 694 547 738 597 q 650 415 650 496 l 650 0 l 514 0 l 514 411 q 378 597 514 597 q 297 572 333 597 q 238 504 260 547 q 215 411 215 461 l 215 0 l 79 0 l 79 517 m 582 -256 q 525 -234 547 -256 q 503 -178 503 -212 q 525 -122 503 -143 q 582 -100 547 -100 q 639 -122 617 -100 q 661 -178 661 -143 q 639 -234 661 -212 q 582 -256 617 -256 z "},"n":{"ha":769,"x_min":72,"x_max":688,"o":"m 78 517 q 72 694 78 646 l 200 694 q 207 572 207 643 l 211 572 q 302 672 239 635 q 443 708 365 708 q 688 392 688 708 l 688 0 l 550 0 l 550 393 q 515 547 550 497 q 408 597 481 597 q 269 536 324 597 q 215 381 215 475 l 215 0 l 78 0 l 78 517 z "},"ń":{"ha":769,"x_min":72,"x_max":688,"o":"m 78 517 q 72 694 78 646 l 200 694 q 207 572 207 643 l 211 572 q 302 672 239 635 q 443 708 365 708 q 688 392 688 708 l 688 0 l 550 0 l 550 393 q 515 547 550 497 q 408 597 481 597 q 269 536 324 597 q 215 381 215 475 l 215 0 l 78 0 l 78 517 m 443 981 l 582 981 l 442 769 l 332 769 l 443 981 z "},"ŉ":{"ha":900,"x_min":14,"x_max":819,"o":"m 97 986 q 165 958 140 986 q 190 888 190 931 q 165 784 190 839 q 96 689 139 729 l 39 731 q 69 774 54 750 q 93 821 85 799 q 36 844 58 822 q 14 901 14 867 q 37 963 14 939 q 97 986 60 986 m 210 517 q 204 694 210 646 l 332 694 q 339 572 339 643 l 343 572 q 434 672 371 635 q 575 708 497 708 q 819 392 819 708 l 819 0 l 682 0 l 682 393 q 647 547 682 497 q 540 597 613 597 q 401 536 456 597 q 347 381 347 475 l 347 0 l 210 0 l 210 517 z "},"ň":{"ha":769,"x_min":72,"x_max":688,"o":"m 78 517 q 72 694 78 646 l 200 694 q 207 572 207 643 l 211 572 q 302 672 239 635 q 443 708 365 708 q 688 392 688 708 l 688 0 l 550 0 l 550 393 q 515 547 550 497 q 408 597 481 597 q 269 536 324 597 q 215 381 215 475 l 215 0 l 78 0 l 78 517 m 174 978 l 293 978 l 383 860 l 474 978 l 593 978 l 428 769 l 339 769 l 174 978 z "},"ņ":{"ha":769,"x_min":72,"x_max":688,"o":"m 78 517 q 72 694 78 646 l 200 694 q 207 572 207 643 l 211 572 q 302 672 239 635 q 443 708 365 708 q 688 392 688 708 l 688 0 l 550 0 l 550 393 q 515 547 550 497 q 408 597 481 597 q 269 536 324 597 q 215 381 215 475 l 215 0 l 78 0 l 78 517 m 383 -100 q 451 -128 426 -100 q 476 -199 476 -156 q 450 -302 476 -247 q 381 -397 424 -357 l 325 -356 q 379 -264 364 -304 q 322 -240 343 -262 q 300 -183 300 -218 q 323 -123 300 -146 q 383 -100 346 -100 z "},"ṅ":{"ha":769,"x_min":72,"x_max":688,"o":"m 78 517 q 72 694 78 646 l 200 694 q 207 572 207 643 l 211 572 q 302 672 239 635 q 443 708 365 708 q 688 392 688 708 l 688 0 l 550 0 l 550 393 q 515 547 550 497 q 408 597 481 597 q 269 536 324 597 q 215 381 215 475 l 215 0 l 78 0 l 78 517 m 383 769 q 326 792 349 769 q 304 847 304 814 q 326 903 304 882 q 383 925 349 925 q 440 903 418 925 q 463 847 463 882 q 440 792 463 814 q 383 769 418 769 z "},"ṇ":{"ha":769,"x_min":72,"x_max":688,"o":"m 78 517 q 72 694 78 646 l 200 694 q 207 572 207 643 l 211 572 q 302 672 239 635 q 443 708 365 708 q 688 392 688 708 l 688 0 l 550 0 l 550 393 q 515 547 550 497 q 408 597 481 597 q 269 536 324 597 q 215 381 215 475 l 215 0 l 78 0 l 78 517 m 383 -256 q 326 -234 349 -256 q 304 -178 304 -212 q 326 -122 304 -143 q 383 -100 349 -100 q 440 -122 418 -100 q 463 -178 463 -143 q 440 -234 463 -212 q 383 -256 418 -256 z "},"ŋ":{"ha":769,"x_min":72,"x_max":688,"o":"m 463 -271 q 358 -260 406 -271 l 365 -160 q 431 -162 385 -162 q 522 -127 493 -162 q 550 -11 550 -92 l 550 393 q 515 547 550 497 q 408 597 481 597 q 269 536 324 597 q 215 381 215 475 l 215 0 l 78 0 l 78 517 q 72 694 78 646 l 200 694 q 207 572 207 643 l 211 572 q 302 672 239 635 q 443 708 365 708 q 688 392 688 708 l 688 -14 q 463 -271 688 -271 z "},"ṉ":{"ha":769,"x_min":72,"x_max":688,"o":"m 78 517 q 72 694 78 646 l 200 694 q 207 572 207 643 l 211 572 q 302 672 239 635 q 443 708 365 708 q 688 392 688 708 l 688 0 l 550 0 l 550 393 q 515 547 550 497 q 408 597 481 597 q 269 536 324 597 q 215 381 215 475 l 215 0 l 78 0 l 78 517 m 160 -93 l 607 -93 l 607 -186 l 160 -186 l 160 -93 z "},"ñ":{"ha":769,"x_min":72,"x_max":688,"o":"m 78 517 q 72 694 78 646 l 200 694 q 207 572 207 643 l 211 572 q 302 672 239 635 q 443 708 365 708 q 688 392 688 708 l 688 0 l 550 0 l 550 393 q 515 547 550 497 q 408 597 481 597 q 269 536 324 597 q 215 381 215 475 l 215 0 l 78 0 l 78 517 m 169 769 q 204 881 169 839 q 293 922 239 922 q 344 912 319 922 q 397 883 368 901 q 435 863 421 869 q 461 857 449 857 q 503 928 499 857 l 588 928 q 551 811 586 853 q 460 769 515 769 q 406 781 432 769 q 350 811 381 792 q 328 824 347 813 q 296 835 308 835 q 267 817 279 835 q 254 769 256 800 l 169 769 z "},"o":{"ha":783,"x_min":49,"x_max":736,"o":"m 392 -14 q 140 83 232 -14 q 49 347 49 179 q 140 612 49 515 q 392 708 232 708 q 644 612 551 708 q 736 347 736 515 q 644 83 736 179 q 392 -14 551 -14 m 392 90 q 543 159 488 90 q 599 347 599 228 q 543 535 599 467 q 392 604 488 604 q 240 535 294 604 q 186 347 186 467 q 240 159 186 228 q 392 90 294 90 z "},"ó":{"ha":783,"x_min":49,"x_max":736,"o":"m 392 -14 q 140 83 232 -14 q 49 347 49 179 q 140 612 49 515 q 392 708 232 708 q 644 612 551 708 q 736 347 736 515 q 644 83 736 179 q 392 -14 551 -14 m 392 90 q 543 159 488 90 q 599 347 599 228 q 543 535 599 467 q 392 604 488 604 q 240 535 294 604 q 186 347 186 467 q 240 159 186 228 q 392 90 294 90 m 451 981 l 590 981 l 450 769 l 340 769 l 451 981 z "},"ŏ":{"ha":783,"x_min":49,"x_max":736,"o":"m 392 -14 q 140 83 232 -14 q 49 347 49 179 q 140 612 49 515 q 392 708 232 708 q 644 612 551 708 q 736 347 736 515 q 644 83 736 179 q 392 -14 551 -14 m 392 90 q 543 159 488 90 q 599 347 599 228 q 543 535 599 467 q 392 604 488 604 q 240 535 294 604 q 186 347 186 467 q 240 159 186 228 q 392 90 294 90 m 392 769 q 240 819 296 769 q 182 964 185 868 l 272 964 q 305 888 275 915 q 392 860 335 860 q 476 886 444 860 q 511 964 508 913 l 601 964 q 546 820 599 871 q 392 769 493 769 z "},"ǒ":{"ha":783,"x_min":49,"x_max":736,"o":"m 392 -14 q 140 83 232 -14 q 49 347 49 179 q 140 612 49 515 q 392 708 232 708 q 644 612 551 708 q 736 347 736 515 q 644 83 736 179 q 392 -14 551 -14 m 392 90 q 543 159 488 90 q 599 347 599 228 q 543 535 599 467 q 392 604 488 604 q 240 535 294 604 q 186 347 186 467 q 240 159 186 228 q 392 90 294 90 m 182 978 l 301 978 l 392 860 l 482 978 l 601 978 l 436 769 l 347 769 l 182 978 z "},"ô":{"ha":783,"x_min":49,"x_max":736,"o":"m 392 -14 q 140 83 232 -14 q 49 347 49 179 q 140 612 49 515 q 392 708 232 708 q 644 612 551 708 q 736 347 736 515 q 644 83 736 179 q 392 -14 551 -14 m 392 90 q 543 159 488 90 q 599 347 599 228 q 543 535 599 467 q 392 604 488 604 q 240 535 294 604 q 186 347 186 467 q 240 159 186 228 q 392 90 294 90 m 347 978 l 436 978 l 601 769 l 482 769 l 392 888 l 301 769 l 182 769 l 347 978 z "},"ố":{"ha":783,"x_min":49,"x_max":736,"o":"m 392 -14 q 140 83 232 -14 q 49 347 49 179 q 140 612 49 515 q 392 708 232 708 q 644 612 551 708 q 736 347 736 515 q 644 83 736 179 q 392 -14 551 -14 m 392 90 q 543 159 488 90 q 599 347 599 228 q 543 535 599 467 q 392 604 488 604 q 240 535 294 604 q 186 347 186 467 q 240 159 186 228 q 392 90 294 90 m 589 1088 l 696 1088 l 608 942 l 524 942 l 589 1088 m 347 978 l 435 978 l 601 769 l 481 769 l 392 888 l 301 769 l 182 769 l 347 978 z "},"ộ":{"ha":783,"x_min":49,"x_max":736,"o":"m 392 -14 q 140 83 232 -14 q 49 347 49 179 q 140 612 49 515 q 392 708 232 708 q 644 612 551 708 q 736 347 736 515 q 644 83 736 179 q 392 -14 551 -14 m 392 90 q 543 159 488 90 q 599 347 599 228 q 543 535 599 467 q 392 604 488 604 q 240 535 294 604 q 186 347 186 467 q 240 159 186 228 q 392 90 294 90 m 392 -256 q 335 -234 357 -256 q 313 -178 313 -212 q 335 -122 313 -143 q 392 -100 357 -100 q 449 -122 426 -100 q 471 -178 471 -143 q 449 -234 471 -212 q 392 -256 426 -256 m 347 978 l 436 978 l 601 769 l 482 769 l 392 888 l 301 769 l 182 769 l 347 978 z "},"ồ":{"ha":783,"x_min":49,"x_max":736,"o":"m 392 -14 q 140 83 232 -14 q 49 347 49 179 q 140 612 49 515 q 392 708 232 708 q 644 612 551 708 q 736 347 736 515 q 644 83 736 179 q 392 -14 551 -14 m 392 90 q 543 159 488 90 q 599 347 599 228 q 543 535 599 467 q 392 604 488 604 q 240 535 294 604 q 186 347 186 467 q 240 159 186 228 q 392 90 294 90 m 482 1088 l 589 1088 l 654 942 l 569 942 l 482 1088 m 347 978 l 435 978 l 601 769 l 481 769 l 392 888 l 301 769 l 182 769 l 347 978 z "},"ổ":{"ha":783,"x_min":49,"x_max":736,"o":"m 392 -14 q 140 83 232 -14 q 49 347 49 179 q 140 612 49 515 q 392 708 232 708 q 644 612 551 708 q 736 347 736 515 q 644 83 736 179 q 392 -14 551 -14 m 392 90 q 543 159 488 90 q 599 347 599 228 q 543 535 599 467 q 392 604 488 604 q 240 535 294 604 q 186 347 186 467 q 240 159 186 228 q 392 90 294 90 m 565 928 q 578 978 565 960 q 615 1015 592 997 q 642 1040 633 1029 q 650 1065 650 1050 q 639 1089 650 1081 q 608 1097 628 1097 q 568 1086 588 1097 q 536 1056 549 1075 l 490 1099 q 544 1146 510 1128 q 617 1164 578 1164 q 695 1139 665 1164 q 725 1069 725 1114 q 714 1026 725 1043 q 681 992 703 1010 q 651 960 660 972 q 640 928 642 947 l 565 928 m 347 978 l 435 978 l 601 769 l 481 769 l 392 888 l 301 769 l 182 769 l 347 978 z "},"ỗ":{"ha":783,"x_min":49,"x_max":736,"o":"m 392 -14 q 140 83 232 -14 q 49 347 49 179 q 140 612 49 515 q 392 708 232 708 q 644 612 551 708 q 736 347 736 515 q 644 83 736 179 q 392 -14 551 -14 m 392 90 q 543 159 488 90 q 599 347 599 228 q 543 535 599 467 q 392 604 488 604 q 240 535 294 604 q 186 347 186 467 q 240 159 186 228 q 392 90 294 90 m 463 1021 q 422 1030 442 1021 q 378 1056 403 1039 q 341 1077 354 1071 q 314 1083 328 1083 q 264 1028 276 1083 l 197 1028 q 238 1121 208 1088 q 317 1154 268 1154 q 360 1146 339 1154 q 410 1121 382 1138 q 428 1111 414 1119 q 453 1099 442 1103 q 475 1096 465 1096 q 525 1153 514 1096 l 589 1153 q 547 1056 581 1090 q 463 1021 514 1021 m 347 978 l 435 978 l 601 769 l 481 769 l 392 888 l 301 769 l 182 769 l 347 978 z "},"ö":{"ha":783,"x_min":49,"x_max":736,"o":"m 392 -14 q 140 83 232 -14 q 49 347 49 179 q 140 612 49 515 q 392 708 232 708 q 644 612 551 708 q 736 347 736 515 q 644 83 736 179 q 392 -14 551 -14 m 392 90 q 543 159 488 90 q 599 347 599 228 q 543 535 599 467 q 392 604 488 604 q 240 535 294 604 q 186 347 186 467 q 240 159 186 228 q 392 90 294 90 m 250 769 q 193 792 215 769 q 171 847 171 814 q 193 903 171 882 q 250 925 215 925 q 306 903 283 925 q 329 847 329 881 q 306 792 329 814 q 250 769 283 769 m 533 769 q 477 792 500 769 q 454 847 454 814 q 477 903 454 881 q 533 925 500 925 q 590 903 568 925 q 613 847 613 882 q 590 792 613 814 q 533 769 568 769 z "},"ọ":{"ha":783,"x_min":49,"x_max":736,"o":"m 392 -14 q 140 83 232 -14 q 49 347 49 179 q 140 612 49 515 q 392 708 232 708 q 644 612 551 708 q 736 347 736 515 q 644 83 736 179 q 392 -14 551 -14 m 392 90 q 543 159 488 90 q 599 347 599 228 q 543 535 599 467 q 392 604 488 604 q 240 535 294 604 q 186 347 186 467 q 240 159 186 228 q 392 90 294 90 m 392 -256 q 335 -234 357 -256 q 313 -178 313 -212 q 335 -122 313 -143 q 392 -100 357 -100 q 449 -122 426 -100 q 471 -178 471 -143 q 449 -234 471 -212 q 392 -256 426 -256 z "},"ò":{"ha":783,"x_min":49,"x_max":736,"o":"m 392 -14 q 140 83 232 -14 q 49 347 49 179 q 140 612 49 515 q 392 708 232 708 q 644 612 551 708 q 736 347 736 515 q 644 83 736 179 q 392 -14 551 -14 m 392 90 q 543 159 488 90 q 599 347 599 228 q 543 535 599 467 q 392 604 488 604 q 240 535 294 604 q 186 347 186 467 q 240 159 186 228 q 392 90 294 90 m 197 981 l 335 981 l 446 769 l 336 769 l 197 981 z "},"ỏ":{"ha":783,"x_min":49,"x_max":736,"o":"m 392 -14 q 140 83 232 -14 q 49 347 49 179 q 140 612 49 515 q 392 708 232 708 q 644 612 551 708 q 736 347 736 515 q 644 83 736 179 q 392 -14 551 -14 m 392 90 q 543 159 488 90 q 599 347 599 228 q 543 535 599 467 q 392 604 488 604 q 240 535 294 604 q 186 347 186 467 q 240 159 186 228 q 392 90 294 90 m 339 769 q 353 828 339 806 q 396 876 368 851 q 428 913 418 897 q 439 949 439 928 q 385 990 439 990 q 297 926 332 990 l 238 981 q 301 1048 260 1024 q 396 1072 343 1072 q 501 1042 463 1072 q 540 956 540 1011 q 526 897 540 921 q 483 846 511 874 q 451 806 461 822 q 440 769 440 790 l 339 769 z "},"ơ":{"ha":856,"x_min":49,"x_max":896,"o":"m 896 699 l 896 640 q 852 485 896 554 q 735 378 808 415 q 736 347 736 368 q 644 83 736 179 q 392 -14 551 -14 q 140 83 232 -14 q 49 347 49 179 q 140 612 49 515 q 392 708 232 708 q 603 647 518 708 q 719 476 688 586 q 763 546 750 507 q 776 640 776 585 l 776 699 l 896 699 m 392 90 q 543 159 488 90 q 599 347 599 228 q 543 535 599 467 q 392 604 488 604 q 240 535 294 604 q 186 347 186 467 q 240 159 186 228 q 392 90 294 90 z "},"ớ":{"ha":856,"x_min":49,"x_max":896,"o":"m 896 699 l 896 640 q 852 485 896 554 q 735 378 808 415 q 736 347 736 368 q 644 83 736 179 q 392 -14 551 -14 q 140 83 232 -14 q 49 347 49 179 q 140 612 49 515 q 392 708 232 708 q 603 647 518 708 q 719 476 688 586 q 763 546 750 507 q 776 640 776 585 l 776 699 l 896 699 m 392 90 q 543 159 488 90 q 599 347 599 228 q 543 535 599 467 q 392 604 488 604 q 240 535 294 604 q 186 347 186 467 q 240 159 186 228 q 392 90 294 90 m 451 981 l 590 981 l 450 769 l 340 769 l 451 981 z "},"ợ":{"ha":856,"x_min":49,"x_max":896,"o":"m 896 699 l 896 640 q 852 485 896 554 q 735 378 808 415 q 736 347 736 368 q 644 83 736 179 q 392 -14 551 -14 q 140 83 232 -14 q 49 347 49 179 q 140 612 49 515 q 392 708 232 708 q 603 647 518 708 q 719 476 688 586 q 763 546 750 507 q 776 640 776 585 l 776 699 l 896 699 m 392 90 q 543 159 488 90 q 599 347 599 228 q 543 535 599 467 q 392 604 488 604 q 240 535 294 604 q 186 347 186 467 q 240 159 186 228 q 392 90 294 90 m 392 -256 q 335 -234 357 -256 q 313 -178 313 -212 q 335 -122 313 -143 q 392 -100 357 -100 q 449 -122 426 -100 q 471 -178 471 -143 q 449 -234 471 -212 q 392 -256 426 -256 z "},"ờ":{"ha":856,"x_min":49,"x_max":896,"o":"m 896 699 l 896 640 q 852 485 896 554 q 735 378 808 415 q 736 347 736 368 q 644 83 736 179 q 392 -14 551 -14 q 140 83 232 -14 q 49 347 49 179 q 140 612 49 515 q 392 708 232 708 q 603 647 518 708 q 719 476 688 586 q 763 546 750 507 q 776 640 776 585 l 776 699 l 896 699 m 392 90 q 543 159 488 90 q 599 347 599 228 q 543 535 599 467 q 392 604 488 604 q 240 535 294 604 q 186 347 186 467 q 240 159 186 228 q 392 90 294 90 m 197 981 l 335 981 l 446 769 l 336 769 l 197 981 z "},"ở":{"ha":856,"x_min":49,"x_max":896,"o":"m 896 699 l 896 640 q 852 485 896 554 q 735 378 808 415 q 736 347 736 368 q 644 83 736 179 q 392 -14 551 -14 q 140 83 232 -14 q 49 347 49 179 q 140 612 49 515 q 392 708 232 708 q 603 647 518 708 q 719 476 688 586 q 763 546 750 507 q 776 640 776 585 l 776 699 l 896 699 m 392 90 q 543 159 488 90 q 599 347 599 228 q 543 535 599 467 q 392 604 488 604 q 240 535 294 604 q 186 347 186 467 q 240 159 186 228 q 392 90 294 90 m 339 769 q 353 828 339 806 q 396 876 368 851 q 428 913 418 897 q 439 949 439 928 q 385 990 439 990 q 297 926 332 990 l 238 981 q 301 1048 260 1024 q 396 1072 343 1072 q 501 1042 463 1072 q 540 956 540 1011 q 526 897 540 921 q 483 846 511 874 q 451 806 461 822 q 440 769 440 790 l 339 769 z "},"ỡ":{"ha":856,"x_min":49,"x_max":896,"o":"m 896 699 l 896 640 q 852 485 896 554 q 735 378 808 415 q 736 347 736 368 q 644 83 736 179 q 392 -14 551 -14 q 140 83 232 -14 q 49 347 49 179 q 140 612 49 515 q 392 708 232 708 q 603 647 518 708 q 719 476 688 586 q 763 546 750 507 q 776 640 776 585 l 776 699 l 896 699 m 392 90 q 543 159 488 90 q 599 347 599 228 q 543 535 599 467 q 392 604 488 604 q 240 535 294 604 q 186 347 186 467 q 240 159 186 228 q 392 90 294 90 m 178 769 q 213 881 178 839 q 301 922 247 922 q 352 912 328 922 q 406 883 376 901 q 443 863 429 869 q 469 857 457 857 q 511 928 507 857 l 596 928 q 559 811 594 853 q 468 769 524 769 q 415 781 440 769 q 358 811 389 792 q 336 824 356 813 q 304 835 317 835 q 276 817 288 835 q 263 769 264 800 l 178 769 z "},"ő":{"ha":783,"x_min":49,"x_max":736,"o":"m 326 963 l 456 963 l 326 765 l 221 765 l 326 963 m 517 963 l 644 963 l 515 765 l 411 765 l 517 963 m 392 -14 q 140 83 232 -14 q 49 347 49 179 q 140 612 49 515 q 392 708 232 708 q 644 612 551 708 q 736 347 736 515 q 644 83 736 179 q 392 -14 551 -14 m 392 90 q 543 159 488 90 q 599 347 599 228 q 543 535 599 467 q 392 604 488 604 q 240 535 294 604 q 186 347 186 467 q 240 159 186 228 q 392 90 294 90 z "},"ō":{"ha":783,"x_min":49,"x_max":736,"o":"m 392 -14 q 140 83 232 -14 q 49 347 49 179 q 140 612 49 515 q 392 708 232 708 q 644 612 551 708 q 736 347 736 515 q 644 83 736 179 q 392 -14 551 -14 m 392 90 q 543 159 488 90 q 599 347 599 228 q 543 535 599 467 q 392 604 488 604 q 240 535 294 604 q 186 347 186 467 q 240 159 186 228 q 392 90 294 90 m 168 881 l 615 881 l 615 788 l 168 788 l 168 881 z "},"ø":{"ha":783,"x_min":49,"x_max":736,"o":"m 604 646 q 702 524 668 601 q 736 347 736 447 q 644 83 736 179 q 392 -14 551 -14 q 263 6 324 -14 l 228 -60 l 128 -60 l 183 46 q 83 169 118 92 q 49 347 49 246 q 140 612 49 515 q 392 708 232 708 q 521 689 460 708 l 550 743 l 656 743 l 604 646 m 186 347 q 242 157 186 225 l 469 590 q 392 604 436 604 q 240 535 294 604 q 186 347 186 467 m 392 90 q 543 159 488 90 q 599 347 599 228 q 544 535 599 465 l 315 104 q 392 90 347 90 z "},"ǿ":{"ha":783,"x_min":49,"x_max":736,"o":"m 604 646 q 702 524 668 601 q 736 347 736 447 q 644 83 736 179 q 392 -14 551 -14 q 263 6 324 -14 l 228 -60 l 128 -60 l 183 46 q 83 169 118 92 q 49 347 49 246 q 140 612 49 515 q 392 708 232 708 q 521 689 460 708 l 550 743 l 656 743 l 604 646 m 186 347 q 242 157 186 225 l 469 590 q 392 604 436 604 q 240 535 294 604 q 186 347 186 467 m 392 90 q 543 159 488 90 q 599 347 599 228 q 544 535 599 465 l 315 104 q 392 90 347 90 m 451 981 l 590 981 l 450 769 l 340 769 l 451 981 z "},"õ":{"ha":783,"x_min":49,"x_max":736,"o":"m 392 -14 q 140 83 232 -14 q 49 347 49 179 q 140 612 49 515 q 392 708 232 708 q 644 612 551 708 q 736 347 736 515 q 644 83 736 179 q 392 -14 551 -14 m 392 90 q 543 159 488 90 q 599 347 599 228 q 543 535 599 467 q 392 604 488 604 q 240 535 294 604 q 186 347 186 467 q 240 159 186 228 q 392 90 294 90 m 178 769 q 213 881 178 839 q 301 922 247 922 q 352 912 328 922 q 406 883 376 901 q 443 863 429 869 q 469 857 457 857 q 511 928 507 857 l 596 928 q 559 811 594 853 q 468 769 524 769 q 415 781 440 769 q 358 811 389 792 q 336 824 356 813 q 304 835 317 835 q 276 817 288 835 q 263 769 264 800 l 178 769 z "},"œ":{"ha":1201,"x_min":49,"x_max":1154,"o":"m 1154 315 l 669 315 q 725 157 676 211 q 863 103 774 103 q 968 126 922 103 q 1054 199 1014 150 l 1129 125 q 1017 23 1090 60 q 856 -14 944 -14 q 709 16 774 -14 q 603 101 644 46 q 504 15 565 44 q 363 -14 443 -14 q 129 79 210 -14 q 49 347 49 172 q 129 615 49 522 q 363 708 210 708 q 604 592 528 708 q 710 678 646 649 q 853 708 774 708 q 1076 619 997 708 q 1154 365 1154 531 l 1154 315 m 363 90 q 490 155 447 90 q 532 347 532 219 q 490 540 532 475 q 363 604 447 604 q 230 539 275 604 q 185 347 185 474 q 230 156 185 221 q 363 90 275 90 m 1019 418 q 976 550 1019 504 q 849 596 932 596 q 729 548 775 596 q 672 411 683 500 l 1019 411 l 1019 418 z "},"p":{"ha":767,"x_min":78,"x_max":718,"o":"m 83 517 q 78 694 83 614 l 206 694 q 210 590 210 647 l 213 590 q 302 676 243 644 q 432 708 361 708 q 642 612 565 708 q 718 347 718 515 q 640 83 718 181 q 426 -14 561 -14 q 303 12 357 -14 q 225 85 250 38 l 221 85 l 221 -336 l 83 -336 l 83 517 m 401 90 q 533 160 485 90 q 581 351 581 229 q 535 536 581 472 q 404 600 489 600 q 272 549 324 600 q 221 417 221 499 l 221 285 q 272 145 221 200 q 401 90 322 90 z "},"þ":{"ha":746,"x_min":78,"x_max":697,"o":"m 78 1031 l 214 1031 l 214 621 q 293 685 240 661 q 411 708 346 708 q 622 614 546 708 q 697 353 697 519 q 660 160 697 243 q 556 31 624 76 q 400 -14 489 -14 q 289 8 339 -14 q 214 67 239 29 l 214 -319 l 78 -319 l 78 1031 m 383 90 q 513 161 465 90 q 561 353 561 232 q 515 538 561 472 q 386 603 469 603 q 261 550 308 603 q 214 413 214 497 l 214 303 q 259 147 214 204 q 383 90 304 90 z "},"q":{"ha":767,"x_min":49,"x_max":689,"o":"m 546 90 l 542 90 q 458 14 513 42 q 338 -14 404 -14 q 126 84 204 -14 q 49 349 49 182 q 126 613 49 517 q 338 708 203 708 q 468 677 410 708 q 554 593 526 646 l 557 593 q 561 694 557 644 l 689 694 q 683 517 683 614 l 683 -336 l 546 -336 l 546 90 m 364 90 q 495 144 444 90 q 546 285 546 199 l 546 417 q 495 549 546 499 q 363 600 444 600 q 231 536 276 600 q 186 351 186 472 q 233 160 186 229 q 364 90 281 90 z "},"r":{"ha":508,"x_min":83,"x_max":493,"o":"m 88 525 q 83 694 88 643 l 213 694 q 218 572 218 639 l 218 558 l 222 558 q 310 669 250 629 q 453 708 371 708 q 493 704 475 708 l 493 593 q 450 596 483 596 q 337 560 389 596 q 255 465 285 525 q 225 332 225 404 l 225 0 l 88 0 l 88 525 z "},"ŕ":{"ha":508,"x_min":83,"x_max":493,"o":"m 88 525 q 83 694 88 643 l 213 694 q 218 572 218 639 l 218 558 l 222 558 q 310 669 250 629 q 453 708 371 708 q 493 704 475 708 l 493 593 q 450 596 483 596 q 337 560 389 596 q 255 465 285 525 q 225 332 225 404 l 225 0 l 88 0 l 88 525 m 329 981 l 468 981 l 328 769 l 218 769 l 329 981 z "},"ř":{"ha":508,"x_min":60,"x_max":493,"o":"m 88 525 q 83 694 88 643 l 213 694 q 218 572 218 639 l 218 558 l 222 558 q 310 669 250 629 q 453 708 371 708 q 493 704 475 708 l 493 593 q 450 596 483 596 q 337 560 389 596 q 255 465 285 525 q 225 332 225 404 l 225 0 l 88 0 l 88 525 m 60 978 l 179 978 l 269 860 l 360 978 l 479 978 l 314 769 l 225 769 l 60 978 z "},"ŗ":{"ha":508,"x_min":75,"x_max":493,"o":"m 88 525 q 83 694 88 643 l 213 694 q 218 572 218 639 l 218 558 l 222 558 q 310 669 250 629 q 453 708 371 708 q 493 704 475 708 l 493 593 q 450 596 483 596 q 337 560 389 596 q 255 465 285 525 q 225 332 225 404 l 225 0 l 88 0 l 88 525 m 158 -100 q 226 -128 201 -100 q 251 -199 251 -156 q 225 -302 251 -247 q 156 -397 199 -357 l 100 -356 q 154 -264 139 -304 q 97 -240 118 -262 q 75 -183 75 -218 q 98 -123 75 -146 q 158 -100 121 -100 z "},"ṛ":{"ha":508,"x_min":79,"x_max":493,"o":"m 88 525 q 83 694 88 643 l 213 694 q 218 572 218 639 l 218 558 l 222 558 q 310 669 250 629 q 453 708 371 708 q 493 704 475 708 l 493 593 q 450 596 483 596 q 337 560 389 596 q 255 465 285 525 q 225 332 225 404 l 225 0 l 88 0 l 88 525 m 158 -256 q 101 -234 124 -256 q 79 -178 79 -212 q 101 -122 79 -143 q 158 -100 124 -100 q 215 -122 193 -100 q 238 -178 238 -143 q 215 -234 238 -212 q 158 -256 193 -256 z "},"ṝ":{"ha":508,"x_min":46,"x_max":493,"o":"m 88 525 q 83 694 88 643 l 213 694 q 218 572 218 639 l 218 558 l 222 558 q 310 669 250 629 q 453 708 371 708 q 493 704 475 708 l 493 593 q 450 596 483 596 q 337 560 389 596 q 255 465 285 525 q 225 332 225 404 l 225 0 l 88 0 l 88 525 m 158 -256 q 101 -234 124 -256 q 79 -178 79 -212 q 101 -122 79 -143 q 158 -100 124 -100 q 215 -122 193 -100 q 238 -178 238 -143 q 215 -234 238 -212 q 158 -256 193 -256 m 46 881 l 493 881 l 493 788 l 46 788 l 46 881 z "},"ṟ":{"ha":508,"x_min":46,"x_max":493,"o":"m 88 525 q 83 694 88 643 l 213 694 q 218 572 218 639 l 218 558 l 222 558 q 310 669 250 629 q 453 708 371 708 q 493 704 475 708 l 493 593 q 450 596 483 596 q 337 560 389 596 q 255 465 285 525 q 225 332 225 404 l 225 0 l 88 0 l 88 525 m 46 -93 l 493 -93 l 493 -186 l 46 -186 l 46 -93 z "},"s":{"ha":589,"x_min":44,"x_max":546,"o":"m 283 -14 q 136 19 201 -14 q 44 108 71 53 l 132 168 q 196 111 156 132 q 283 90 236 90 q 373 121 338 90 q 408 199 408 151 q 381 260 408 236 q 278 313 353 285 q 108 406 157 358 q 58 525 58 454 q 124 658 58 608 q 300 708 190 708 q 429 679 371 708 q 521 597 488 650 l 439 536 q 380 587 415 569 q 301 604 344 604 q 224 583 254 604 q 194 529 194 563 q 225 472 194 494 q 344 414 256 449 q 501 324 456 371 q 546 204 546 278 q 474 46 546 106 q 283 -14 401 -14 z "},"ś":{"ha":589,"x_min":44,"x_max":546,"o":"m 283 -14 q 136 19 201 -14 q 44 108 71 53 l 132 168 q 196 111 156 132 q 283 90 236 90 q 373 121 338 90 q 408 199 408 151 q 381 260 408 236 q 278 313 353 285 q 108 406 157 358 q 58 525 58 454 q 124 658 58 608 q 300 708 190 708 q 429 679 371 708 q 521 597 488 650 l 439 536 q 380 587 415 569 q 301 604 344 604 q 224 583 254 604 q 194 529 194 563 q 225 472 194 494 q 344 414 256 449 q 501 324 456 371 q 546 204 546 278 q 474 46 546 106 q 283 -14 401 -14 m 356 981 l 494 981 l 354 769 l 244 769 l 356 981 z "},"š":{"ha":589,"x_min":44,"x_max":546,"o":"m 283 -14 q 136 19 201 -14 q 44 108 71 53 l 132 168 q 196 111 156 132 q 283 90 236 90 q 373 121 338 90 q 408 199 408 151 q 381 260 408 236 q 278 313 353 285 q 108 406 157 358 q 58 525 58 454 q 124 658 58 608 q 300 708 190 708 q 429 679 371 708 q 521 597 488 650 l 439 536 q 380 587 415 569 q 301 604 344 604 q 224 583 254 604 q 194 529 194 563 q 225 472 194 494 q 344 414 256 449 q 501 324 456 371 q 546 204 546 278 q 474 46 546 106 q 283 -14 401 -14 m 86 978 l 206 978 l 296 860 l 386 978 l 506 978 l 340 769 l 251 769 l 86 978 z "},"ş":{"ha":589,"x_min":44,"x_max":546,"o":"m 546 204 q 490 61 546 118 q 339 -10 435 4 l 297 -87 q 390 -115 354 -87 q 425 -189 425 -142 q 384 -281 425 -246 q 275 -317 343 -317 q 210 -310 243 -317 q 161 -294 178 -304 l 174 -233 q 257 -246 214 -246 q 308 -232 289 -246 q 328 -193 328 -218 q 301 -156 328 -169 q 225 -144 274 -143 l 193 -108 l 247 -12 q 122 27 176 -6 q 44 108 67 60 l 132 168 q 196 111 156 132 q 283 90 236 90 q 373 121 338 90 q 408 199 408 151 q 381 260 408 236 q 278 313 353 285 q 108 406 157 358 q 58 525 58 454 q 124 658 58 608 q 300 708 190 708 q 429 679 371 708 q 521 597 488 650 l 439 536 q 380 587 415 569 q 301 604 344 604 q 224 583 254 604 q 194 529 194 563 q 225 472 194 494 q 344 414 256 449 q 501 324 456 371 q 546 204 546 278 z "},"ŝ":{"ha":589,"x_min":44,"x_max":546,"o":"m 283 -14 q 136 19 201 -14 q 44 108 71 53 l 132 168 q 196 111 156 132 q 283 90 236 90 q 373 121 338 90 q 408 199 408 151 q 381 260 408 236 q 278 313 353 285 q 108 406 157 358 q 58 525 58 454 q 124 658 58 608 q 300 708 190 708 q 429 679 371 708 q 521 597 488 650 l 439 536 q 380 587 415 569 q 301 604 344 604 q 224 583 254 604 q 194 529 194 563 q 225 472 194 494 q 344 414 256 449 q 501 324 456 371 q 546 204 546 278 q 474 46 546 106 q 283 -14 401 -14 m 251 978 l 340 978 l 506 769 l 386 769 l 296 888 l 206 769 l 86 769 l 251 978 z "},"ș":{"ha":589,"x_min":44,"x_max":546,"o":"m 283 -14 q 136 19 201 -14 q 44 108 71 53 l 132 168 q 196 111 156 132 q 283 90 236 90 q 373 121 338 90 q 408 199 408 151 q 381 260 408 236 q 278 313 353 285 q 108 406 157 358 q 58 525 58 454 q 124 658 58 608 q 300 708 190 708 q 429 679 371 708 q 521 597 488 650 l 439 536 q 380 587 415 569 q 301 604 344 604 q 224 583 254 604 q 194 529 194 563 q 225 472 194 494 q 344 414 256 449 q 501 324 456 371 q 546 204 546 278 q 474 46 546 106 q 283 -14 401 -14 m 296 -100 q 364 -128 339 -100 q 389 -199 389 -156 q 363 -302 389 -247 q 293 -397 336 -357 l 238 -356 q 292 -264 276 -304 q 234 -240 256 -262 q 213 -183 213 -218 q 235 -123 213 -146 q 296 -100 258 -100 z "},"ṡ":{"ha":589,"x_min":44,"x_max":546,"o":"m 283 -14 q 136 19 201 -14 q 44 108 71 53 l 132 168 q 196 111 156 132 q 283 90 236 90 q 373 121 338 90 q 408 199 408 151 q 381 260 408 236 q 278 313 353 285 q 108 406 157 358 q 58 525 58 454 q 124 658 58 608 q 300 708 190 708 q 429 679 371 708 q 521 597 488 650 l 439 536 q 380 587 415 569 q 301 604 344 604 q 224 583 254 604 q 194 529 194 563 q 225 472 194 494 q 344 414 256 449 q 501 324 456 371 q 546 204 546 278 q 474 46 546 106 q 283 -14 401 -14 m 296 769 q 239 792 261 769 q 217 847 217 814 q 239 903 217 882 q 296 925 261 925 q 353 903 331 925 q 375 847 375 882 q 353 792 375 814 q 296 769 331 769 z "},"ṣ":{"ha":589,"x_min":44,"x_max":546,"o":"m 283 -14 q 136 19 201 -14 q 44 108 71 53 l 132 168 q 196 111 156 132 q 283 90 236 90 q 373 121 338 90 q 408 199 408 151 q 381 260 408 236 q 278 313 353 285 q 108 406 157 358 q 58 525 58 454 q 124 658 58 608 q 300 708 190 708 q 429 679 371 708 q 521 597 488 650 l 439 536 q 380 587 415 569 q 301 604 344 604 q 224 583 254 604 q 194 529 194 563 q 225 472 194 494 q 344 414 256 449 q 501 324 456 371 q 546 204 546 278 q 474 46 546 106 q 283 -14 401 -14 m 296 -256 q 239 -234 261 -256 q 217 -178 217 -212 q 239 -122 217 -143 q 296 -100 261 -100 q 353 -122 331 -100 q 375 -178 375 -143 q 353 -234 375 -212 q 296 -256 331 -256 z "},"ß":{"ha":789,"x_min":76,"x_max":746,"o":"m 501 -14 q 363 17 424 -14 q 272 108 301 49 l 361 168 q 494 90 413 90 q 578 121 546 90 q 610 199 610 151 q 580 273 610 247 q 485 324 550 299 q 376 394 410 353 q 343 496 343 436 q 365 574 343 544 q 433 643 388 604 q 493 702 474 676 q 513 765 513 728 q 477 851 513 821 q 378 881 442 881 q 253 827 293 881 q 213 667 213 774 l 213 0 l 76 0 l 76 674 q 153 906 76 825 q 372 986 229 986 q 575 929 504 986 q 646 765 646 872 q 618 672 646 708 q 539 592 590 635 q 489 544 504 563 q 474 506 474 526 q 506 450 474 474 q 590 404 538 426 q 704 326 663 374 q 746 204 746 279 q 678 46 746 106 q 501 -14 611 -14 z "},"t":{"ha":543,"x_min":15,"x_max":494,"o":"m 347 -14 q 195 45 250 -14 q 140 208 140 104 l 140 589 l 15 589 l 15 694 l 140 694 l 140 878 l 272 917 l 278 917 l 278 694 l 476 694 l 476 589 l 278 589 l 278 225 q 305 125 278 157 q 388 93 332 93 q 486 110 443 93 l 494 11 q 347 -14 443 -14 z "},"ŧ":{"ha":543,"x_min":15,"x_max":494,"o":"m 494 11 q 347 -14 443 -14 q 195 45 250 -14 q 140 208 140 104 l 140 332 l 32 332 l 32 421 l 140 421 l 140 589 l 15 589 l 15 694 l 140 694 l 140 878 l 272 917 l 278 917 l 278 694 l 476 694 l 476 589 l 278 589 l 278 421 l 428 421 l 428 332 l 278 332 l 278 225 q 305 125 278 157 q 388 93 332 93 q 486 110 443 93 l 494 11 z "},"ť":{"ha":674,"x_min":15,"x_max":660,"o":"m 347 -14 q 195 45 250 -14 q 140 208 140 104 l 140 589 l 15 589 l 15 694 l 140 694 l 140 878 l 272 917 l 278 917 l 278 694 l 476 694 l 476 589 l 278 589 l 278 225 q 305 125 278 157 q 388 93 332 93 q 486 110 443 93 l 494 11 q 347 -14 443 -14 m 567 1026 q 635 999 610 1026 q 660 928 660 971 q 634 824 660 879 q 565 729 608 769 l 508 771 q 539 815 524 790 q 563 861 554 839 q 506 885 528 863 q 483 942 483 907 q 506 1003 483 979 q 567 1026 529 1026 z "},"ţ":{"ha":543,"x_min":15,"x_max":494,"o":"m 336 -87 q 429 -115 394 -87 q 464 -189 464 -142 q 423 -281 464 -246 q 314 -317 382 -317 q 251 -310 283 -317 q 200 -294 218 -304 l 214 -233 q 296 -246 254 -246 q 347 -232 328 -246 q 367 -193 367 -218 q 340 -156 367 -169 q 265 -144 313 -143 l 233 -108 l 290 -8 q 180 65 219 8 q 140 208 140 121 l 140 589 l 15 589 l 15 694 l 140 694 l 140 878 l 272 917 l 278 917 l 278 694 l 476 694 l 476 589 l 278 589 l 278 225 q 305 125 278 157 q 388 93 332 93 q 486 110 443 93 l 494 11 q 376 -14 451 -10 l 336 -87 z "},"ț":{"ha":543,"x_min":15,"x_max":494,"o":"m 347 -14 q 195 45 250 -14 q 140 208 140 104 l 140 589 l 15 589 l 15 694 l 140 694 l 140 878 l 272 917 l 278 917 l 278 694 l 476 694 l 476 589 l 278 589 l 278 225 q 305 125 278 157 q 388 93 332 93 q 486 110 443 93 l 494 11 q 347 -14 443 -14 m 336 -100 q 404 -128 379 -100 q 429 -199 429 -156 q 403 -302 429 -247 q 333 -397 376 -357 l 278 -356 q 332 -264 317 -304 q 274 -240 296 -262 q 253 -183 253 -218 q 276 -123 253 -146 q 336 -100 299 -100 z "},"ẗ":{"ha":543,"x_min":-11,"x_max":494,"o":"m 347 -14 q 195 45 250 -14 q 140 208 140 104 l 140 589 l 15 589 l 15 694 l 140 694 l 140 878 l 272 917 l 278 917 l 278 694 l 476 694 l 476 589 l 278 589 l 278 225 q 305 125 278 157 q 388 93 332 93 q 486 110 443 93 l 494 11 q 347 -14 443 -14 m 68 992 q 11 1014 33 992 q -11 1069 -11 1036 q 11 1126 -11 1104 q 68 1147 33 1147 q 124 1125 101 1147 q 147 1069 147 1103 q 124 1014 147 1036 q 68 992 101 992 m 351 992 q 295 1014 318 992 q 272 1069 272 1036 q 295 1125 272 1103 q 351 1147 318 1147 q 408 1126 386 1147 q 431 1069 431 1104 q 408 1014 431 1036 q 351 992 386 992 z "},"ṭ":{"ha":543,"x_min":15,"x_max":494,"o":"m 347 -14 q 195 45 250 -14 q 140 208 140 104 l 140 589 l 15 589 l 15 694 l 140 694 l 140 878 l 272 917 l 278 917 l 278 694 l 476 694 l 476 589 l 278 589 l 278 225 q 305 125 278 157 q 388 93 332 93 q 486 110 443 93 l 494 11 q 347 -14 443 -14 m 336 -256 q 279 -234 301 -256 q 257 -178 257 -212 q 279 -122 257 -143 q 336 -100 301 -100 q 393 -122 371 -100 q 415 -178 415 -143 q 393 -234 415 -212 q 336 -256 371 -256 z "},"ṯ":{"ha":543,"x_min":15,"x_max":560,"o":"m 347 -14 q 195 45 250 -14 q 140 208 140 104 l 140 589 l 15 589 l 15 694 l 140 694 l 140 878 l 272 917 l 278 917 l 278 694 l 476 694 l 476 589 l 278 589 l 278 225 q 305 125 278 157 q 388 93 332 93 q 486 110 443 93 l 494 11 q 347 -14 443 -14 m 113 -93 l 560 -93 l 560 -186 l 113 -186 l 113 -93 z "},"u":{"ha":771,"x_min":79,"x_max":700,"o":"m 322 -14 q 141 65 203 -14 q 79 296 79 143 l 79 694 l 217 694 l 217 294 q 251 146 217 194 q 357 97 286 97 q 495 160 440 97 q 550 318 550 222 l 550 694 l 688 694 l 688 157 q 700 0 688 82 l 571 0 q 558 124 560 60 l 554 124 q 463 23 526 60 q 322 -14 400 -14 z "},"ú":{"ha":771,"x_min":79,"x_max":700,"o":"m 322 -14 q 141 65 203 -14 q 79 296 79 143 l 79 694 l 217 694 l 217 294 q 251 146 217 194 q 357 97 286 97 q 495 160 440 97 q 550 318 550 222 l 550 694 l 688 694 l 688 157 q 700 0 688 82 l 571 0 q 558 124 560 60 l 554 124 q 463 23 526 60 q 322 -14 400 -14 m 451 981 l 590 981 l 450 769 l 340 769 l 451 981 z "},"ŭ":{"ha":771,"x_min":79,"x_max":700,"o":"m 322 -14 q 141 65 203 -14 q 79 296 79 143 l 79 694 l 217 694 l 217 294 q 251 146 217 194 q 357 97 286 97 q 495 160 440 97 q 550 318 550 222 l 550 694 l 688 694 l 688 157 q 700 0 688 82 l 571 0 q 558 124 560 60 l 554 124 q 463 23 526 60 q 322 -14 400 -14 m 392 769 q 240 819 296 769 q 182 964 185 868 l 272 964 q 305 888 275 915 q 392 860 335 860 q 476 886 444 860 q 511 964 508 913 l 601 964 q 546 820 599 871 q 392 769 493 769 z "},"ǔ":{"ha":771,"x_min":79,"x_max":700,"o":"m 322 -14 q 141 65 203 -14 q 79 296 79 143 l 79 694 l 217 694 l 217 294 q 251 146 217 194 q 357 97 286 97 q 495 160 440 97 q 550 318 550 222 l 550 694 l 688 694 l 688 157 q 700 0 688 82 l 571 0 q 558 124 560 60 l 554 124 q 463 23 526 60 q 322 -14 400 -14 m 182 978 l 301 978 l 392 860 l 482 978 l 601 978 l 436 769 l 347 769 l 182 978 z "},"û":{"ha":771,"x_min":79,"x_max":700,"o":"m 322 -14 q 141 65 203 -14 q 79 296 79 143 l 79 694 l 217 694 l 217 294 q 251 146 217 194 q 357 97 286 97 q 495 160 440 97 q 550 318 550 222 l 550 694 l 688 694 l 688 157 q 700 0 688 82 l 571 0 q 558 124 560 60 l 554 124 q 463 23 526 60 q 322 -14 400 -14 m 347 978 l 436 978 l 601 769 l 482 769 l 392 888 l 301 769 l 182 769 l 347 978 z "},"ü":{"ha":771,"x_min":79,"x_max":700,"o":"m 322 -14 q 141 65 203 -14 q 79 296 79 143 l 79 694 l 217 694 l 217 294 q 251 146 217 194 q 357 97 286 97 q 495 160 440 97 q 550 318 550 222 l 550 694 l 688 694 l 688 157 q 700 0 688 82 l 571 0 q 558 124 560 60 l 554 124 q 463 23 526 60 q 322 -14 400 -14 m 250 769 q 193 792 215 769 q 171 847 171 814 q 193 903 171 882 q 250 925 215 925 q 306 903 283 925 q 329 847 329 881 q 306 792 329 814 q 250 769 283 769 m 533 769 q 477 792 500 769 q 454 847 454 814 q 477 903 454 881 q 533 925 500 925 q 590 903 568 925 q 613 847 613 882 q 590 792 613 814 q 533 769 568 769 z "},"ǘ":{"ha":771,"x_min":79,"x_max":700,"o":"m 322 -14 q 141 65 203 -14 q 79 296 79 143 l 79 694 l 217 694 l 217 294 q 251 146 217 194 q 357 97 286 97 q 495 160 440 97 q 550 318 550 222 l 550 694 l 688 694 l 688 157 q 700 0 688 82 l 571 0 q 558 124 560 60 l 554 124 q 463 23 526 60 q 322 -14 400 -14 m 406 1115 l 517 1115 l 429 969 l 340 969 l 406 1115 m 250 769 q 193 792 215 769 q 171 847 171 814 q 193 903 171 882 q 250 925 215 925 q 306 903 283 925 q 329 847 329 881 q 306 792 329 814 q 250 769 283 769 m 533 769 q 477 792 500 769 q 454 847 454 814 q 477 903 454 881 q 533 925 500 925 q 590 903 568 925 q 613 847 613 882 q 590 792 613 814 q 533 769 568 769 z "},"ǚ":{"ha":771,"x_min":79,"x_max":700,"o":"m 322 -14 q 141 65 203 -14 q 79 296 79 143 l 79 694 l 217 694 l 217 294 q 251 146 217 194 q 357 97 286 97 q 495 160 440 97 q 550 318 550 222 l 550 694 l 688 694 l 688 157 q 700 0 688 82 l 571 0 q 558 124 560 60 l 554 124 q 463 23 526 60 q 322 -14 400 -14 m 193 1124 l 306 1124 l 392 1022 l 478 1124 l 590 1124 l 432 951 l 350 951 l 193 1124 m 250 769 q 193 792 215 769 q 171 847 171 814 q 193 903 171 882 q 250 925 215 925 q 306 903 283 925 q 329 847 329 881 q 306 792 329 814 q 250 769 283 769 m 533 769 q 477 792 500 769 q 454 847 454 814 q 477 903 454 881 q 533 925 500 925 q 590 903 568 925 q 613 847 613 882 q 590 792 613 814 q 533 769 568 769 z "},"ǜ":{"ha":771,"x_min":79,"x_max":700,"o":"m 322 -14 q 141 65 203 -14 q 79 296 79 143 l 79 694 l 217 694 l 217 294 q 251 146 217 194 q 357 97 286 97 q 495 160 440 97 q 550 318 550 222 l 550 694 l 688 694 l 688 157 q 700 0 688 82 l 571 0 q 558 124 560 60 l 554 124 q 463 23 526 60 q 322 -14 400 -14 m 264 1115 l 375 1115 l 440 969 l 351 969 l 264 1115 m 250 769 q 193 792 215 769 q 171 847 171 814 q 193 903 171 882 q 250 925 215 925 q 306 903 283 925 q 329 847 329 881 q 306 792 329 814 q 250 769 283 769 m 533 769 q 477 792 500 769 q 454 847 454 814 q 477 903 454 881 q 533 925 500 925 q 590 903 568 925 q 613 847 613 882 q 590 792 613 814 q 533 769 568 769 z "},"ǖ":{"ha":771,"x_min":79,"x_max":700,"o":"m 322 -14 q 141 65 203 -14 q 79 296 79 143 l 79 694 l 217 694 l 217 294 q 251 146 217 194 q 357 97 286 97 q 495 160 440 97 q 550 318 550 222 l 550 694 l 688 694 l 688 157 q 700 0 688 82 l 571 0 q 558 124 560 60 l 554 124 q 463 23 526 60 q 322 -14 400 -14 m 193 1071 l 590 1071 l 590 990 l 193 990 l 193 1071 m 250 769 q 193 792 215 769 q 171 847 171 814 q 193 903 171 882 q 250 925 215 925 q 306 903 283 925 q 329 847 329 881 q 306 792 329 814 q 250 769 283 769 m 533 769 q 477 792 500 769 q 454 847 454 814 q 477 903 454 881 q 533 925 500 925 q 590 903 568 925 q 613 847 613 882 q 590 792 613 814 q 533 769 568 769 z "},"ụ":{"ha":771,"x_min":79,"x_max":700,"o":"m 322 -14 q 141 65 203 -14 q 79 296 79 143 l 79 694 l 217 694 l 217 294 q 251 146 217 194 q 357 97 286 97 q 495 160 440 97 q 550 318 550 222 l 550 694 l 688 694 l 688 157 q 700 0 688 82 l 571 0 q 558 124 560 60 l 554 124 q 463 23 526 60 q 322 -14 400 -14 m 392 -256 q 335 -234 357 -256 q 313 -178 313 -212 q 335 -122 313 -143 q 392 -100 357 -100 q 449 -122 426 -100 q 471 -178 471 -143 q 449 -234 471 -212 q 392 -256 426 -256 z "},"ù":{"ha":771,"x_min":79,"x_max":700,"o":"m 322 -14 q 141 65 203 -14 q 79 296 79 143 l 79 694 l 217 694 l 217 294 q 251 146 217 194 q 357 97 286 97 q 495 160 440 97 q 550 318 550 222 l 550 694 l 688 694 l 688 157 q 700 0 688 82 l 571 0 q 558 124 560 60 l 554 124 q 463 23 526 60 q 322 -14 400 -14 m 197 981 l 335 981 l 446 769 l 336 769 l 197 981 z "},"ủ":{"ha":771,"x_min":79,"x_max":700,"o":"m 322 -14 q 141 65 203 -14 q 79 296 79 143 l 79 694 l 217 694 l 217 294 q 251 146 217 194 q 357 97 286 97 q 495 160 440 97 q 550 318 550 222 l 550 694 l 688 694 l 688 157 q 700 0 688 82 l 571 0 q 558 124 560 60 l 554 124 q 463 23 526 60 q 322 -14 400 -14 m 339 769 q 353 828 339 806 q 396 876 368 851 q 428 913 418 897 q 439 949 439 928 q 385 990 439 990 q 297 926 332 990 l 238 981 q 301 1048 260 1024 q 396 1072 343 1072 q 501 1042 463 1072 q 540 956 540 1011 q 526 897 540 921 q 483 846 511 874 q 451 806 461 822 q 440 769 440 790 l 339 769 z "},"ư":{"ha":856,"x_min":79,"x_max":896,"o":"m 896 694 l 896 636 q 838 460 896 536 q 688 356 779 385 l 688 157 q 700 0 688 82 l 571 0 q 558 124 560 60 l 554 124 q 463 23 526 60 q 322 -14 400 -14 q 141 65 203 -14 q 79 296 79 143 l 79 694 l 217 694 l 217 294 q 251 146 217 194 q 357 97 286 97 q 495 160 440 97 q 550 318 550 222 l 550 694 l 688 694 l 688 444 q 756 525 735 481 q 776 636 776 569 l 776 694 l 896 694 z "},"ứ":{"ha":856,"x_min":79,"x_max":896,"o":"m 896 694 l 896 636 q 838 460 896 536 q 688 356 779 385 l 688 157 q 700 0 688 82 l 571 0 q 558 124 560 60 l 554 124 q 463 23 526 60 q 322 -14 400 -14 q 141 65 203 -14 q 79 296 79 143 l 79 694 l 217 694 l 217 294 q 251 146 217 194 q 357 97 286 97 q 495 160 440 97 q 550 318 550 222 l 550 694 l 688 694 l 688 444 q 756 525 735 481 q 776 636 776 569 l 776 694 l 896 694 m 451 981 l 590 981 l 450 769 l 340 769 l 451 981 z "},"ự":{"ha":856,"x_min":79,"x_max":896,"o":"m 896 694 l 896 636 q 838 460 896 536 q 688 356 779 385 l 688 157 q 700 0 688 82 l 571 0 q 558 124 560 60 l 554 124 q 463 23 526 60 q 322 -14 400 -14 q 141 65 203 -14 q 79 296 79 143 l 79 694 l 217 694 l 217 294 q 251 146 217 194 q 357 97 286 97 q 495 160 440 97 q 550 318 550 222 l 550 694 l 688 694 l 688 444 q 756 525 735 481 q 776 636 776 569 l 776 694 l 896 694 m 392 -256 q 335 -234 357 -256 q 313 -178 313 -212 q 335 -122 313 -143 q 392 -100 357 -100 q 449 -122 426 -100 q 471 -178 471 -143 q 449 -234 471 -212 q 392 -256 426 -256 z "},"ừ":{"ha":856,"x_min":79,"x_max":896,"o":"m 896 694 l 896 636 q 838 460 896 536 q 688 356 779 385 l 688 157 q 700 0 688 82 l 571 0 q 558 124 560 60 l 554 124 q 463 23 526 60 q 322 -14 400 -14 q 141 65 203 -14 q 79 296 79 143 l 79 694 l 217 694 l 217 294 q 251 146 217 194 q 357 97 286 97 q 495 160 440 97 q 550 318 550 222 l 550 694 l 688 694 l 688 444 q 756 525 735 481 q 776 636 776 569 l 776 694 l 896 694 m 197 981 l 335 981 l 446 769 l 336 769 l 197 981 z "},"ử":{"ha":856,"x_min":79,"x_max":896,"o":"m 896 694 l 896 636 q 838 460 896 536 q 688 356 779 385 l 688 157 q 700 0 688 82 l 571 0 q 558 124 560 60 l 554 124 q 463 23 526 60 q 322 -14 400 -14 q 141 65 203 -14 q 79 296 79 143 l 79 694 l 217 694 l 217 294 q 251 146 217 194 q 357 97 286 97 q 495 160 440 97 q 550 318 550 222 l 550 694 l 688 694 l 688 444 q 756 525 735 481 q 776 636 776 569 l 776 694 l 896 694 m 339 769 q 353 828 339 806 q 396 876 368 851 q 428 913 418 897 q 439 949 439 928 q 385 990 439 990 q 297 926 332 990 l 238 981 q 301 1048 260 1024 q 396 1072 343 1072 q 501 1042 463 1072 q 540 956 540 1011 q 526 897 540 921 q 483 846 511 874 q 451 806 461 822 q 440 769 440 790 l 339 769 z "},"ữ":{"ha":856,"x_min":79,"x_max":896,"o":"m 896 694 l 896 636 q 838 460 896 536 q 688 356 779 385 l 688 157 q 700 0 688 82 l 571 0 q 558 124 560 60 l 554 124 q 463 23 526 60 q 322 -14 400 -14 q 141 65 203 -14 q 79 296 79 143 l 79 694 l 217 694 l 217 294 q 251 146 217 194 q 357 97 286 97 q 495 160 440 97 q 550 318 550 222 l 550 694 l 688 694 l 688 444 q 756 525 735 481 q 776 636 776 569 l 776 694 l 896 694 m 178 769 q 213 881 178 839 q 301 922 247 922 q 352 912 328 922 q 406 883 376 901 q 443 863 429 869 q 469 857 457 857 q 511 928 507 857 l 596 928 q 559 811 594 853 q 468 769 524 769 q 415 781 440 769 q 358 811 389 792 q 336 824 356 813 q 304 835 317 835 q 276 817 288 835 q 263 769 264 800 l 178 769 z "},"ű":{"ha":771,"x_min":79,"x_max":700,"o":"m 322 -14 q 141 65 203 -14 q 79 296 79 143 l 79 694 l 217 694 l 217 294 q 251 146 217 194 q 357 97 286 97 q 495 160 440 97 q 550 318 550 222 l 550 694 l 688 694 l 688 157 q 700 0 688 82 l 571 0 q 558 124 560 60 l 554 124 q 463 23 526 60 q 322 -14 400 -14 m 324 981 l 460 981 l 322 769 l 211 769 l 324 981 m 525 981 l 661 981 l 524 769 l 413 769 l 525 981 z "},"ū":{"ha":771,"x_min":79,"x_max":700,"o":"m 322 -14 q 141 65 203 -14 q 79 296 79 143 l 79 694 l 217 694 l 217 294 q 251 146 217 194 q 357 97 286 97 q 495 160 440 97 q 550 318 550 222 l 550 694 l 688 694 l 688 157 q 700 0 688 82 l 571 0 q 558 124 560 60 l 554 124 q 463 23 526 60 q 322 -14 400 -14 m 168 881 l 615 881 l 615 788 l 168 788 l 168 881 z "},"ų":{"ha":771,"x_min":79,"x_max":739,"o":"m 739 -257 q 678 -292 714 -279 q 606 -304 643 -304 q 501 -271 539 -304 q 463 -172 463 -237 q 586 0 463 -65 l 571 0 q 558 124 560 60 l 554 124 q 463 23 526 60 q 322 -14 400 -14 q 141 65 203 -14 q 79 296 79 143 l 79 694 l 217 694 l 217 294 q 251 146 217 194 q 357 97 286 97 q 495 160 440 97 q 550 318 550 222 l 550 694 l 688 694 l 688 157 q 700 0 688 82 l 678 0 q 563 -154 563 -81 q 582 -199 563 -182 q 643 -215 601 -215 q 719 -196 674 -215 l 739 -257 z "},"ů":{"ha":771,"x_min":79,"x_max":700,"o":"m 322 -14 q 141 65 203 -14 q 79 296 79 143 l 79 694 l 217 694 l 217 294 q 251 146 217 194 q 357 97 286 97 q 495 160 440 97 q 550 318 550 222 l 550 694 l 688 694 l 688 157 q 700 0 688 82 l 571 0 q 558 124 560 60 l 554 124 q 463 23 526 60 q 322 -14 400 -14 m 392 753 q 293 789 332 753 q 254 882 254 825 q 293 975 254 939 q 392 1011 332 1011 q 490 975 451 1011 q 529 882 529 939 q 490 789 529 825 q 392 753 451 753 m 392 811 q 442 831 422 811 q 461 882 461 851 q 442 933 461 913 q 392 953 422 953 q 342 933 361 953 q 322 882 322 913 q 342 831 322 851 q 392 811 361 811 z "},"ũ":{"ha":771,"x_min":79,"x_max":700,"o":"m 322 -14 q 141 65 203 -14 q 79 296 79 143 l 79 694 l 217 694 l 217 294 q 251 146 217 194 q 357 97 286 97 q 495 160 440 97 q 550 318 550 222 l 550 694 l 688 694 l 688 157 q 700 0 688 82 l 571 0 q 558 124 560 60 l 554 124 q 463 23 526 60 q 322 -14 400 -14 m 178 769 q 213 881 178 839 q 301 922 247 922 q 352 912 328 922 q 406 883 376 901 q 443 863 429 869 q 469 857 457 857 q 511 928 507 857 l 596 928 q 559 811 594 853 q 468 769 524 769 q 415 781 440 769 q 358 811 389 792 q 336 824 356 813 q 304 835 317 835 q 276 817 288 835 q 263 769 264 800 l 178 769 z "},"v":{"ha":688,"x_min":17,"x_max":672,"o":"m 672 694 l 406 0 l 283 0 l 17 694 l 158 694 l 344 164 l 529 694 l 672 694 z "},"w":{"ha":946,"x_min":17,"x_max":929,"o":"m 929 694 l 754 0 l 632 0 l 474 547 l 315 0 l 192 0 l 17 694 l 160 694 l 264 194 l 411 694 l 535 694 l 682 194 l 786 694 l 929 694 z "},"ẃ":{"ha":946,"x_min":17,"x_max":929,"o":"m 929 694 l 754 0 l 632 0 l 474 547 l 315 0 l 192 0 l 17 694 l 160 694 l 264 194 l 411 694 l 535 694 l 682 194 l 786 694 l 929 694 m 533 981 l 672 981 l 532 769 l 422 769 l 533 981 z "},"ŵ":{"ha":946,"x_min":17,"x_max":929,"o":"m 929 694 l 754 0 l 632 0 l 474 547 l 315 0 l 192 0 l 17 694 l 160 694 l 264 194 l 411 694 l 535 694 l 682 194 l 786 694 l 929 694 m 429 978 l 518 978 l 683 769 l 564 769 l 474 888 l 383 769 l 264 769 l 429 978 z "},"ẅ":{"ha":946,"x_min":17,"x_max":929,"o":"m 929 694 l 754 0 l 632 0 l 474 547 l 315 0 l 192 0 l 17 694 l 160 694 l 264 194 l 411 694 l 535 694 l 682 194 l 786 694 l 929 694 m 332 769 q 275 792 297 769 q 253 847 253 814 q 275 903 253 882 q 332 925 297 925 q 388 903 365 925 q 411 847 411 881 q 388 792 411 814 q 332 769 365 769 m 615 769 q 559 792 582 769 q 536 847 536 814 q 559 903 536 881 q 615 925 582 925 q 672 903 650 925 q 694 847 694 882 q 672 792 694 814 q 615 769 650 769 z "},"ẁ":{"ha":946,"x_min":17,"x_max":929,"o":"m 929 694 l 754 0 l 632 0 l 474 547 l 315 0 l 192 0 l 17 694 l 160 694 l 264 194 l 411 694 l 535 694 l 682 194 l 786 694 l 929 694 m 279 981 l 417 981 l 528 769 l 418 769 l 279 981 z "},"x":{"ha":667,"x_min":17,"x_max":650,"o":"m 263 353 l 35 694 l 188 694 l 333 454 l 479 694 l 632 694 l 406 353 l 650 0 l 496 0 l 333 261 l 171 0 l 17 0 l 263 353 z "},"y":{"ha":661,"x_min":3,"x_max":646,"o":"m 646 694 l 389 -19 q 92 -276 296 -276 q 3 -264 53 -276 l 3 -157 q 72 -168 32 -168 q 188 -119 140 -168 q 278 42 235 -71 l 19 694 l 167 694 l 342 190 l 497 694 l 646 694 z "},"ý":{"ha":661,"x_min":3,"x_max":646,"o":"m 646 694 l 389 -19 q 92 -276 296 -276 q 3 -264 53 -276 l 3 -157 q 72 -168 32 -168 q 188 -119 140 -168 q 278 42 235 -71 l 19 694 l 167 694 l 342 190 l 497 694 l 646 694 m 396 981 l 535 981 l 394 769 l 285 769 l 396 981 z "},"ŷ":{"ha":661,"x_min":3,"x_max":646,"o":"m 646 694 l 389 -19 q 92 -276 296 -276 q 3 -264 53 -276 l 3 -157 q 72 -168 32 -168 q 188 -119 140 -168 q 278 42 235 -71 l 19 694 l 167 694 l 342 190 l 497 694 l 646 694 m 292 978 l 381 978 l 546 769 l 426 769 l 336 888 l 246 769 l 126 769 l 292 978 z "},"ÿ":{"ha":661,"x_min":3,"x_max":646,"o":"m 646 694 l 389 -19 q 92 -276 296 -276 q 3 -264 53 -276 l 3 -157 q 72 -168 32 -168 q 188 -119 140 -168 q 278 42 235 -71 l 19 694 l 167 694 l 342 190 l 497 694 l 646 694 m 194 769 q 138 792 160 769 q 115 847 115 814 q 138 903 115 882 q 194 925 160 925 q 251 903 228 925 q 274 847 274 881 q 251 792 274 814 q 194 769 228 769 m 478 769 q 422 792 444 769 q 399 847 399 814 q 422 903 399 881 q 478 925 444 925 q 535 903 513 925 q 557 847 557 882 q 535 792 557 814 q 478 769 513 769 z "},"ẏ":{"ha":661,"x_min":3,"x_max":646,"o":"m 646 694 l 389 -19 q 92 -276 296 -276 q 3 -264 53 -276 l 3 -157 q 72 -168 32 -168 q 188 -119 140 -168 q 278 42 235 -71 l 19 694 l 167 694 l 342 190 l 497 694 l 646 694 m 336 769 q 279 792 301 769 q 257 847 257 814 q 279 903 257 882 q 336 925 301 925 q 393 903 371 925 q 415 847 415 882 q 393 792 415 814 q 336 769 371 769 z "},"ỵ":{"ha":661,"x_min":3,"x_max":646,"o":"m 646 694 l 389 -19 q 92 -276 296 -276 q 3 -264 53 -276 l 3 -157 q 72 -168 32 -168 q 188 -119 140 -168 q 278 42 235 -71 l 19 694 l 167 694 l 342 190 l 497 694 l 646 694 m 515 -256 q 458 -234 481 -256 q 436 -178 436 -212 q 458 -122 436 -143 q 515 -100 481 -100 q 572 -122 550 -100 q 594 -178 594 -143 q 572 -234 594 -212 q 515 -256 550 -256 z "},"ỳ":{"ha":661,"x_min":3,"x_max":646,"o":"m 646 694 l 389 -19 q 92 -276 296 -276 q 3 -264 53 -276 l 3 -157 q 72 -168 32 -168 q 188 -119 140 -168 q 278 42 235 -71 l 19 694 l 167 694 l 342 190 l 497 694 l 646 694 m 142 981 l 279 981 l 390 769 l 281 769 l 142 981 z "},"ỷ":{"ha":661,"x_min":3,"x_max":646,"o":"m 646 694 l 389 -19 q 92 -276 296 -276 q 3 -264 53 -276 l 3 -157 q 72 -168 32 -168 q 188 -119 140 -168 q 278 42 235 -71 l 19 694 l 167 694 l 342 190 l 497 694 l 646 694 m 283 769 q 298 828 283 806 q 340 876 313 851 q 373 913 363 897 q 383 949 383 928 q 329 990 383 990 q 242 926 276 990 l 182 981 q 246 1048 204 1024 q 340 1072 288 1072 q 446 1042 407 1072 q 485 956 485 1011 q 470 897 485 921 q 428 846 456 874 q 395 806 406 822 q 385 769 385 790 l 283 769 z "},"ỹ":{"ha":661,"x_min":3,"x_max":646,"o":"m 646 694 l 389 -19 q 92 -276 296 -276 q 3 -264 53 -276 l 3 -157 q 72 -168 32 -168 q 188 -119 140 -168 q 278 42 235 -71 l 19 694 l 167 694 l 342 190 l 497 694 l 646 694 m 122 769 q 157 881 122 839 q 246 922 192 922 q 297 912 272 922 q 350 883 321 901 q 388 863 374 869 q 414 857 401 857 q 456 928 451 857 l 540 928 q 503 811 539 853 q 413 769 468 769 q 359 781 385 769 q 303 811 333 792 q 281 824 300 813 q 249 835 261 835 q 220 817 232 835 q 207 769 208 800 l 122 769 z "},"z":{"ha":638,"x_min":33,"x_max":604,"o":"m 33 76 l 425 589 l 53 589 l 53 694 l 590 694 l 590 621 l 204 106 l 604 106 l 604 0 l 33 0 l 33 76 z "},"ź":{"ha":638,"x_min":33,"x_max":604,"o":"m 33 76 l 425 589 l 53 589 l 53 694 l 590 694 l 590 621 l 204 106 l 604 106 l 604 0 l 33 0 l 33 76 m 378 981 l 517 981 l 376 769 l 267 769 l 378 981 z "},"ž":{"ha":638,"x_min":33,"x_max":604,"o":"m 33 76 l 425 589 l 53 589 l 53 694 l 590 694 l 590 621 l 204 106 l 604 106 l 604 0 l 33 0 l 33 76 m 108 978 l 228 978 l 318 860 l 408 978 l 528 978 l 363 769 l 274 769 l 108 978 z "},"ż":{"ha":638,"x_min":33,"x_max":604,"o":"m 33 76 l 425 589 l 53 589 l 53 694 l 590 694 l 590 621 l 204 106 l 604 106 l 604 0 l 33 0 l 33 76 m 318 769 q 261 792 283 769 q 239 847 239 814 q 261 903 239 882 q 318 925 283 925 q 375 903 353 925 q 397 847 397 882 q 375 792 397 814 q 318 769 353 769 z "},"ẓ":{"ha":638,"x_min":33,"x_max":604,"o":"m 33 76 l 425 589 l 53 589 l 53 694 l 590 694 l 590 621 l 204 106 l 604 106 l 604 0 l 33 0 l 33 76 m 318 -256 q 261 -234 283 -256 q 239 -178 239 -212 q 261 -122 239 -143 q 318 -100 283 -100 q 375 -122 353 -100 q 397 -178 397 -143 q 375 -234 397 -212 q 318 -256 353 -256 z "},"ﬁ":{"ha":808,"x_min":13,"x_max":740,"o":"m 128 597 l 13 597 l 13 694 l 128 694 l 128 781 q 188 938 128 881 q 353 996 247 996 q 437 982 397 996 q 501 943 476 968 l 451 860 q 365 890 417 890 q 292 859 319 890 q 265 774 265 828 l 265 694 l 463 694 l 463 597 l 265 597 l 265 0 l 128 0 l 128 597 m 646 801 q 578 825 603 801 q 553 889 553 849 q 578 953 553 929 q 646 976 603 976 q 715 953 689 976 q 740 889 740 929 q 715 825 740 849 q 646 801 689 801 m 578 694 l 715 694 l 715 0 l 578 0 l 578 694 z "},"ﬂ":{"ha":872,"x_min":13,"x_max":860,"o":"m 128 597 l 13 597 l 13 694 l 128 694 l 128 781 q 188 938 128 881 q 353 996 247 996 q 437 982 397 996 q 501 943 476 968 l 451 860 q 365 890 417 890 q 292 859 319 890 q 265 774 265 828 l 265 694 l 463 694 l 463 597 l 265 597 l 265 0 l 128 0 l 128 597 m 721 -14 q 601 31 642 -14 q 561 165 561 76 l 561 1031 l 699 1031 l 699 165 q 715 104 699 122 q 767 86 731 86 q 839 104 796 86 l 860 25 q 721 -14 806 -14 z "},"ª":{"ha":503,"x_min":50,"x_max":449,"o":"m 201 501 q 92 542 135 501 q 50 646 50 582 q 98 751 50 714 q 236 789 146 789 l 333 789 l 333 808 q 310 878 333 856 q 240 901 288 901 q 119 840 164 901 l 68 899 q 253 982 133 982 q 391 939 343 982 q 439 817 439 896 l 439 606 q 449 511 439 557 l 353 511 q 342 571 351 517 q 285 520 324 539 q 201 501 247 501 m 231 575 q 306 604 278 575 q 333 672 333 633 l 333 721 l 257 721 q 154 646 154 721 q 175 593 154 611 q 231 575 196 575 z "},"º":{"ha":542,"x_min":42,"x_max":500,"o":"m 271 501 q 103 566 164 501 q 42 742 42 631 q 103 917 42 853 q 271 982 164 982 q 439 917 378 982 q 500 742 500 853 q 439 566 500 631 q 271 501 378 501 m 271 578 q 362 621 331 578 q 393 742 393 664 q 362 863 393 819 q 271 906 331 906 q 180 863 211 906 q 149 742 149 819 q 180 621 149 664 q 271 578 211 578 z "},"ⁿ":{"ha":542,"x_min":53,"x_max":469,"o":"m 56 854 l 54 938 q 53 972 53 953 l 156 972 q 158 892 160 924 l 163 892 q 306 982 204 982 q 433 925 396 982 q 469 793 469 868 l 469 511 l 361 511 l 361 772 q 340 866 361 835 q 275 897 319 897 q 195 860 226 897 q 164 764 164 822 l 164 511 l 56 511 l 56 854 z "},"Δ":{"ha":904,"x_min":8,"x_max":894,"o":"m 8 71 l 421 972 l 483 972 l 894 71 l 894 0 l 8 0 l 8 71 m 733 113 l 451 756 l 171 113 l 733 113 z "},"Ω":{"ha":1075,"x_min":56,"x_max":1019,"o":"m 56 115 l 286 115 q 137 303 192 188 q 82 547 82 418 q 137 781 82 682 q 295 933 192 881 q 539 986 399 986 q 782 933 679 986 q 940 781 885 881 q 994 547 994 682 q 940 303 994 418 q 790 115 885 188 l 1019 115 l 1019 0 l 614 0 l 614 133 q 781 276 719 168 q 842 536 842 383 q 760 775 842 688 q 539 863 679 863 q 315 775 397 863 q 233 536 233 688 q 294 275 233 382 q 463 135 356 168 l 463 0 l 56 0 l 56 115 z "},"μ":{"ha":771,"x_min":79,"x_max":700,"o":"m 79 694 l 215 694 l 215 294 q 252 149 215 200 q 363 97 289 97 q 498 161 446 97 q 550 322 550 225 l 550 694 l 688 694 l 688 157 q 700 0 688 88 l 572 0 q 558 108 560 51 l 554 108 q 363 -14 496 -14 q 281 1 319 -14 q 215 43 242 15 l 215 -293 l 79 -293 l 79 694 z "},"π":{"ha":921,"x_min":32,"x_max":875,"o":"m 744 -14 q 607 128 607 -14 l 607 589 l 300 589 l 300 0 l 163 0 l 163 589 l 32 589 l 32 694 l 875 694 l 875 589 l 744 589 l 744 158 q 797 100 744 100 q 863 114 829 100 l 863 17 q 744 -14 804 -14 z "},"ก":{"ha":810,"x_min":56,"x_max":713,"o":"m 101 340 q 128 433 101 392 q 201 494 156 474 q 56 519 146 513 q 103 674 60 607 q 224 777 147 740 q 399 814 300 814 q 563 779 492 814 q 673 681 633 744 q 713 532 713 617 l 713 0 l 574 0 l 574 518 q 523 653 574 603 q 388 704 472 704 q 262 672 317 704 q 186 586 207 640 q 278 561 235 579 q 349 521 322 543 l 349 488 q 269 434 297 471 q 240 346 240 397 l 240 0 l 101 0 l 101 340 z "},"ข":{"ha":843,"x_min":21,"x_max":744,"o":"m 744 800 l 744 188 q 683 38 744 90 q 508 -14 622 -14 q 335 38 394 -14 q 275 188 275 90 l 275 321 q 288 390 275 360 q 329 463 301 419 q 372 538 358 506 q 386 613 386 571 q 353 693 386 667 q 265 719 321 719 q 168 692 204 719 q 182 693 172 693 q 273 658 236 693 q 310 561 310 624 q 272 465 310 504 q 169 425 235 425 q 61 469 101 425 q 21 592 21 514 q 88 751 21 689 q 271 814 154 814 q 445 765 379 814 q 511 624 511 715 q 497 535 511 572 q 457 454 483 499 q 424 385 435 413 q 413 324 413 358 l 413 183 q 438 118 413 140 q 510 96 463 96 q 582 118 557 96 q 607 183 607 140 l 607 800 l 744 800 m 232 561 q 215 606 232 589 q 171 622 199 622 q 126 606 143 622 q 108 561 108 589 q 126 516 108 533 q 171 499 143 499 q 215 516 199 499 q 232 561 232 533 z "},"ฃ":{"ha":865,"x_min":21,"x_max":767,"o":"m 767 800 l 767 188 q 706 38 767 90 q 531 -14 644 -14 q 357 38 417 -14 q 297 188 297 90 l 297 288 q 312 361 297 328 q 357 447 326 394 q 403 532 388 494 q 419 614 419 569 q 406 674 419 647 q 371 713 393 700 l 290 642 l 203 710 q 150 628 165 683 q 178 632 163 632 q 274 594 236 632 q 311 497 311 557 q 272 401 311 438 q 172 364 233 364 q 63 415 106 364 q 21 547 21 465 q 72 718 21 643 q 206 814 124 793 l 290 739 l 374 814 q 496 751 447 800 q 544 625 544 701 q 529 527 544 569 q 483 431 514 485 q 447 357 458 386 q 435 293 435 328 l 435 183 q 460 118 435 140 q 532 96 485 96 q 604 118 579 96 q 629 183 629 140 l 629 800 l 767 800 m 235 499 q 217 543 235 526 q 172 560 200 560 q 128 543 146 560 q 111 499 111 526 q 128 453 111 471 q 172 436 144 436 q 217 453 200 436 q 235 499 235 471 z "},"ค":{"ha":847,"x_min":53,"x_max":750,"o":"m 408 814 q 658 742 567 814 q 750 546 750 671 l 750 0 l 611 0 l 611 533 q 557 658 611 613 q 408 704 503 704 q 246 653 306 704 q 186 517 186 603 q 197 419 186 476 q 210 349 207 361 q 283 501 232 444 q 407 558 335 558 q 508 525 471 558 q 544 432 544 492 q 509 340 544 375 q 415 304 474 304 q 355 318 383 304 q 311 357 326 332 q 267 260 285 318 q 250 149 250 201 l 250 0 l 114 0 l 114 201 q 88 333 114 233 q 62 440 71 396 q 53 519 53 483 q 148 734 53 654 q 408 814 243 814 m 413 490 q 372 474 388 490 q 356 433 356 458 q 372 390 356 407 q 413 374 388 374 q 455 390 439 374 q 471 433 471 407 q 455 474 471 458 q 413 490 439 490 z "},"ฅ":{"ha":853,"x_min":53,"x_max":756,"o":"m 551 814 q 700 724 644 799 q 756 538 756 649 l 756 0 l 617 0 l 617 535 q 601 636 617 597 q 549 699 585 675 l 411 603 l 267 703 q 206 632 225 675 q 186 522 186 589 q 194 438 186 489 q 204 369 201 386 l 213 322 q 287 468 238 413 q 408 524 336 524 q 509 490 472 524 q 546 397 546 457 q 510 305 546 340 q 417 269 474 269 q 357 284 386 269 q 313 325 328 299 q 267 235 285 285 q 250 136 250 186 l 250 0 l 114 0 l 114 201 q 88 333 114 233 q 62 442 71 399 q 53 521 53 485 q 110 713 53 633 q 275 814 168 792 l 413 711 l 551 814 m 415 456 q 372 439 389 456 q 356 397 356 422 q 372 355 356 371 q 415 339 389 339 q 456 355 440 339 q 472 397 472 371 q 456 439 472 422 q 415 456 440 456 z "},"ฆ":{"ha":906,"x_min":21,"x_max":807,"o":"m 807 800 l 807 0 l 679 0 q 596 106 650 61 q 476 174 542 151 q 482 142 482 161 q 435 30 482 74 q 317 -14 389 -14 q 199 30 244 -14 q 153 140 153 74 q 196 246 153 204 q 300 289 239 288 l 300 297 q 314 366 300 335 q 357 450 328 397 q 403 535 388 500 q 418 614 418 571 q 404 674 418 647 q 367 713 390 700 l 288 642 l 203 710 q 150 628 165 683 q 178 632 163 632 q 274 594 236 632 q 311 497 311 557 q 272 401 311 438 q 172 364 233 364 q 63 415 106 364 q 21 547 21 465 q 72 718 21 643 q 206 814 124 793 l 288 739 l 371 814 q 492 751 443 800 q 540 625 540 701 q 525 531 540 572 q 481 438 510 490 q 445 367 456 393 q 435 310 435 342 l 435 286 q 570 243 510 274 q 669 167 631 213 l 669 800 l 807 800 m 235 499 q 217 543 235 526 q 172 560 200 560 q 128 543 146 560 q 111 499 111 526 q 128 453 111 471 q 172 436 144 436 q 217 453 200 436 q 235 499 235 471 m 313 74 q 360 91 342 74 q 378 138 378 108 q 360 184 378 165 q 313 203 342 203 q 267 184 285 203 q 249 138 249 165 q 267 91 249 108 q 313 74 285 74 z "},"ง":{"ha":643,"x_min":25,"x_max":546,"o":"m 388 814 q 501 772 457 814 q 546 663 546 729 l 546 0 l 408 0 l 25 414 l 101 494 l 408 163 l 408 529 q 379 525 394 525 q 275 566 315 525 q 235 671 235 607 q 277 774 235 733 q 388 814 319 814 m 379 606 q 426 624 408 606 q 443 669 443 642 q 426 715 443 697 q 379 733 408 733 q 333 715 351 733 q 315 669 315 697 q 333 624 315 642 q 379 606 351 606 z "},"จ":{"ha":779,"x_min":36,"x_max":682,"o":"m 488 -14 q 365 19 411 -14 q 308 111 318 51 l 283 260 q 242 251 264 251 q 141 289 181 251 q 101 385 101 326 q 142 481 101 444 q 243 517 183 517 q 334 488 296 517 q 381 411 372 458 l 428 136 q 447 106 431 117 q 486 94 463 94 q 543 149 543 94 l 543 578 q 496 669 543 635 q 369 704 449 704 q 238 669 292 704 q 172 578 183 635 l 36 578 q 135 750 44 686 q 372 814 225 814 q 597 753 513 814 q 682 590 682 692 l 682 150 q 632 28 682 71 q 488 -14 582 -14 m 238 326 q 280 343 264 326 q 296 386 296 360 q 280 428 296 413 q 238 444 264 444 q 194 428 211 444 q 178 386 178 413 q 194 343 178 360 q 238 326 211 326 z "}}}
